<?xml version="1.0" standalone="no"?>
<!DOCTYPE svg PUBLIC "-//W3C//DTD SVG 1.1//EN" "http://www.w3.org/Graphics/SVG/1.1/DTD/svg11.dtd" >
<svg>
<metadata>
Created by FontForge 20090914 at Sat Mar 31 14:21:08 2012
 By www-data
Copyright &#194;&#169; 1993 House Industries, Brand Design Company. Copyright &#194;&#169; 2001, 2006 Apple Computer, Inc. All rights reserved.
</metadata>
<defs>
<font id="Cracked" horiz-adv-x="0" >
  <font-face 
    font-family="Cracked"
    font-weight="400"
    font-stretch="normal"
    units-per-em="1000"
    panose-1="0 0 4 0 0 0 0 0 0 0"
    ascent="800"
    descent="-200"
    x-height="473"
    cap-height="650"
    bbox="-389.001 -365.005 999.998 1109"
    underline-thickness="20"
    underline-position="-120"
    unicode-range="U+000A-U+FB02"
  />
<missing-glyph horiz-adv-x="500" 
d="M63 0v783h375v-783h-375zM125 63h250v658h-250v-658z" />
    <glyph glyph-name="fi" unicode="fi" horiz-adv-x="464" 
d="M252 636l-1.00098 1.00293c6 -18 9 -34 9 -48c0 -18.667 -5 -32.334 -15 -41.001c-3.33301 4.66699 -8 7 -14 7c-0.666992 0 -8.66699 -2 -24 -6c-10.667 -10 -16 -25 -16 -45c0 -15.333 3 -32.333 9 -51c2.66699 -1.33301 5.33398 -2 8.00098 -2
c3.33301 0 7.83301 1.66699 13.5 5s9.5 5 11.5 5c4 0 7.66699 -2.66699 11 -8c6 -8.66699 9 -22.334 9 -41.001s-3 -34.334 -9 -47.001c-4.66699 -2 -9 -3 -13 -3c-6.66699 0 -11.667 5.33301 -15 16c-3.33301 13.333 -6 21 -8 23c-15.333 -46.667 -23 -112 -23 -196v-48
v-48c0 -54.667 -2.66699 -98.667 -8 -132c-15.333 -2 -44.666 2.66699 -87.999 14l-6 -8c-5.33301 48.667 -8 112.667 -8 192v190l-14 37l-11 -23c-4 -8.66699 -10 -13.334 -18 -14.001c-5.33301 9.33301 -8 22.333 -8 39v42c2.66699 0.666992 6.66699 2.66699 12 6
s9.33301 5 12 5c4.66699 0 9 -3.66699 13 -11c6 14.667 11 38 15 70s8.33301 54.667 13 68c9.33301 24 24.333 41.333 45 52c4.66699 -1.33301 11.167 -1.16602 19.5 0.500977s13.166 2.5 14.499 2.5c4 0 7 -1 9 -3c6 5.33301 12.333 8 19 8c4 0 10.833 -1.66699 20.5 -5
s17.167 -5 22.5 -5c4.66699 0 9 0.666992 13 2zM429.999 554.003c-16 -5.33301 -33.668 -8 -53.001 -8h-57c1.33301 8 1.33301 19 0 33c-0.666992 18.667 -1 30 -1 34c0 20.667 4.66699 35 14 43c4 1.33301 8.33301 2 13 2c6.66699 0 17.334 -1.83301 32.001 -5.5
s26.334 -5.5 35.001 -5.5c5.33301 0 10.666 0.666992 15.999 2c5.33301 -8.66699 8 -18.667 8 -30c0 -6.66699 -1.33301 -17.167 -4 -31.5s-3.66699 -25.5 -3 -33.5zM435.998 128.003c-4.66699 -10 -7 -23.665 -7 -40.998c0 -5.33301 0.333008 -13.666 1 -24.999v-25
c0 -30.667 -10 -49.334 -30 -56.001h-45c-18.667 -0.666992 -33 1.66602 -43 6.99902c5.33301 6.66699 8 15 8 25c0 10.667 -2.66699 19.334 -8 26.001c5.33301 58.667 8 129 8 211c-0.666992 147.333 -1 216.333 -1 207c35.333 6 58.333 9 69 9c26.667 0 42.667 -8 48 -24
c-8 -13.333 -9.16699 -33.833 -3.5 -61.5s4.5 -48.834 -3.5 -63.501c8 -12 9.16699 -30 3.5 -54s-4.5 -41.667 3.5 -53c1.33301 -3.33301 2 -6.66602 2 -9.99902c0 -4.66699 -1.5 -10.334 -4.5 -17.001s-4.5 -11.667 -4.5 -15c0 -4 2 -7.66699 6 -11
c-4 -2 -6 -4.66699 -6 -8c0 -2 1.33301 -5.33301 4 -10s3.66699 -8.33398 3 -11.001z" />
    <glyph glyph-name="fl" unicode="fl" horiz-adv-x="462" 
d="M252 636l-1.00098 1.00293c6 -18 9 -34 9 -48c0 -18.667 -5 -32.334 -15 -41.001c-3.33301 4.66699 -8 7 -14 7c-0.666992 0 -8.66699 -2 -24 -6c-10.667 -10 -16 -25 -16 -45c0 -15.333 3 -32.333 9 -51c2.66699 -1.33301 5.33398 -2 8.00098 -2
c3.33301 0 7.83301 1.66699 13.5 5s9.5 5 11.5 5c4 0 7.66699 -2.66699 11 -8c6 -8.66699 9 -22.334 9 -41.001s-3 -34.334 -9 -47.001c-4.66699 -2 -9 -3 -13 -3c-6.66699 0 -11.667 5.33301 -15 16c-3.33301 13.333 -6 21 -8 23c-15.333 -46.667 -23 -112 -23 -196v-48
v-48c0 -54.667 -2.66699 -98.667 -8 -132c-15.333 -2 -44.666 2.66699 -87.999 14l-6 -8c-5.33301 48.667 -8 112.667 -8 192v190l-14 37l-11 -23c-4 -8.66699 -10 -13.334 -18 -14.001c-5.33301 9.33301 -8 22.333 -8 39v42c2.66699 0.666992 6.66699 2.66699 12 6
s9.33301 5 12 5c4.66699 0 9 -3.66699 13 -11c6 14.667 11 38 15 70s8.33301 54.667 13 68c9.33301 24 24.333 41.333 45 52c4.66699 -1.33301 11.167 -1.16602 19.5 0.500977s13.166 2.5 14.499 2.5c4 0 7 -1 9 -3c6 5.33301 12.333 8 19 8c4 0 10.833 -1.66699 20.5 -5
s17.167 -5 22.5 -5c4.66699 0 9 0.666992 13 2zM436.999 2.00293h0.998047c-2.66699 -14.667 -18 -24.334 -46 -29.001l-6 8c-2 -5.33301 -6.33301 -8 -13 -8h-17l-8 8c-2 -4.66699 -9.33301 -7.66699 -22 -9c-5.33301 46.667 -7.66602 105.667 -6.99902 177v179
c-1.33301 41.333 -3.66602 77.333 -6.99902 108c4.66699 6.66699 5.5 19.334 2.5 38.001s-1.5 32.334 4.5 41.001c-5.33301 8.66699 -8 19.667 -8 33s3 24.666 9 33.999c-0.666992 3.33301 -0.666992 15.333 0 36c0 16.667 -2.66699 28.667 -8 36c0 21.333 11 32 33 32
c4 0 9.83301 -0.333008 17.5 -1s13.167 -1 16.5 -1c12.667 0 21.667 2.66699 27 8c12.667 -4 23 -14 31 -30c-5.33301 -107.333 -8 -216.333 -8 -327c0 -110 2.66699 -221 8 -333z" />
    <glyph glyph-name=".notdef" horiz-adv-x="500" 
d="M63 0v783h375v-783h-375zM125 63h250v658h-250v-658z" />
    <glyph glyph-name=".null" 
 />
    <glyph glyph-name=".null" 
 />
    <glyph glyph-name="nonmarkingreturn" unicode="&#xa;" horiz-adv-x="183" 
 />
    <glyph glyph-name="space" unicode=" " horiz-adv-x="183" 
 />
    <glyph glyph-name="exclam" unicode="!" horiz-adv-x="204" 
d="M160 602v1.00098v-15c-0.666992 -6 -3.66699 -10 -9 -12c5.33301 -4.66699 8 -9.66699 8 -15c0 -4 -1.5 -9.5 -4.5 -16.5s-4.5 -12.167 -4.5 -15.5s1 -6.33301 3 -9c2 -16 3 -33 3 -51c0 -30.667 -3.66699 -76 -11 -136c-6.66699 -62 -10.334 -107.333 -11.001 -136
c-5.33301 -2 -10.333 -1.33301 -15 2s-9 6.66602 -13 9.99902c0 -0.666992 0.666992 4.33301 2 15c0.666992 6 -1.33301 10 -6 12l-25 -13c-11.333 18 -16 41.333 -14 70c8.66699 2.66699 12.834 10 12.501 22s2.16699 19.667 7.5 23c-2 5.33301 -6 8 -12 8h-14
c-5.33301 78.667 -12 194 -20 346c8.66699 6.66699 21.5 7.66699 38.5 3s29.833 -3 38.5 5l6 -8c12 10.667 25 11 39 1c7.33301 -7.33301 11 -17.333 11 -30c0 -7.33301 -1.5 -18 -4.5 -32s-4.83301 -23.667 -5.5 -29zM159 121.001
c5.33301 -26.667 8.00098 -49.002 8.00098 -67.002c0 -26 -5 -46.333 -15 -61c-4.66699 4 -17 6.33301 -37 7l-8 -6c-6 4.66699 -11.667 14.334 -17 29.001c-6.66699 18.667 -11.334 30.334 -14.001 35.001c-12.667 -9.33301 -23.667 -7.66602 -33 5.00098l1 51
c12.667 1.33301 27 1.33301 43 0c34 5.33301 58 7.66602 72 6.99902zM106.001 505.999c-0.666992 -1.33301 -1 -3 -1 -5s0.333008 -4 1 -6c-1.33301 4 -1.33301 7.66699 0 11zM114.001 377.999h-13l-20 -31z" />
    <glyph glyph-name="quotedbl" unicode="&#x22;" horiz-adv-x="336" 
d="M280 656c-0.666992 -21.333 -0.333008 -50.333 1 -87c2 -44 3 -73.333 3 -88c0 -45.333 -4.66699 -83 -14 -113c-5.33301 -0.666992 -10.333 -1 -15 -1c-20.667 0 -35 7 -43 21c-5.33301 10 -8 26.333 -8 49v14c0.666992 6 1 10.667 1 14c0 12 -0.666992 21.667 -2 29
l-3 144zM120.001 653c-0.666992 -17.333 -0.333008 -41.001 1 -71.001c2 -35.333 3 -59 3 -71c0 -40 -5.33301 -72.667 -16 -98c-4 11.333 -12.333 17 -25 17c-2.66699 0 -8.66699 -0.666992 -18 -2s-16.333 -1.66602 -21 -0.999023l-4 224z" />
    <glyph glyph-name="numbersign" unicode="#" horiz-adv-x="390" 
d="M322 556c0 -18 0 -26.001 0 -24.001c-0.666992 -8.66699 -4.66699 -14.667 -12 -18c-2 1.33301 -11.667 4.33301 -29 9c-12.667 2.66699 -19 8.33398 -19 17.001c0 4 1.33301 8.66699 4 14c4.66699 11.333 14.667 17 30 17c13.333 0 22 -5 26 -15zM355 332.999
l-23.999 -0.000976562c-8 1.33301 -14 5.66602 -18 12.999c-16 -15.333 -27.667 -37.666 -35 -66.999c-11.333 -45.333 -17.666 -69.666 -18.999 -72.999c12 -12 17.333 -21.333 16 -28c-29.333 10.667 -44 36.667 -44 78c0 18 4.33301 33.333 13 46l14 14
c-0.666992 0.666992 -7.66699 5.66699 -21 15c-8.66699 6.66699 -15.667 10 -21 10s-10 -3.66699 -14 -11c-13.333 9.33301 -20.666 14 -21.999 14c-2 0 -4 -0.333008 -6 -1c-11.333 -10.667 -17.666 -27.667 -18.999 -51c-1.33301 -34 -2.33301 -53 -3 -57
c-5.33301 -20 -19 -34.333 -41 -43c-0.666992 -0.666992 -5.66699 -4.33398 -15 -11.001c-5.33301 -4.66699 -7.33301 -9.66699 -6 -15l32 -33c-2 3.33301 -3 6.66602 -3 9.99902c0 10 6.16699 17.833 18.5 23.5s26.166 8.5 41.499 8.5c17.333 0 31 -3.33301 41 -10
c-36.667 -8 -62.334 -28.333 -77.001 -61l-27 -90c-12 -33.333 -32.333 -54.666 -61 -63.999c1.33301 12 6.66602 35.667 15.999 71c8 30 12 54.667 12 74c0 12 -1.33301 24 -4 36l-56 42c17.333 1.33301 35.333 10.666 54 27.999
c24.667 22.667 43.334 37.334 56.001 44.001c-10.667 9.33301 -17.667 14 -21 14c-2 0 -4.33301 -0.666992 -7 -2c10.667 34.667 15 58.667 13 72c-5.33301 9.33301 -14.666 14 -27.999 14c-4 0 -11 -0.666992 -21 -2s-17.333 -1.66602 -22 -0.999023v28
c0.666992 0 15.667 0.333008 45 1c18 0 31 5.33301 39 16c-0.666992 15.333 -1.66699 31 -3 47c-3.33301 16.667 -12.333 28.334 -27 35.001c1.33301 0.666992 8.66602 0.666992 21.999 0c7.33301 -0.666992 12.666 4 15.999 14c-6.66699 3.33301 -10 8.66602 -10 15.999
c0 4.66699 2.5 13.667 7.5 27s6.83301 23 5.5 29c2.66699 7.33301 8.16699 11.333 16.5 12s16.166 1.33398 23.499 2.00098c2.66699 -6 4 -13.667 4 -23c0 -10.667 -2.66699 -29.667 -8 -57s-8 -47.666 -8 -60.999c0 -40.667 19.667 -63.334 59 -68.001c20 10 30 25 30 45
c0 5.33301 -1 13.166 -3 23.499s-3 17.5 -3 21.5c0 16.667 12.667 25 38 25c6 0 12.667 -0.333008 20 -1c2 -6 -2.66699 -15.333 -14 -28c10 -10 17.333 -15 22 -15c2 0 4 0.333008 6 1l14 15l14 -14l-54 -43c7.33301 -9.33301 26 -18.333 56 -27v-28zM247.001 135.998
c2 -12.667 2.99805 -25.333 2.99805 -38c0 -23.333 -9 -71 -27 -143l-42 -2c4.66699 13.333 8.83398 36.5 12.501 69.5s7.83398 56.167 12.501 69.5c8 23.333 21.667 38 41 44z" />
    <glyph glyph-name="dollar" unicode="$" horiz-adv-x="406" 
d="M359 266c4 -16 5.99902 -33.3359 5.99902 -52.0029c0 -27.333 -6 -65.666 -18 -114.999c-7.33301 -5.33301 -14 -8 -20 -8s-14.667 3.83301 -26 11.5s-22 10.834 -32 9.50098c6.66699 15.333 10 33 10 53c0 7.33301 -0.5 18.5 -1.5 33.5s-1.5 26.5 -1.5 34.5
c0 17.333 2.33301 33 7 47c-1.33301 0.666992 -4.66602 3.66699 -9.99902 9c-3.33301 3.33301 -6.66602 4.33301 -9.99902 3l-7 -7c-0.666992 -1.33301 -0.666992 -10.333 0 -27c0 -14.667 -2 -25 -6 -31v-78c0 -31.333 2.33301 -56.333 7 -75
c2.66699 4.66699 7.33398 6.66699 14.001 6c11.333 -0.666992 17.333 -1 18 -1c10.667 -7.33301 16 -17 16 -29c0 -3.33301 -0.666992 -9.66602 -2 -18.999s-1.66602 -16.666 -0.999023 -21.999h-31c-12.667 -1.33301 -19.334 -7.33301 -20.001 -18c4 -12 6 -28.667 6 -50
c-0.666992 -30.667 -0.666992 -48.334 0 -53.001c-10.667 0 -17 -2 -19 -6c-2.66699 4.66699 -5.33398 7 -8.00098 7c-2 0 -5 -1.5 -9 -4.5s-7.33301 -4.5 -10 -4.5c-2 0 -4 0.666992 -6 2l-19 109c-3.33301 -3.33301 -7.33301 -5 -12 -5s-10.334 1.33301 -17.001 4
c-9.33301 4 -15 6.33301 -17 7v12c9.33301 -0.666992 16.833 1.83301 22.5 7.5s11.167 11.5 16.5 17.5c-3.33301 1.33301 -6.66602 2 -9.99902 2c-4.66699 0 -12.5 -1.5 -23.5 -4.5s-19.833 -4.5 -26.5 -4.5c-3.33301 0 -6.66602 0.333008 -9.99902 1
c-6 10 -17.333 23.667 -34 41c-15.333 15.333 -26 29.666 -32 42.999c-2 5.33301 -3 10.333 -3 15c0 11.333 8.66699 18.666 26 21.999c20 4 32 8.66699 36 14c17.333 2.66699 30.333 -14.333 39 -51c2.66699 -4 4 -7.66699 4 -11c0 -4.66699 -4 -9 -12 -13
s-12 -7.66699 -12 -11s2 -7 6 -11c19.333 11.333 34.666 16 45.999 14l12 -13c-0.666992 13.333 0.666016 35.666 3.99902 66.999c4 34.667 6 59.334 6 74.001c0 52.667 -18.667 85 -56 97c-2.66699 -1.33301 -5 -2 -7 -2c-3.33301 0 -6.83301 3.5 -10.5 10.5
s-5.83398 10.833 -6.50098 11.5c-10 10.667 -18.667 27.334 -26 50.001c-6.66699 19.333 -13 38.666 -19 57.999v39c2.66699 1.33301 5.66699 2 9 2c4.66699 0 10.667 -2.66699 18 -8s13 -8 17 -8c4.66699 0 9.33398 2.66699 14.001 8
c-9.33301 1.33301 -14 7.66602 -14 18.999c0 26 0.333008 36.667 1 32c-0.666992 3.33301 0.666016 7.5 3.99902 12.5s4.33301 9.5 3 13.5c-6 4.66699 -10.333 6.33398 -13 5.00098l-6 -5c-6.66699 5.33301 -10 11.666 -10 18.999c0 6.66699 3.33301 15.334 10 26.001
c6 8.66699 11.667 17.334 17 26.001c13.333 6.66699 27 13 41 19c14.667 8.66699 20.334 21 17.001 37c16.667 2 28.334 3 35.001 3c24.667 0 37 -9.66699 37 -29c0 -3.33301 -0.333008 -7.33301 -1 -12c38 2.66699 70.333 -16.333 97 -57l1 -13c-5.33301 2 -11 3 -17 3
c-6.66699 0 -15.834 -1.33301 -27.501 -4s-19.834 -4 -24.501 -4c-13.333 0 -22.666 8 -27.999 24l-6 -6l-14 14c-6 -16.667 -9 -33 -9 -49c0 -17.333 5.16699 -42.166 15.5 -74.499s15.5 -58.5 15.5 -78.5c0 -8 -0.666992 -16 -2 -24l45 -32
c3.33301 0.666992 6.33301 1 9 1c12 0 22.333 -7.5 31 -22.5s16.667 -29.5 24 -43.5zM177.999 558.997l1.00098 -1.00098c-2 -6 -6.33301 -11 -13 -15l-6 6l-9 -43c-3.33301 -17.333 -11.333 -28.666 -24 -33.999c2 -4 9 -6 21 -6
c7.33301 -4.66699 12.666 -11.667 15.999 -21c5.33301 -16 8.33301 -24.333 9 -25c3.33301 12.667 5.33301 27.667 6 45c0.666992 12 0.666992 27.667 0 47c-0.666992 26 -1 41.667 -1 47z" />
    <glyph glyph-name="percent" unicode="%" horiz-adv-x="482" 
d="M177 456c8 -7.33301 12.0029 -15.668 12.0029 -25.001s-6 -23 -18 -41c-13.333 -20 -21 -34 -23 -42c-6.66699 -2 -13.334 -3 -20.001 -3c-13.333 0 -26.166 5.33301 -38.499 16s-23.833 21.334 -34.5 32.001l-2 46c7.33301 3.33301 13.666 5 18.999 5
c11.333 0 20 -9 26 -27c6.66699 -21.333 13 -34 19 -38c30 34.667 45 76.667 45 126c0 44.667 -12 90.334 -36 137.001c-20.667 -1.33301 -31 -13 -31 -35c0 -4 0.333008 -10.333 1 -19s1 -15.334 1 -20.001c0 -16.667 -4.66699 -28.667 -14 -36c10 -4 15 -19.333 15 -46
c-2 0.666992 -13.333 0.666992 -34 0c-13.333 -0.666992 -22.666 4.33301 -27.999 15c5.33301 12.667 10.166 35.167 14.499 67.5s9.16602 54.833 14.499 67.5c9.33301 20.667 24.666 32.667 45.999 36c10.667 2.66699 20.667 4 30 4c36 0 54 -24.333 54 -73
c0 -18.667 -3 -45.5 -9 -80.5s-9 -57.167 -9 -66.5zM390.003 662.998c-2.66699 -6 -17.332 -43.667 -43.999 -113c-17.333 -45.333 -37.333 -80.666 -60 -105.999c2 -32 -3.66699 -67.667 -17 -107c-14.667 -42 -33.334 -73.333 -56.001 -94
c-13.333 -138.667 -48 -221.667 -104 -249l-15 13c28 54 55 125.667 81 215c40.667 142 62 216 64 222h26c8.66699 1.33301 15 6.66602 19 15.999c-10.667 10.667 -18.667 16 -24 16c-2 0 -4.33301 -0.333008 -7 -1l75 202zM444.005 277.998
c-1.33301 -10.667 -2 -22.332 -2 -34.999c0 -14 1.16699 -35.5 3.5 -64.5s3.5 -50.5 3.5 -64.5c0 -52.667 -15.667 -91 -47 -115c-75.333 -8.66699 -113 42.666 -113 153.999c0 60.667 15 117 45 169c39.333 0 62 -0.666992 68 -2c24.667 -4.66699 38.667 -18.667 42 -42z
M382.005 277c-21.333 -20 -32 -55.334 -32 -106.001c0 -47.333 7 -89.666 21 -126.999z" />
    <glyph glyph-name="ampersand" unicode="&#x26;" horiz-adv-x="484" 
d="M445 17l-6.00195 -96.001c-6 -2 -12 -3 -18 -3c-9.33301 0 -21.5 4 -36.5 12s-26.167 12 -33.5 12c-2.66699 0 -5.33398 -0.333008 -8.00098 -1c-0.666992 1.33301 -4 12.333 -10 33c-3.33301 13.333 -8.66602 23 -15.999 29c-4 -2 -6 -4 -6 -6
c0 -1.33301 1 -4.16602 3 -8.49902s3 -7.5 3 -9.5c-34 -49.333 -66.667 -75.333 -98 -78c-3.33301 4.66699 -5.83301 13.334 -7.5 26.001s-5.16699 21.334 -10.5 26.001c-2 -1.33301 -17 -5.66602 -45 -12.999l-13 33c-3.33301 -2 -6.66602 -3 -9.99902 -3
c-4.66699 0 -11.667 4.66699 -21 14s-18.333 13.666 -27 12.999c-10 15.333 -18.667 36 -26 62l-18 66c8.66699 8.66699 12.334 27.667 11.001 57c4 22 23 49.667 57 83c32.667 30.667 49 57.334 49 80.001c0 15.333 -5.33301 32 -16 50c-10 26 -15 53.333 -15 82
c0 41.333 9.66699 82.666 29 123.999c16.667 26.667 41.334 40 74.001 40c5.33301 0 10.666 -0.666992 15.999 -2c6 0.666992 15 2.33398 27 5.00098c10 2 17.667 3 23 3c11.333 0 22.666 -4.66699 33.999 -14c15.333 -6.66699 27.666 -18.667 36.999 -36
c2 -2.66699 9 -18.667 21 -48c-3.33301 -40 -5.66602 -63.667 -6.99902 -71c-6 -26 -16.667 -45 -32 -57c-2 3.33301 -4.33301 5 -7 5s-6.16699 -1.5 -10.5 -4.5s-7.16602 -4.83301 -8.49902 -5.5c5.33301 -5.33301 9.33301 -7.33301 12 -6c0.666992 -16.667 -7 -35 -23 -55
c-19.333 -24 -30.666 -40.667 -33.999 -50l-7 7l-6 -7l-6 7l-51 -38l-13 13c0.666992 -18.667 -4.83301 -44.334 -16.5 -77.001s-17.5 -57 -17.5 -73c0 -18 4.66699 -35 14 -51c0 -8.66699 -6.16699 -19 -18.5 -31s-18.5 -23.333 -18.5 -34
c0 -5.33301 1.33301 -11.333 4 -18l8 -5c7.33301 16.667 17.666 25 30.999 25c5.33301 0 14.166 -2.33301 26.499 -7s21.5 -7 27.5 -7c13.333 0 23.666 8.66699 30.999 26l-23 72c-9.33301 29.333 -21.333 50.333 -36 63c-1.33301 43.333 5 73.666 19 90.999
c10 12.667 23 19 39 19c8 0 14.667 -2 20 -6c2.66699 -10.667 9.33398 -27.334 20.001 -50.001s17 -40.667 19 -54c7.33301 13.333 14.333 31.333 21 54l16 56c0.666992 0 14.667 -4 42 -12c16.667 -4.66699 26.334 -11.334 29.001 -20.001c0.666992 -4 1 -8.33301 1 -13
c0 -17.333 -7.66699 -44.166 -23 -80.499s-23 -61.833 -23 -76.5c0 -28.667 19.333 -49 58 -61zM276.998 440.999c-0.666992 13.333 -0.667969 30.667 -0.000976562 52c1.33301 28 2 45.667 2 53c0 25.333 -2.66699 48 -8 68v-20l-9 -9
c-3.33301 -3.33301 -6.66602 -4.33301 -9.99902 -3l1 -19c-13.333 -12 -21.333 -29.667 -24 -53c-1.33301 -18.667 -2.33301 -37.334 -3 -56.001c9.33301 -1.33301 13.833 -9.16602 13.5 -23.499s4.16699 -21.5 13.5 -21.5l-1 19c2 8.66699 10.333 13 25 13z" />
    <glyph glyph-name="quotesingle" unicode="'" horiz-adv-x="164" 
d="M119 764c-0.666992 -21.333 -0.333008 -50.333 1 -87c2 -44 3 -73.333 3 -88c0 -45.333 -4.66699 -83 -14 -113c-5.33301 -0.666992 -10.333 -1 -15 -1c-20.667 0 -35 7 -43 21c-5.33301 10 -8 26.333 -8 49v14c0.666992 6 1 10.667 1 14c0 12 -0.666992 21.667 -2 29
l-3 144z" />
    <glyph glyph-name="parenleft" unicode="(" horiz-adv-x="231" 
d="M210 799c-1.33301 -20.667 -12.998 -48.165 -34.998 -82.498s-34 -62.166 -36 -83.499c-5.33301 4.66699 -10.666 7 -15.999 7c-10.667 0 -22.667 -11.333 -36 -34c0.666992 -1.33301 0.666992 -7 0 -17c0 -6.66699 2 -11.334 6 -14.001
c23.333 10 38.666 14.333 45.999 13l6 -21c-2.66699 1.33301 -5.33398 2 -8.00098 2c-4 0 -7.33301 -2.66699 -10 -8c-4 -7.33301 -6.33301 -11.333 -7 -12c1.33301 -7.33301 2 -15 2 -23c0 -14 -2.83301 -36.167 -8.5 -66.5s-8.5 -53.5 -8.5 -69.5
c0 -16.667 2.33301 -32.334 7 -47.001l-5 -6c15.333 -74.667 24.666 -119 27.999 -133c11.333 -50.667 23.333 -94.334 36 -131.001c-12 0 -23.333 -8 -34 -24s-20.667 -25.333 -30 -28c0 12 -6.33301 27.833 -19 47.5s-19 34.834 -19 45.501c0 6 1.33301 11.667 4 17
c-17.333 5.33301 -26 17.333 -26 36c0 3.33301 0.333008 6.66602 1 9.99902c10 14.667 15 27.667 15 39c0 13.333 -9.33301 29 -28 47s-28 33.667 -28 47c0 10 3.33301 21 10 33c-4.66699 31.333 -7 62.333 -7 93c0 152 47.333 286 142 402
c10 -0.666992 20 -5.16699 30 -13.5s19.333 -16.833 28 -25.5zM229.002 -34.998l-1.00098 -0.000976562c2 -4.66699 3 -9 3 -13c0 -9.33301 -6 -17.666 -18 -24.999c-1.33301 -0.666992 -11 -5 -29 -13c-6 -2.66699 -11 -4 -15 -4c-7.33301 0 -13 6.16699 -17 18.5
s-8.66699 20.166 -14 23.499c0 10.667 2.33301 17.334 7 20.001c-2 5.33301 -7 10.833 -15 16.5s-12 10.834 -12 15.501c0 2.66699 0.666992 6 2 10c6.66699 1.33301 15.334 8.66602 26.001 21.999s19.667 20 27 20c5.33301 0 11 -2.66699 17 -8c4 -14 10 -28.333 18 -43
c13.333 -26 20.333 -39.333 21 -40z" />
    <glyph glyph-name="parenright" unicode=")" horiz-adv-x="230" 
d="M169 649c-7.33301 -4.66699 -15.332 -7.00098 -23.999 -7.00098c-4 0 -10.167 0.666992 -18.5 2s-14.5 2 -18.5 2c-11.333 0 -21 -3.33301 -29 -10c1.33301 22.667 -7.33398 47.334 -26.001 74.001l-45 62l33 30c11.333 10 24 17 38 21l57 -90
c6 -9.33301 17 -37.333 33 -84zM214.001 494.999l1 -0.00585938c4.66699 -36 7 -72 7 -108c0 -123.333 -26 -229 -78 -317c4.66699 -1.33301 7 -3.66602 7 -6.99902c0 -1.33301 -1.33301 -4.16602 -4 -8.49902s-4 -7.5 -4 -9.5l-25 -25
c5.33301 -30 -3.33398 -55.333 -26.001 -76h-26c1.33301 11.333 -4 19 -16 23c-16 6 -25.333 10.667 -28 14l49 126c19.333 50.667 32.666 94.334 39.999 131.001c4.66699 22 7 48 7 78c0 10.667 -0.333008 26.334 -1 47.001s-1 36 -1 46c0 48 7 87.333 21 118
c2 4 3 7.66699 3 11c0 6 -3.83301 13.5 -11.5 22.5s-11.167 17.167 -10.5 24.5c-3.33301 4.66699 -9.66602 6.83398 -18.999 6.50098s-15.666 1.83398 -18.999 6.50098c0.666992 6 5 12.5 13 19.5s16.167 11.5 24.5 13.5s15.833 3 22.5 3c20.667 0 35 -9.33301 43 -28
c4 -8 8.33301 -27.333 13 -58c4 -25.333 10 -43 18 -53z" />
    <glyph glyph-name="asterisk" unicode="*" horiz-adv-x="200" 
d="M166 611l-48.001 -33c12 -10.667 18 -19 18 -25c0 -2 -0.333008 -4 -1 -6l-96 15c10 6.66699 25 28 45 64c-2 2 -12.667 8.33301 -32 19c-13.333 8 -20 17 -20 27c0 5.33301 1.33301 11.333 4 18c8.66699 0 17.667 -0.5 27 -1.5s16.333 -5.83301 21 -14.5
c4 8.66699 10.833 13.667 20.5 15s18.834 2 27.501 2v-48c-8 2 -18 -3.66699 -30 -17z" />
    <glyph glyph-name="plus" unicode="+" horiz-adv-x="390" 
d="M344 355l0.999023 -27.002c0.666992 -10.667 -2.66602 -18 -9.99902 -22c-8.66699 0.666992 -22.5 3.83398 -41.5 9.50098s-33.5 8.5 -43.5 8.5c-12.667 0 -24.334 -3.66699 -35.001 -11l-13 12c-1.33301 0.666992 -2.66602 1.66699 -3.99902 3l-4 4l-39 -30
c-5.33301 10 -13.333 15 -24 15c-4.66699 0 -13 -1.5 -25 -4.5s-21 -4.5 -27 -4.5c-5.33301 0 -10 0.666992 -14 2l-40 -1l-1 27c-0.666992 10.667 2.66602 18.334 9.99902 23.001c6.66699 1.33301 13.334 2 20.001 2c8.66699 0 21.5 -2 38.5 -6s29.833 -6 38.5 -6
c8 0 15.667 1 23 3c6.66699 17.333 10 37.333 10 60c0 26.667 -4.33301 49.667 -13 69l60 1c-1.33301 -9.33301 -1.33301 -22 0 -38c2 -20.667 3 -33.667 3 -39c0 -23.333 -6.66699 -41 -20 -53c0 -5.33301 1.33301 -13.333 4 -24l4 -4
c0.666992 -0.666992 2 -1.16699 4 -1.5s4.33301 -0.5 7 -0.5c6 0 16.333 7.33301 31 22zM214.999 272.998c-5.33301 -12.667 -7.99805 -42.666 -7.99805 -89.999l-50 -1c0 -0.666992 -0.333008 10 -1 32c-0.666992 13.333 2.66602 22.666 9.99902 27.999
c-7.33301 2.66699 -11 8.66699 -11 18v22c3.33301 -2.66699 7.33301 -4 12 -4c5.33301 0 12.166 2.5 20.499 7.5s13.833 7.5 16.5 7.5c6 0 9.66699 -6.66699 11 -20z" />
    <glyph glyph-name="comma" unicode="," horiz-adv-x="174" 
d="M168 164v0.998047c-24 -18.667 -37.667 -53.667 -41 -105c-2.66699 -53.333 -13.334 -89 -32.001 -107c-5.33301 -6 -10.666 -27 -15.999 -63c-4.66699 -27.333 -15.667 -41 -33 -41c-8.66699 0 -19.334 2.66699 -32.001 8l12 67c4.66699 26 10.334 47.667 17.001 65
c-20 8 -30 24.667 -30 50v21c0.666992 9.33301 1 16.333 1 21c0 14 -2.33301 25 -7 33c8.66699 8.66699 24.667 13.334 48 14.001c30.667 0.666992 48.667 1.66699 54 3c16.667 4.66699 25 16.334 25 35.001c0 6 -0.666992 12.667 -2 20l8 7c10 -6 16 -9.66699 18 -11
c4 -3.33301 7.33301 -9.33301 10 -18z" />
    <glyph glyph-name="hyphen" unicode="-" horiz-adv-x="352" 
d="M336 319l-317.001 4v46c38.667 0 76.167 3.66699 112.5 11s61.833 11 76.5 11c18.667 0 40 -2.66699 64 -8c2 -2 8.66699 -12.667 20 -32c8 -14 17 -21 27 -21c4.66699 0 10.334 1.66699 17.001 5v-16z" />
    <glyph glyph-name="period" unicode="." horiz-adv-x="123" 
d="M112 -2c-6 -6.66699 -13.3311 -10.001 -21.998 -10.001c-4 0 -12.667 2 -26 6c-10.667 3.33301 -19.334 4.33301 -26.001 3c-9.33301 0 -14 5.33301 -14 16s-2.33301 17.334 -7 20.001c8 8 9 21 3 39c-5.33301 16 -1.33301 27.667 12 35h73v-56
c-0.666992 -20 1.66602 -37.667 6.99902 -53z" />
    <glyph glyph-name="slash" unicode="/" horiz-adv-x="330" 
d="M305 702c-10.667 -12 -19.334 -30.333 -26.001 -55c-8.66699 -28.667 -15.667 -48 -21 -58c-7.33301 -2 -14 -3 -20 -3c-11.333 0 -20.166 5.33301 -26.499 16s-12.5 21.667 -18.5 33c5.33301 7.33301 9.33301 21 12 41s8.66699 33.667 18 41zM228 541
c-0.666992 -45.333 -16.332 -101.001 -46.999 -167.001s-46 -120.667 -46 -164c0 -12.667 1 -25.667 3 -39c-17.333 -24 -30 -57.333 -38 -100l-21 -107h-32c1.33301 5.33301 1.33301 13 0 23c-1.33301 12.667 -2 20.334 -2 23.001c0 15.333 5.33301 26 16 32
c-11.333 15.333 -17 32.666 -17 51.999c0 14.667 4.66699 35.334 14 62.001c9.33301 29.333 14.666 50.333 15.999 63l106 336z" />
    <glyph glyph-name="zero" unicode="0" horiz-adv-x="355" 
d="M321 156l0.000976562 -0.998047c1.33301 -5.33301 2 -9.66602 2 -12.999c0 -10.667 -8.5 -18.5 -25.5 -23.5s-26.167 -14.167 -27.5 -27.5c1.33301 -9.33301 2 -18 2 -26c0 -46 -17.667 -75.333 -53 -88c-32.667 -2.66699 -60.667 2 -84 14
c-18.667 9.33301 -40 27.666 -64 54.999c-0.666992 22.667 -9.33398 44 -26.001 64c-13.333 61.333 -20 126.666 -20 195.999c0 101.333 13.333 195 40 281c10 22.667 25.667 41.834 47 57.501s44 24.167 68 25.5l49 -9c18.667 -4 32 -11.667 40 -23
c1.33301 -4 2 -7.66699 2 -11c0 -6.66699 -2.66699 -13.667 -8 -21c-7.33301 -10 -11.333 -16 -12 -18c3.33301 -8.66699 5.33301 -23.834 6 -45.501s3 -36.834 7 -45.501c5.33301 -14.667 16.333 -23.334 33 -26.001c22 -16.667 33 -38 33 -64
c0 -13.333 -4 -34.5 -12 -63.5s-12 -50.833 -12 -65.5c0 -19.333 5.33301 -36.333 16 -51c-0.666992 -4 -2.66699 -11.667 -6 -23s-5 -20 -5 -26c0 -9.33301 3.33301 -16.666 10 -21.999zM225.001 482.002l-11.999 14.999c2.66699 18 -1.66602 38 -12.999 60
c-16 32 -24.667 49.667 -26 53c1.33301 -6 2 -11.667 2 -17c0 -10.667 -3.83301 -25.334 -11.5 -44.001s-10.834 -34 -9.50098 -46c-4.66699 -58.667 -7 -122.334 -7 -191.001c0 -68 2.33301 -133.333 7 -196c-0.666992 -5.33301 2 -11.666 8 -18.999s9 -12.666 9 -15.999
s-1.66699 -6.66602 -5 -9.99902h13c17.333 55.333 27.666 120 30.999 194c0 68 0.333008 136.333 1 205z" />
    <glyph glyph-name="one" unicode="1" horiz-adv-x="321" 
d="M227 593v-0.999023c-3.33301 -4.66699 -9.33301 -6.66699 -18 -6c-13.333 0.666992 -20.333 1 -21 1l-18 19c-6.66699 -6 -19.5 -11.5 -38.5 -16.5s-32.167 -12.167 -39.5 -21.5c-6 -0.666992 -13.333 1.5 -22 6.5s-15.334 7.5 -20.001 7.5
c-3.33301 0 -6.66602 -0.666992 -9.99902 -2c-0.666992 2.66699 -1 5 -1 7c0 5.33301 3.83301 10 11.5 14s11.5 8 11.5 12c0 3.33301 -1.33301 7.33301 -4 12c5.33301 11.333 18.333 15.666 39 12.999c35.333 36 70.333 54 105 54c8.66699 0 16.667 -1 24 -3
c10 -32 10.333 -64 1 -96zM214 534.001v1c-2 -4 -2.33301 -12 -1 -24c1.33301 -12.667 1.33301 -21 0 -25c-2.66699 -7.33301 -9 -10.333 -19 -9c-7.33301 4.66699 -15.333 7 -24 7s-20.667 -4 -36 -12c-17.333 -8.66699 -29.666 -13.667 -36.999 -15
c1.33301 4 2 8.33301 2 13c0 6 -1.5 13.833 -4.5 23.5s-4.5 16.834 -4.5 21.501c0 4 0.333008 7.66699 1 11c0.666992 0.666992 11.667 5 33 13c13.333 5.33301 19.666 14.666 18.999 27.999c4 -1.33301 12 -8.33301 24 -21c10.667 -10 21 -15 31 -15c4.66699 0 10 1 16 3z
M294 43.001c-4.66699 -3.33301 -7.00391 -10.335 -7.00391 -21.002c0 -2.66699 0.333008 -7 1 -13s1 -10 1 -12c0 -11.333 -3.33301 -17 -10 -17c-4 0 -9.66699 2 -17 6c-11.333 -4 -25.666 -6.33301 -42.999 -7c-11.333 -0.666992 -26.333 -0.666992 -45 0
c-20.667 0.666992 -34 1 -40 1c-4.66699 -5.33301 -11.667 -8 -21 -8c-17.333 0.666992 -25.333 1 -24 1c-2 1.33301 -4.66699 2 -8 2s-9 -1.5 -17 -4.5s-14.333 -4.5 -19 -4.5c-5.33301 0 -10.333 2 -15 6c-4 10.667 -6 25.334 -6 44.001c0.666992 26.667 0.666992 42 0 46
c4.66699 4.66699 12.334 7 23.001 7h13c5.33301 -0.666992 9.33301 -1 12 -1c16.667 0 24.667 8.33301 24 25c-8 6 -9.5 14.833 -4.5 26.5s4.16699 20.167 -2.5 25.5c4.66699 5.33301 7 11.333 7 18c0 4 -1.5 10.5 -4.5 19.5s-4.5 15.833 -4.5 20.5s1 9.33398 3 14.001
c2.66699 12 4 22 4 30c0 4.66699 -1.5 13 -4.5 25s-4.16699 26.667 -3.5 44c16 4 26 17 30 39c-7.33301 12 -11 22.333 -11 31c0 23.333 23.333 35 70 35c8 0 16 -0.333008 24 -1c2.66699 -117.333 8.33398 -230 17.001 -338c5.33301 -4.66699 14.666 -7 27.999 -7h10
c4.66699 0.666992 8.33398 1 11.001 1c22.667 0 32.334 -11 29.001 -33z" />
    <glyph glyph-name="two" unicode="2" horiz-adv-x="404" 
d="M392 544v1.00098c-14 -64 -21 -96.333 -21 -97c-10.667 -35.333 -27.334 -63 -50.001 -83c-5.33301 -18.667 -8.66602 -29.334 -9.99902 -32.001c-4.66699 -12 -12 -21.333 -22 -28c-1.33301 1.33301 -11 11.666 -29 30.999c-12.667 14.667 -25 22 -37 22
c-4 0 -8 -0.666992 -12 -2c3.33301 23.333 11 51 23 83c18.667 48 28.667 74.333 30 79c-3.33301 41.333 -16 73.333 -38 96c-28.667 -43.333 -48.334 -92.333 -59.001 -147c-3.33301 -0.666992 -6.66602 -1 -9.99902 -1c-6 0 -13 2 -21 6
c-10 4.66699 -16.667 7.33398 -20 8.00098c-4 -3.33301 -8.33301 -5 -13 -5s-10.334 1.33301 -17.001 4c-9.33301 4 -14.666 6.33301 -15.999 7c-1.33301 62.667 22.667 114 72 154c34 18 65 27 93 27c48.667 0 82.667 -25.667 102 -77c-0.666992 -1.33301 -1 -3 -1 -5
c0 -6 9.33301 -13 28 -21s28 -14.667 28 -20zM347 127.001l-1.00391 0.00195312c0 7.33301 0.666992 -10.334 2 -53.001c0 -24 -2.33301 -42.667 -7 -56c-2.66699 0.666992 -16 0.666992 -40 0c-20 0 -34.667 2 -44 6l-6 7c-6.66699 -5.33301 -11 -7.66602 -13 -6.99902
l-7 6l-5 -6c-7.33301 -0.666992 -29 1.66602 -65 6.99902c-9.33301 -4.66699 -20 -7 -32 -7c-6.66699 0 -21 2 -43 6c-17.333 2.66699 -30.666 2.66699 -39.999 0c-6 24.667 -9 42 -9 52c0 16 4.66699 31 14 45c21.333 21.333 46.333 55 75 101
c32.667 51.333 57.334 86.666 74.001 105.999c42 -10.667 67 -32.667 75 -66c2 -12.667 -1 -23 -9 -31c-3.33301 -3.33301 -12.666 -10 -27.999 -20c-2 2.66699 -5 4 -9 4c-6 0 -14 -3.33301 -24 -10c-10.667 -10 -16.667 -25 -18 -45s-6 -35.333 -14 -46c2 -4 6 -6 12 -6
c8 0.666992 12.667 0.666992 14 0c14.667 13.333 36 20 64 20c10.667 0 25 -1 43 -3c20.667 -2.66699 34.334 -4 41.001 -4z" />
    <glyph glyph-name="three" unicode="3" horiz-adv-x="373" 
d="M341 200v0.996094c1.33301 -6 2 -12.333 2 -19c0 -12.667 -3 -30 -9 -52c-6.66699 -25.333 -10.667 -42.666 -12 -51.999c-3.33301 -9.33301 -12 -22.666 -26 -39.999c-2.66699 0.666992 -7.83398 2.83398 -15.501 6.50098s-13.167 5.5 -16.5 5.5
c-6.66699 0 -11 -6 -13 -18c0.666992 -3.33301 1 -6.66602 1 -9.99902c0 -14.667 -8.33301 -23.667 -25 -27h-12c-4 0.666992 -7 2.66699 -9 6c-7.33301 -12 -11.333 -18.667 -12 -20c-4.66699 -6 -11 -10 -19 -12c-26.667 -2 -51.667 3.66699 -75 17
s-41.333 30.666 -54 51.999c-14 24 -21 48.667 -21 74c0 5.33301 0.333008 11 1 17c4 -0.666992 8.33301 -1 13 -1c7.33301 0 18.833 1.16699 34.5 3.5s27.167 3.5 34.5 3.5c11.333 0 20.666 -2 27.999 -6c0.666992 -2 3.66699 -13 9 -33
c3.33301 -14 8.66602 -24.333 15.999 -31c24.667 12.667 40.667 35.334 48 68.001c3.33301 28.667 7 57.667 11 87c-22 22.667 -43.667 35.334 -65 38.001c-2 -4 -8.33301 -6.66699 -19 -8c-9.33301 9.33301 -14 23.666 -14 42.999v48c40.667 7.33301 66.334 20 77.001 38
c11.333 53.333 17 88.333 17 105c0 36.667 -11.667 64.334 -35 83.001c-5.33301 -1.33301 -7.66602 -5.33301 -6.99902 -12c0.666992 -14 1 -19.333 1 -16c-2.66699 0.666992 -5.33398 1 -8.00098 1c-6.66699 0 -11.334 -5.66699 -14.001 -17s-6.33398 -18.333 -11.001 -21
c2.66699 -16 -4 -26.667 -20 -32c-2 0.666992 -13 0.666992 -33 0c-17.333 0 -29.666 2 -36.999 6c-1.33301 6.66699 -2 13.667 -2 21c0 27.333 11 61.333 33 102c29.333 23.333 64 35 104 35c14 0 29.333 -1.33301 46 -4c10.667 1.33301 21.334 -1.66699 32.001 -9l31 -22
c26 -22.667 39 -57.667 39 -105c0 -18.667 -2.33301 -43.334 -7 -74.001c-1.33301 -2 -7.66602 -18.667 -18.999 -50c-7.33301 -20 -18 -31.667 -32 -35c-3.33301 -7.33301 -5 -13.666 -5 -18.999c0 -10 11.333 -19.667 34 -29s34.334 -21.333 35.001 -36
c-1.33301 -2.66699 -2 -5.66699 -2 -9s1.5 -8.33301 4.5 -15s4.5 -11.334 4.5 -14.001c0 -4.66699 -2.33301 -9 -7 -13z" />
    <glyph glyph-name="four" unicode="4" horiz-adv-x="373" 
d="M359 226l-8.99707 -78.001c-16.667 0.666992 -32.334 8.33398 -47.001 23.001c0 11.333 -2 18 -6 20c-2.66699 -19.333 -4.66699 -55 -6 -107c-1.33301 -43.333 -5.66602 -78.333 -12.999 -105c-6 0.666992 -19.667 3.33398 -41 8.00098
c-16.667 3.33301 -30.334 5 -41.001 5c-6.66699 0 -13.334 -0.666992 -20.001 -2c0 -1.33301 -0.666992 7 -2 25c-0.666992 10.667 1.33301 18.667 6 24c-0.666992 15.333 -1 31 -1 47c-0.666992 21.333 -3.66699 37.666 -9 48.999c-17.333 -10 -39.333 -15.333 -66 -16
l-69 -2c-6.66699 17.333 -10 35.666 -10 54.999c0 20 5 46.667 15 80c11.333 36.667 17.666 62.667 18.999 78c12.667 18.667 26.667 51 42 97c14 44 28 75 42 93c-0.666992 31.333 11 66.333 35 105c5.33301 1.33301 11 2 17 2s16.333 -1.33301 31 -4
c12 -2 21.333 -2.66699 28 -2c22 6.66699 41.667 5.33398 59 -3.99902l-12 -381zM188.003 527.999l1 -0.00390625c-0.666992 -5.33301 -3.5 -10.666 -8.5 -15.999s-7.5 -9 -7.5 -11c0 -3.33301 4.66699 -6.66602 14 -9.99902c-4.66699 -32.667 -16.667 -80.167 -36 -142.5
s-31.333 -110.5 -36 -144.5c6 0.666992 30 -0.666016 72 -3.99902c-3.33301 20.667 -5 43.334 -5 68.001c0 21.333 1.83301 53.5 5.5 96.5s5.5 75.167 5.5 96.5c0 24 -1.66699 46.333 -5 67z" />
    <glyph glyph-name="five" unicode="5" horiz-adv-x="367" 
d="M312 624l-5.99805 -97c-10 7.33301 -22 9.33301 -36 6c-21.333 -5.33301 -32.333 -8 -33 -8c-8.66699 0 -16.334 3 -23.001 9c-4.66699 -4.66699 -9.66699 -7 -15 -7c-2.66699 0 -6.33398 0.5 -11.001 1.5s-8 1.5 -10 1.5c-6 0 -11 -2.66699 -15 -8
c-4 0 -7.16699 5.16699 -9.5 15.5s-6.16602 15.5 -11.499 15.5c-2.66699 0 -5.66699 -0.666992 -9 -2l2 -85c1.33301 -34.667 -0.333984 -63 -5.00098 -85c5.33301 -5.33301 11.333 -8 18 -8c4.66699 0 14 2.33301 28 7c12 4.66699 22 6.33398 30 5.00098
c4.66699 0.666992 9.66699 1 15 1c25.333 0 47.333 -9.33301 66 -28c10 -22.667 15 -37.667 15 -45c0 -6.66699 -1.66699 -13.334 -5 -20.001c-8.66699 -1.33301 -19.5 -9.83301 -32.5 -25.5s-23.833 -23.5 -32.5 -23.5c-6.66699 0 -14 3.66699 -22 11
c-3.33301 18 -5 27.667 -5 29c-3.33301 10 -10 14.667 -20 14c-6.66699 2 -14.167 0.5 -22.5 -4.5s-13.833 -7.5 -16.5 -7.5c-4.66699 0 -9 2 -13 6c-2 -10 -8.33301 -24 -19 -42c-27.333 3.33301 -41.666 5 -42.999 5c-16.667 3.33301 -27.334 9.33301 -32.001 18
c3.33301 -0.666992 6.5 0.833008 9.5 4.5s5.5 7.16699 7.5 10.5c-12 42.667 -18 93.334 -18 152.001c0 22.667 1 53.667 3 93c2.66699 43.333 4 73.666 4 90.999h83c33.333 0 59.333 2.66699 78 8c6 -2.66699 13 -4 21 -4c6 0 15 0.833008 27 2.5s21 2.5 27 2.5
c12.667 0 23 -3 31 -9zM341.002 188v0.99707c-8 -69.333 -13.667 -110.666 -17 -123.999c-13.333 -44.667 -39.333 -76 -78 -94c-40.667 -6.66699 -69 -10 -85 -10c-46 0 -77.333 14.667 -94 44l-23 51c-8.66699 20 -14.334 37.667 -17.001 53
c42.667 12 70.334 18 83.001 18c18 0 31.667 -5 41 -15c-3.33301 -5.33301 -5 -12 -5 -20c0 -13.333 3.66699 -25.666 11 -36.999c3.33301 0 8.16602 -1.66699 14.499 -5s10.833 -5 13.5 -5c4.66699 0 8.33398 2.66699 11.001 8c14 15.333 21 37.333 21 66
c0 6 -0.333008 15.167 -1 27.5s-1 21.5 -1 27.5c0 14.667 1.66699 27.334 5 38.001h46c18.667 0 32.667 -5.33301 42 -16c14 4.66699 25 2 33 -8z" />
    <glyph glyph-name="six" unicode="6" horiz-adv-x="366" 
d="M340 166h-0.999023c-14 -6.66699 -19 -22 -15 -46c4 -28.667 3 -47.667 -3 -57c-1.33301 -4 -6 -10.667 -14 -20s-12 -16.666 -12 -21.999s2.33301 -10.666 7 -15.999c-4.66699 -10 -14.334 -20.667 -29.001 -32s-24.667 -21.666 -30 -30.999
c-12.667 8 -31.667 14.333 -57 19c-30 5.33301 -49.667 10.333 -59 15c-20.667 8.66699 -35 22.667 -43 42c-40 58 -60 142.333 -60 253c0 21.333 0.666992 46.333 2 75c3.33301 68 11.333 121.333 24 160c19.333 56 51.666 97 96.999 123c1.33301 18.667 13 28 35 28
c7.33301 0 17.666 -1.33301 30.999 -4s21.333 -4 24 -4l39 -20c36 -38.667 54 -77 54 -115c0 -8.66699 -1 -17.667 -3 -27c-39.333 -7.33301 -71.333 -14 -96 -20c-4.66699 8 -8 26 -10 54c-2 23.333 -9.66699 39.666 -23 48.999c-5.33301 0 -9.66602 -2.16699 -12.999 -6.5
s-6.66602 -6.5 -9.99902 -6.5c-2.66699 0 -5.66699 0.666992 -9 2c-16 -46.667 -22.333 -94.334 -19 -143.001c0 -10 -0.333008 -20 -1 -30c0 -15.333 2.33301 -26.333 7 -33l52 38h64c32.667 -24.667 54 -58.334 64 -101.001c6.66699 -28.667 9 -70 7 -124zM204.001 56
l-1 -0.000976562c6 52 9 94.333 9 127c0 44.667 -5 90.334 -15 137.001l-6 -12l-6 6v-6c-10 -6.66699 -18.333 -10 -25 -10c-3.33301 0 -6 1 -8 3v-95c0 -41.333 2.33301 -74 7 -98l10 -34c6 -13.333 14 -20 24 -20c3.33301 0 7 0.666992 11 2zM223.001 30.999v1.00098
c-7.33301 0.666992 -18.333 -2 -33 -8c0 -4 -4.83301 -8.16699 -14.5 -12.5s-14.5 -8.83301 -14.5 -13.5c0 -2.66699 1 -6 3 -10c7.33301 17.333 27 31.666 59 42.999z" />
    <glyph glyph-name="seven" unicode="7" horiz-adv-x="350" 
d="M309 697l0.00195312 0.998047c1.33301 -7.33301 2 -14.666 2 -21.999c0 -22 -9.83301 -51.833 -29.5 -89.5s-28.167 -69.167 -25.5 -94.5c-6.66699 1.33301 -10.5 -2.33398 -11.5 -11.001s-3.16699 -13.667 -6.5 -15l-7 6l-12 -70c8.66699 -8 13 -19.667 13 -35
c0 -8.66699 -2.33301 -22.667 -7 -42c-22 -94.667 -33 -162 -33 -202c0 -24.667 2.33301 -47.334 7 -68.001l-7 -6l7 -8l-6 -5c0 -2 0.166992 -8.16699 0.5 -18.5s0.166016 -18.166 -0.500977 -23.499c-0.666992 -9.33301 -2.66699 -16.666 -6 -21.999
c-7.33301 -5.33301 -17 -8 -29 -8s-21.667 2.66699 -29 8c-0.666992 5.33301 1.33301 12 6 20s7 13.667 7 17c0 4.66699 -2.33301 9 -7 13c-0.666992 -17.333 -10 -26 -28 -26c-3.33301 0 -8.66602 0.333008 -15.999 1s-13 1 -17 1c-10 0 -17.667 -2 -23 -6l-6 5
c-0.666992 65.333 12.666 141 39.999 227l69 216c2 8.66699 9.66699 25.667 23 51c11.333 21.333 17 38.666 17 51.999c0 14 -4.66699 27 -14 39c-8 -14 -12 -20.333 -12 -19c0 -3.33301 2 -5.66602 6 -6.99902c-6.66699 -5.33301 -15.5 -6 -26.5 -2
s-19.833 2.66699 -26.5 -4c-2 4 -4.33301 6 -7 6c-1.33301 0 -4 -1.16699 -8 -3.5s-7 -3.5 -9 -3.5c-2.66699 1.33301 -17 4 -43 8c-18 2.66699 -27.667 11 -29 25c0.666992 12 5 25.333 13 40l20 37c5.33301 -3.33301 14.833 -5.16602 28.5 -5.49902
s23.167 -2.83301 28.5 -7.5c4 7.33301 9.5 8.5 16.5 3.5s12.167 -4.16699 15.5 2.5c1.33301 -4 5.33301 -6 12 -6c8.66699 0.666992 13.667 0.666992 15 0l6 6l5 -5c1.33301 4.66699 5 6.66699 11 6c9.33301 -0.666992 14.333 -1 15 -1l27 -39
c1.33301 38 -5.33398 66 -20.001 84c5.33301 13.333 15 20 29 20c6 0 26.667 -6.66699 62 -20z" />
    <glyph glyph-name="eight" unicode="8" horiz-adv-x="348" 
d="M316 441c-4.66699 -3.33301 -14.001 -15.6699 -28.001 -37.0029c-10.667 -16 -21 -24 -31 -24c-4 0 -8 1 -12 3l-6 -6l5 -6c-11.333 -4 -17 -9.33301 -17 -16c0 -3.33301 3.33301 -10.666 10 -21.999s9 -20.666 7 -27.999c45.333 -32 68 -80 68 -144
c0 -20.667 -3.33301 -40.667 -10 -60l-25 -72c-3.33301 0 -8.33301 0.5 -15 1.5s-11.334 1.5 -14.001 1.5c-10.667 0 -15.667 -7 -15 -21c-2.66699 -8 -12 -16.667 -28 -26c-19.333 -10.667 -31.666 -19.334 -36.999 -26.001c-2 0.666992 -25 4 -69 10
c-27.333 4 -47.333 14 -60 30c-1.33301 15.333 -2 31.333 -2 48c0 92.667 20.333 174.334 61 245.001c-2.66699 15.333 -12.667 35.333 -30 60c-16 22.667 -24 41.334 -24 56.001c0 4 0.333008 8.33301 1 13c-12.667 16 -19 36 -19 60c0 14.667 2.33301 33.334 7 56.001
l12 52c20 25.333 35.667 42.666 47 51.999c18.667 15.333 39.334 24 62.001 26c7.33301 -3.33301 30 -9.33301 68 -18c27.333 -6.66699 48 -16 62 -28c26 -22.667 39 -58 39 -106c0 -19.333 -2.33301 -44 -7 -74zM211.999 562.996l-6 -6.00098c-10 7.33301 -14 18 -12 32
c-4 -8.66699 -10.667 -13.667 -20 -15c-15.333 -2.66699 -23.333 -4.33398 -24 -5.00098c-5.33301 -21.333 -8 -39.666 -8 -54.999c0 -20 4.33301 -35.667 13 -47c-0.666992 -2.66699 -1 -5.66699 -1 -9c0 -8 2.66699 -19.167 8 -33.5s8 -24.166 8 -29.499
c0 -4 -0.666992 -7.33301 -2 -10c30.667 36 46 84.333 46 145c0 11.333 -0.666992 22.333 -2 33zM161.999 377.995l1 -1h-2zM194.999 72.9951l-1 0.00195312c0.666992 12.667 1 24 1 34c0 55.333 -15.333 98 -46 128c2.66699 7.33301 9.16699 11.333 19.5 12
s16.833 3 19.5 7c-0.666992 2 -1 3.66699 -1 5c0 2.66699 1.33301 6.16699 4 10.5s4 7.83301 4 10.5l-6 -6c-9.33301 6 -14 16.667 -14 32v37c-3.33301 -3.33301 -5.33301 -14.333 -6 -33c-0.666992 -14.667 -6 -22.667 -16 -24h1l15 -12
c-2 -8.66699 -10.833 -17.167 -26.5 -25.5s-24.167 -19.5 -25.5 -33.5c-10 -34.667 -15 -62.334 -15 -83.001c0 -30.667 9.33301 -54.334 28 -71.001c4.66699 -0.666992 9 -1 13 -1c8 0 23 7 45 21zM186.999 8.99707l-5.99805 37l-14 -60
c3.33301 2.66699 7.16602 5.5 11.499 8.5s7.16602 7.83301 8.49902 14.5z" />
    <glyph glyph-name="nine" unicode="9" horiz-adv-x="351" 
d="M327 314l-19.0039 -128c-16 -13.333 -30.667 -20 -44 -20c-7.33301 0 -14.333 2.33301 -21 7c-0.666992 8.66699 -5.66699 13 -15 13h-7c-4 -0.666992 -7 -1 -9 -1c-6.66699 0 -11.334 2 -14.001 6c3.33301 13.333 5 26 5 38c0 23.333 -5.66699 45.333 -17 66
c-1.33301 -2 -4.66602 -10 -9.99902 -24c-3.33301 -10 -8.66602 -17.333 -15.999 -22c-2.66699 -0.666992 -5 -1 -7 -1c-5.33301 0 -11.666 6.66699 -18.999 20c2.66699 11.333 4 20.333 4 27c0 17.333 -7.33301 28 -22 32c-6 -6 -8.33301 -10 -7 -12
c-7.33301 8.66699 -18.333 13 -33 13c-10 0 -18.667 -2.33301 -26 -7l-25 230c21.333 70.667 60 113.334 116 128.001l66 -6c26 -4 42.333 -16.333 49 -37c-0.666992 -2.66699 -1 -5.33398 -1 -8.00098c0 -6.66699 7 -17 21 -31c2.66699 0.666992 5.33398 1 8.00098 1
c6 0 16 -7 30 -21c0.666992 -18 3.33398 -49 8.00098 -93c4 -40 6 -71.333 6 -94c0 -24.667 -2 -47.667 -6 -69zM249.996 51c1.33301 -4 1.99902 -8.00195 1.99902 -12.002c0 -9.33301 -6.16699 -17.166 -18.5 -23.499s-24.166 -11.833 -35.499 -16.5
c-10.667 0 -17 -1.66699 -19 -5l-7 5c-4.66699 -8.66699 -13 -13 -25 -13c-10.667 0 -21 2.66699 -31 8l-49 47c-20.667 20.667 -30.334 41 -29.001 61l-9 9c-3.33301 3.33301 -4.66602 7 -3.99902 11l7 4c-4.66699 2 -7 6 -7 12v16c24 12.667 51 19 81 19
c7.33301 0 14.666 -0.333008 21.999 -1l10 -56c4.66699 -22 16.334 -33.333 35.001 -34c4 3.33301 6.5 9 7.5 17s2.83301 13.333 5.5 16c14.667 -3.33301 29.667 -3.66602 45 -0.999023c0.666992 -3.33301 1 -7 1 -11c0 -4.66699 -0.666992 -10.667 -2 -18
s-2 -12.333 -2 -15c0 -10 7.33301 -16.333 22 -19zM223.995 351.998v-0.999023c5.33301 23.333 -1 36.666 -19 39.999l-12 161l5 6l-5 6l5 6c0 10 -3.66699 21 -11 33l-21 34l-20 -70c-7.33301 -27.333 -11.333 -51.333 -12 -72c-1.33301 -3.33301 -2 -6.66602 -2 -9.99902
c0 -4 1.5 -9.33301 4.5 -16s4.5 -11.334 4.5 -14.001c0 -4.66699 -2.33301 -9 -7 -13c5.33301 -41.333 16.333 -77.333 33 -108c4 4 10 6 18 6h9c3.33301 -0.666992 6 -1 8 -1c10.667 0 18 4.33301 22 13z" />
    <glyph glyph-name="colon" unicode=":" horiz-adv-x="157" 
d="M144 409l-0.000976562 -1c-4 2 -8.33301 -0.333008 -13 -7c-7.33301 0 -17.666 1.33301 -30.999 4s-23 4 -29 4c-14.667 0 -27 -5.33301 -37 -16c-10.667 8.66699 -16 23.667 -16 45c0 37.333 0.333008 54.333 1 51l-1 31c12.667 5.33301 33.5 7.66602 62.5 6.99902
s49.833 2 62.5 8c3.33301 -9.33301 5 -20 5 -32c0 -5.33301 -1.33301 -20.666 -4 -45.999c-2 -19.333 -2 -35.333 0 -48zM143.999 7c-12.667 -4.66699 -33.5 -6.83398 -62.5 -6.50098s-49.833 -2.16699 -62.5 -7.5c-3.33301 8.66699 -5 18.667 -5 30c0 8 1 20.333 3 37
s3 29.334 3 38.001c0 7.33301 -0.333008 14 -1 20c2 -1.33301 4.5 -0.333008 7.5 3s5.16699 5 6.5 5c7.33301 0 17.5 -1.33301 30.5 -4s22.5 -4 28.5 -4c14.667 0 27 5.33301 37 16c10.667 -8.66699 16 -23.667 16 -45c0 -37.333 -0.333008 -54.333 -1 -51v-31z" />
    <glyph glyph-name="semicolon" unicode=";" horiz-adv-x="153" 
d="M136 422l-0.000976562 -1c-4 2 -8.33301 -0.333008 -13 -7c-7.33301 0 -17.666 1.33301 -30.999 4s-23 4 -29 4c-14.667 0 -27 -5.33301 -37 -16c-10.667 8.66699 -16 23.667 -16 45c0 37.333 0.333008 54.333 1 51v31c12.667 5.33301 33.5 7.66602 62.5 6.99902
s49.5 2 61.5 8c3.33301 -9.33301 5 -20 5 -32c0 -5.33301 -1.33301 -20.666 -4 -45.999c-2 -19.333 -2 -35.333 0 -48zM175.999 195c-24 -18.667 -37.666 -53.668 -40.999 -105.001c-3.33301 -54 -14.333 -89.667 -33 -107c-5.33301 -6 -10.666 -27 -15.999 -63
c-4.66699 -27.333 -15.334 -41 -32.001 -41c-8.66699 0 -19.334 2.66699 -32.001 8c4.66699 30 14 73.667 28 131c-20 8.66699 -30 25.667 -30 51v21c0.666992 9.33301 1 16.333 1 21c0 14 -2.33301 25 -7 33c8.66699 8.66699 24.667 13.334 48 14.001
c30.667 0.666992 48.667 1.66699 54 3c17.333 4.66699 26 16.667 26 36c0 6 -0.666992 12.333 -2 19l8 7c10.667 -6 16.667 -9.66699 18 -11c4 -3.33301 7.33301 -9 10 -17z" />
    <glyph glyph-name="less" unicode="&#x3c;" horiz-adv-x="366" 
d="M337 477c1.33301 -5.33301 1.99805 -10.333 1.99805 -15c0 -22 -16.333 -38.333 -49 -49c-39.333 -13.333 -63 -26 -71 -38c-9.33301 3.33301 -17.666 5 -24.999 5c-14.667 0 -29 -9 -43 -27c-16 -22 -29.333 -35.333 -40 -40c16 -10 23 -26.333 21 -49
c-7.33301 10 -28 17 -62 21c-29.333 4 -44 15.667 -44 35c0 6 1.33301 13.333 4 22c0.666992 0.666992 34.667 11 102 31c40.667 12 69.334 29.333 86.001 52zM341.998 208l1 -22c0.666992 -8.66699 -2.66602 -14.667 -9.99902 -18c-18 17.333 -46 31.333 -84 42
c-42.667 12.667 -71.667 24 -87 34l-1 30c22.667 -2.66699 53.167 -13.5 91.5 -32.5s68.166 -30.167 89.499 -33.5z" />
    <glyph glyph-name="equal" unicode="=" horiz-adv-x="568" 
d="M531 421l-478.001 6v46c35.333 0 89.833 3.5 163.5 10.5s126.834 10.5 159.501 10.5c35.333 0 65.666 -3 90.999 -9c2 -2 8.66699 -12.667 20 -32c8 -14 17 -21 27 -21c4.66699 0 10.334 1.66699 17.001 5v-16zM549.999 278l-13.998 -64.999
c-8.66699 0.666992 -18 1 -28 1c-12.667 0 -31.5 -0.833008 -56.5 -2.5s-43.5 -2.5 -55.5 -2.5c-44 0 -77.333 10.333 -100 31c-2.66699 -17.333 -12 -28 -28 -32c-10 -2.66699 -27 -3.33398 -51 -2.00098c-24.667 2 -41 2 -49 0c-4 20 -19.667 30 -47 30
c-28.667 0 -45 -10.333 -49 -31c-2.66699 -1.33301 -5.33398 -2 -8.00098 -2s-10.667 5.33301 -24 16c11.333 11.333 17 20 17 26c0 2.66699 -0.333008 5.33398 -1 8.00098l-18 14c32 14 69.333 21 112 21c36 0 68 -5.33301 96 -16c6.66699 11.333 18.667 17 36 17h44
c0.666992 -8.66699 1.66699 -17.834 3 -27.501s6.33301 -16.5 15 -20.5c6 -2 16.667 4 32 18l-18 14c16 10.667 33.333 16 52 16c7.33301 0 29.666 -4 66.999 -12c28 -6 52.333 -5.66699 73 1z" />
    <glyph glyph-name="greater" unicode="&#x3e;" horiz-adv-x="366" 
d="M347 338c-0.666992 -21.333 -9.33301 -38.335 -26 -51.002c-10 -7.33301 -28.5 -15.833 -55.5 -25.5s-45.5 -18.5 -55.5 -26.5h-17c-6 0.666992 -10.333 3.66699 -13 9c-8.66699 -22.667 -31.334 -40 -68.001 -52c-58.667 -20 -88.667 -30.333 -90 -31
c-2 5.33301 1 12 9 20l-10 11c8 10 29.333 18.333 64 25c32.667 6 54.334 18.333 65.001 37c19.333 1.33301 41.666 8.33301 66.999 21l61 31c-84 68.667 -164.667 107 -242 115c0.666992 4.66699 -1.16602 10.334 -5.49902 17.001s-6.5 11.667 -6.5 15
c0 2.66699 0.666992 5.33398 2 8.00098c55.333 -17.333 162.333 -58.333 321 -123z" />
    <glyph glyph-name="question" unicode="?" horiz-adv-x="309" 
d="M133 650c-26.667 -34 -61 -55.333 -103 -64c-2 15.333 5 32.333 21 51l39 40zM281 438l1 -0.000976562l-48 -74c-15.333 -26.667 -25.333 -53.334 -30 -80.001v-40c0 -16 2.33301 -28.333 7 -37c-4.66699 -2 -7 -8.33301 -7 -19c-4 -1.33301 -7.5 -0.333008 -10.5 3
s-5.83301 6.66602 -8.5 9.99902c-6 -6 -8.33301 -10.667 -7 -14c-2 -1.33301 -4.33301 -2 -7 -2s-6.33398 1.33301 -11.001 4s-8 4 -10 4c-3.33301 0 -6.33301 -2.33301 -9 -7c-9.33301 4.66699 -14 12 -14 22c0 4.66699 1.66699 8.33398 5 11.001
c0 27.333 0.333008 37.333 1 30c-1.33301 14 -7.66602 23.333 -18.999 28c-2.66699 32.667 7.33301 74.334 30 125.001c24 53.333 36 92.333 36 117c0 16 -3 31.667 -9 47v27c5.33301 -2 10.333 -3 15 -3c7.33301 0 17.5 3.83301 30.5 11.5s23.833 10.834 32.5 9.50098
c0.666992 -24.667 4.66699 -54 12 -88zM224 108.999c-4.66699 -14 -7 -32.001 -7 -54.001c0.666992 -31.333 0.666992 -49.666 0 -54.999c-4.66699 -4.66699 -11.667 -7 -21 -7c-21.333 0.666992 -29.333 1.33398 -24 2.00098l-5 5c-1.33301 -2.66699 -8 -4.66699 -20 -6
c-10 -0.666992 -25 -0.333984 -45 0.999023l-6 113c8.66699 4 21.667 6.33301 39 7h41c14 0.666992 25.667 2.66699 35 6z" />
    <glyph glyph-name="at" unicode="@" horiz-adv-x="512" 
d="M465 394c-4.66699 -63.333 -27.334 -119.669 -68.001 -169.002c-9.33301 -9.33301 -24.666 -14 -45.999 -14c-36 0.666992 -52.667 1 -50 1c-6 14 -14 21 -24 21c-6 0 -14 -3.33301 -24 -10c-12.667 -7.33301 -20.667 -11.666 -24 -12.999l-84 34
c8.66699 6.66699 13 15.667 13 27c0 8 -3.83301 22.167 -11.5 42.5s-11.5 35.5 -11.5 45.5c0 22 14 39.667 42 53c33.333 26 63.666 39 90.999 39c14.667 0 28.334 -3.66699 41.001 -11c4.66699 -8.66699 9.33398 -13 14.001 -13c3.33301 0 8.5 2.83301 15.5 8.5
s13.167 8.5 18.5 8.5c3.33301 0 7 -1 11 -3c1.33301 -6 2 -12.333 2 -19c0 -15.333 -5.83301 -37.833 -17.5 -67.5s-17.5 -50.167 -17.5 -61.5c0 -20 12.667 -34.667 38 -44c14.667 12.667 30 39.334 46 80.001c13.333 36 28.666 57.667 45.999 65zM452 429.997
c-47.333 63.333 -120.331 94.9971 -218.998 94.9971c-20 0 -39.333 -1.66699 -58 -5c-64.667 -59.333 -95.334 -115.666 -92.001 -168.999c-2.66699 -35.333 6.66602 -71 27.999 -107c10.667 -19.333 31.667 -47.666 63 -84.999c4.66699 -2 7.33398 -5.33301 8.00098 -10
c20 0 50 0.333008 90 1c34 1.33301 60 6.33301 78 15c18 24.667 41.667 37 71 37l12 -12c-35.333 -42 -89 -63 -161 -63c-28 0 -57.667 3.33301 -89 10c0 6 -0.333008 10 -1 12l-8 10c-2 0.666992 -11.333 1 -28 1c-12 0 -20 4 -24 12l-49 66
c-16.667 26 -25.334 51 -26.001 75c-2.66699 92.667 32 165.667 104 219c24.667 18.667 59.667 28 105 28c29.333 0 62.333 -4 99 -12l65 -48c24 -23.333 34.667 -46.666 32 -69.999zM261.002 413.994c-48.667 -25.333 -73 -58.667 -73 -100c0 -6.66699 1 -13.667 3 -21
c-0.666992 -12 5.33301 -20.333 18 -25l32 -10c16 10.667 31 25.667 45 45c16 22.667 24 43 24 61c0 25.333 -16.333 42 -49 50z" />
    <glyph glyph-name="A" unicode="A" horiz-adv-x="408" 
d="M381 -79c-9.33301 4 -19.334 5.99902 -30.001 5.99902c-9.33301 0 -22 -2 -38 -6c-18 -4 -30.333 -6.33301 -37 -7c-7.33301 14 -12.666 33.333 -15.999 58c-6 36 -9.66699 56.333 -11 61c2 4 3 7.33301 3 10c0 7.33301 -5.83301 13.833 -17.5 19.5
s-17.5 10.167 -17.5 13.5c0 4 6.66699 10 20 18c-3.33301 4 -5.83301 12.167 -7.5 24.5s-4.83398 20.5 -9.50098 24.5c-8 -7.33301 -21.167 -12.166 -39.5 -14.499s-30.5 -5.5 -36.5 -9.5c1.33301 -52 -6.66699 -87 -24 -105c-9.33301 2 -16.333 -1.66699 -21 -11
c-6.66699 -11.333 -12.334 -18 -17.001 -20l6 -7c-5.33301 -4.66699 -14 -6.66699 -26 -6c-18.667 0.666992 -28.667 1 -30 1l-6 18l56 541c0 34 1.33301 57 4 69c-1.33301 30 5.33398 48.667 20.001 56c9.33301 -6 21 -9 35 -9c11.333 0 29 2.66699 53 8s40.667 8 50 8
c32.667 0 47.334 -23.333 44.001 -70c-2.66699 -37.333 4 -86.333 20 -147c16.667 -65.333 25 -114.333 25 -147c0 -10 -0.333008 -20 -1 -30c-14 -8 -32 -13 -54 -15l-59 -4l-18 151c-7.33301 60 -16 109.333 -26 148l-26 -286c-2 -24.667 9.33301 -37 34 -37
c8 0 15.667 2 23 6c6 2 14.333 -2.33301 25 -13c0 -20.667 4.33301 -33 13 -37c10.667 7.33301 24.667 14.333 42 21l45 17c8.66699 -11.333 14.334 -28.333 17.001 -51c3.33301 -32 5.66602 -50.667 6.99902 -56c1.33301 -12.667 7 -40 17 -82
c7.33301 -33.333 11 -60.333 11 -81c0 -10 -0.666992 -19.333 -2 -28zM142.999 -48.001c0.666992 -4 0.999023 -7.66602 0.999023 -10.999c0 -24.667 -14.667 -37.667 -44 -39c-9.33301 4 -15.166 6.83301 -17.499 8.5s-4.5 5.16699 -6.5 10.5
c2 1.33301 9.66699 11.666 23 30.999c12 16.667 21.333 25 28 25s12 -8.33301 16 -25z" />
    <glyph glyph-name="B" unicode="B" horiz-adv-x="425" 
d="M370 64c-46 -48 -88.001 -72.998 -126.001 -74.998c-3.33301 -1.33301 -7 -2 -11 -2c-4.66699 0 -11 1.5 -19 4.5s-13.667 4.5 -17 4.5c-5.33301 0 -10.333 -2 -15 -6l-105 -1c0 35.333 -0.333008 71 -1 107c-2.66699 43.333 -17 73.666 -43 90.999
c-3.33301 44.667 -5.33301 93.334 -6 146.001c-0.666992 34.667 -0.666992 82.334 0 143.001v148c39.333 5.33301 113.666 5 222.999 -1c27.333 -6 51 -25 71 -57c18 -28.667 27 -58.334 27 -89.001s-8 -60.834 -24 -90.501s-36 -54.167 -60 -73.5
c-3.33301 -1.33301 -7.66602 0.666992 -12.999 6c-6 -6 -8.33301 -10 -7 -12c4.66699 -4.66699 16 -8.33398 34 -11.001c14 -2.66699 23.333 -9.66699 28 -21c6.66699 2 14.334 7.83301 23.001 17.5s18 14.167 28 13.5c27.333 -30 41 -69 41 -117
c0 -41.333 -9.33301 -83 -28 -125zM243.999 467.002h0.998047l-7 -6c-0.666992 1.33301 -4.66699 5.33301 -12 12c-4.66699 4.66699 -6.66699 9 -6 13l-22 40c-10.667 14 -24 19.667 -40 17c0.666992 -39.333 0.333984 -102 -0.999023 -188l12 13
c2.66699 -0.666992 5.33398 -1 8.00098 -1c6.66699 0 13.5 5 20.5 15s13.833 15 20.5 15c4 0 8.66699 -1.33301 14 -4c1.33301 4.66699 5.83301 13 13.5 25s11.5 21 11.5 27c0 8 -4.33301 15.333 -13 22zM269.997 219.002h-1c0 8 -5.5 18 -16.5 30s-15.5 22.667 -13.5 32
c-6.66699 -11.333 -16.667 -17 -30 -17c-7.33301 0 -14.333 1.66699 -21 5l1 -12c-2 -4 -8.33301 -6.66699 -19 -8c-4.66699 6.66699 -7 11 -7 13c-10.667 -16 -12.667 -26 -6 -30c0.666992 -10 0.333984 -36.333 -0.999023 -79c-0.666992 -32 1.33301 -58 6 -78
c8 14 19 21 33 21c3.33301 0 9.16602 -0.333008 17.499 -1s14.833 -1 19.5 -1c16.667 9.33301 26.667 28 30 56c5.33301 45.333 8 68.333 8 69z" />
    <glyph glyph-name="C" unicode="C" horiz-adv-x="422" 
d="M396 253l0.000976562 1.00879c0 -0.666992 -4.33301 -31.334 -13 -92.001c-4.66699 -37.333 -13.334 -66.333 -26.001 -87l-7 8c-15.333 -34.667 -35 -55 -59 -61c-12 -14 -28.667 -21 -50 -21c-12.667 0 -41.667 6.66699 -87 20c-21.333 18.667 -33 29 -35 31
c-13.333 14 -19.333 27.667 -18 41c-12.667 18 -21.667 46.333 -27 85c-6.66699 42.667 -13.667 71.667 -21 87c-13.333 -10.667 -23.333 -8.33398 -30 6.99902l7 6c-4 4 -6 8.33301 -6 13c0 3.33301 1.33301 8.16602 4 14.499s4 11.166 4 14.499
c0 5.33301 -2.33301 10 -7 14c6.66699 32.667 13.667 82 21 148c9.33301 5.33301 14.166 16.666 14.499 33.999s2.83301 28.666 7.5 33.999c24 52 60.667 85.667 110 101c2.66699 -0.666992 15.667 -1.33398 39 -2.00098c16 -0.666992 28 -3.33398 36 -8.00098
c14.667 2 29 -3.33301 43 -16l36 -38c22 -33.333 33 -70 33 -110c0 -13.333 -1.33301 -27.333 -4 -42c-17.333 2 -30.333 -11.333 -39 -40l-68 -3c-6.66699 13.333 -10 30.666 -10 51.999c0 7.33301 0.5 18 1.5 32s1.5 24.667 1.5 32c0 22 -3.33301 39.667 -10 53l-21 -13
c-8 4.66699 -12 11 -12 19c0 2.66699 0.5 6.5 1.5 11.5s1.5 8.5 1.5 10.5c0 8.66699 -6 14.334 -18 17.001c-12.667 -94 -19.667 -191 -21 -291c2 -3.33301 8.33301 -6 19 -8c8.66699 -2 13 -5.66699 13 -11c0 -2 -0.666992 -4.66699 -2 -8l-7 -6
c3.33301 -7.33301 5 -17.333 5 -30c0 -6.66699 -0.666992 -16.834 -2 -30.501s-2 -23.834 -2 -30.501c0 -20 3.33301 -35.333 10 -46c-1.33301 -14.667 3 -25 13 -31c6.66699 2.66699 12.667 4 18 4c20.667 0 34.334 -15 41.001 -45c0 -0.666992 -0.333008 -5.66699 -1 -15
c0 -5.33301 2 -9 6 -11c9.33301 6 14.333 17.667 15 35c0.666992 20 3.33398 32.667 8.00098 38c-0.666992 9.33301 -4.5 23 -11.5 41s-10.5 32 -10.5 42c0 10.667 3 20.667 9 30c-4.66699 2 -6.66699 6 -6 12c0.666992 9.33301 1 14.333 1 15
c37.333 8.66699 74.666 6.33398 111.999 -6.99902z" />
    <glyph glyph-name="D" unicode="D" horiz-adv-x="398" 
d="M361 476c8.66699 -44 13 -90.3311 13 -138.998c0 -92.667 -14.667 -183.334 -44 -272.001l-36 -31c-13.333 14.667 -28 43.667 -44 87c-6 -6 -10.333 -8 -13 -6c-4.66699 2.66699 -7 5.33398 -7 8.00098c0 2 2.5 5.5 7.5 10.5s7.16699 9.16699 6.5 12.5
c4 31.333 6 64.666 6 99.999c0 59.333 -6.66699 136 -20 230c1.33301 0.666992 6 0.666992 14 0c6 0 9.66699 2 11 6c-21.333 16 -32 35.667 -32 59c0 6 0.666992 11.667 2 17l26 23c-2.66699 4.66699 -5.66699 7 -9 7c-2.66699 0 -5.5 -1.5 -8.5 -4.5l-7.5 -7.5
c-0.666992 1.33301 -5 9 -13 23c-6 9.33301 -9 18.333 -9 27c0 4 0.666992 8 2 12l-6 6l-12 -24c-3.33301 -0.666992 -7.66602 1.16602 -12.999 5.49902s-9 6.5 -11 6.5c-2.66699 0 -5.33398 -2.33301 -8.00098 -7c4 -2 6 -4.33301 6 -7c0 -1.33301 -1 -3.83301 -3 -7.5
s-3 -6.5 -3 -8.5c0.666992 -5.33301 3 -13.5 7 -24.5s6 -19.167 6 -24.5c0 -7.33301 -2.33301 -14 -7 -20c4.66699 -22.667 7 -40.667 7 -54c0 -20 -4.33301 -35 -13 -45c-0.666992 -3.33301 1.33301 -7.66602 6 -12.999s7 -9 7 -11c0 -2.66699 -2 -5.33398 -6 -8.00098
c4 -11.333 6 -27.333 6 -48c-0.666992 -29.333 -0.666992 -46.333 0 -51c-1.33301 -0.666992 -6.33301 -0.666992 -15 0c-6 0 -9.66699 -2 -11 -6c9.33301 0 16.666 -4.33301 21.999 -13l10 -25v-100c3.33301 -16 -2.66699 -30.667 -18 -44c-20 8 -45 25 -75 51
c-2 0 -5.16699 -1.16699 -9.5 -3.5s-7.5 -3.5 -9.5 -3.5c-6.66699 0 -11 10 -13 30c1.33301 20.667 -0.666992 52 -6 94l12 13c-8 10.667 -12.333 26.334 -13 47.001v51c-0.666992 12.667 -3 23.334 -7 32.001c11.333 0 18 2.33301 20 7
c-15.333 68.667 -21.666 131 -18.999 187c0.666992 6.66699 -1.16602 17 -5.49902 31s-6.5 24 -6.5 30c0 12 6 20.333 18 25c9.33301 -1.33301 19.333 -2 30 -2c13.333 0 34.166 1.5 62.499 4.5s49.5 4.5 63.5 4.5c20.667 0 39.334 -2.33301 56.001 -7l62 -49
c0.666992 -2.66699 3.66699 -8.33398 9 -17.001c3.33301 -6.66699 5 -12.667 5 -18c0 -2.66699 -0.333008 -5.33398 -1 -8.00098l-25 -13c19.333 0 32 -6.66699 38 -20c4 -8 6.16699 -22.333 6.5 -43s2.16602 -35 5.49902 -43l-6 -6zM281 4.00195l0.996094 0.000976562
c-25.333 -16.667 -47.666 -25 -66.999 -25c-9.33301 0 -18.333 2 -27 6c-8 -7.33301 -17.667 -11 -29 -11h-11c-4.66699 0.666992 -8 1 -10 1c-9.33301 0 -17.666 -2.33301 -24.999 -7c-5.33301 4 -13.333 6 -24 6c-15.333 -0.666992 -24.333 -0.666992 -27 0
c-11.333 15.333 -17.333 35.666 -18 60.999c-1.33301 33.333 -3.66602 56 -6.99902 68l7 6c-4.66699 2.66699 -7 8 -7 16c0 6.66699 2 11.667 6 15c14.667 0 34.167 -7.33301 58.5 -22s44.5 -21.667 60.5 -21c9.33301 -12.667 19.333 -19 30 -19c5.33301 0 10 2 14 6
c3.33301 6.66699 7 10 11 10c-2.66699 0 4 -3.33301 20 -10c20.667 -26 35.334 -52.667 44.001 -80zM305.996 595.003l-6 6l-4 -4zM291.996 598.003l-17 3z" />
    <glyph glyph-name="E" unicode="E" horiz-adv-x="348" 
d="M311 539c-6 -0.666992 -12.6689 -0.999023 -20.002 -0.999023c-15.333 0 -35.666 2 -60.999 6c-31.333 4 -50.333 6.33301 -57 7c-9.33301 -14 -14 -33.667 -14 -59c0 -54.667 0.333008 -78.334 1 -71.001c9.33301 -5.33301 14 -15.333 14 -30
c-0.666992 -20 -0.666992 -30.333 0 -31c-4.66699 -2 -7 -8.66699 -7 -20c-7.33301 2.66699 -15 8 -23 16c-10.667 10 -15.667 19.333 -15 28l-6 -6l-6 6c-5.33301 -0.666992 -14.5 2 -27.5 8s-22.167 11.667 -27.5 17c0 10.667 1.66699 16.667 5 18l-13 14l-6 -9
c-8.66699 69.333 -9 140.666 -1 213.999c25.333 -4 53.333 -6.33301 84 -7c20.667 -0.666992 49.667 -0.666992 87 0c42.667 0.666992 73.334 1 92.001 1c8 -7.33301 12 -17 12 -29c0 -7.33301 -1.83301 -19.166 -5.5 -35.499s-5.5 -28.5 -5.5 -36.5zM316.998 60.001
l-0.000976562 0.999023c-4 -8.66699 -6.33301 -18.667 -7 -30c-0.666992 -7.33301 -0.666992 -17.666 0 -30.999c0.666992 -15.333 1 -26 1 -32h-64c-22.667 0 -43 -2.33301 -61 -7l-19 20c-5.33301 -5.33301 -7.33301 -9.66602 -6 -12.999
c-3.33301 0.666992 -18.666 0.666992 -45.999 0c-21.333 0 -37.333 2 -48 6c-10.667 -11.333 -23.334 -11.333 -38.001 0c-5.33301 4 -6 10.833 -2 20.5s2.66699 16.834 -4 21.501c0.666992 21.333 3 54.333 7 99c4 40 6 71.333 6 94c0 30.667 -2.66699 60 -8 88
c7.33301 7.33301 15.666 11 24.999 11c10.667 0 23.334 -5 38.001 -15c20.667 -14 31.334 -21 32.001 -21l6 -7c0.666992 2 4 12.667 10 32c3.33301 12.667 8.33301 21 15 25l6 -6c2.66699 1.33301 11.334 7.66602 26.001 18.999c11.333 8 20.333 12 27 12
c7.33301 0 14.333 -4 21 -12c11.333 -6 18.833 -15.167 22.5 -27.5l10.5 -36.5c-30 -1.33301 -54.667 -1 -74 1c-4.66699 -7.33301 -11.334 -8.5 -20.001 -3.5s-15 4.16699 -19 -2.5v-65c-0.666992 -28 -0.666992 -50 0 -66c0.666992 -24.667 2.66699 -47.334 6 -68.001h76
c31.333 0 58.333 -2.33301 81 -7z" />
    <glyph glyph-name="F" unicode="F" horiz-adv-x="339" 
d="M305 580h0.999023c-8.66699 -14 -19 -16 -31 -6c-2.66699 0.666992 -14.667 0.666992 -36 0c-18 0 -31 2 -39 6c-2 0 -6 -2.16699 -12 -6.5s-10.333 -6.5 -13 -6.5c-4 0 -6 4.33301 -6 13v17c0 6.66699 -2.33301 11.334 -7 14.001l-13 -11c-4 -3.33301 -6 -7 -6 -11
c0 -3.33301 2 -8.16602 6 -14.499s6.33301 -10.833 7 -13.5v-90c-0.666992 -36.667 3.33301 -66.334 12 -89.001c2.66699 3.33301 8.83398 4.83301 18.501 4.5s16.167 1.83398 19.5 6.50098c6 -7.33301 16.5 -8.5 31.5 -3.5s25.5 2.16699 31.5 -8.5l-6 -88
c-6 1.33301 -14.667 5.66602 -26 12.999c-4 -12.667 -11 -20.334 -21 -23.001c-4 -1.33301 -15.333 -2 -34 -2c0.666992 4 -2 8.33301 -8 13c-18.667 -9.33301 -26.667 -34.333 -24 -75c0.666992 4 1 -3 1 -21c0 -11.333 -2.33301 -19.333 -7 -24
c-11.333 -1.33301 -25.5 2.83398 -42.5 12.501s-29.167 14.5 -36.5 14.5c-3.33301 0 -6.33301 -0.333008 -9 -1l-19 -6l-11 405v63c25.333 8.66699 56.333 13 93 13c28.667 0 66 -3 112 -9c3.33301 7.33301 8.33301 11 15 11c3.33301 0 8.33301 -0.833008 15 -2.5
s11.667 -2.5 15 -2.5c4 0 7.66699 0.666992 11 2l5 6c13.333 -6 20 -15.333 20 -28c0 -5.33301 -1.66699 -14.333 -5 -27s-5 -22.334 -5 -29.001c0 -6 1 -11.333 3 -16zM156.999 -42c-7.33301 -4 -18.332 -6 -32.999 -6c-19.333 0 -31 -0.333008 -35 -1
c-2 2.66699 -4.66699 14.667 -8 36c-2 14 -8.66699 21 -20 21c-2.66699 0 -6 -0.333008 -10 -1h-18v149c10 5.33301 22.333 8 37 8c14 0 26.333 -2.66699 37 -8c-0.666992 -7.33301 7.66602 -11 24.999 -11h19c8.66699 -58 10.667 -120.333 6 -187z" />
    <glyph glyph-name="G" unicode="G" horiz-adv-x="389" 
d="M366 259c-12.667 -132 -21.9951 -238.004 -27.9951 -318.004l-49 -3c0.666992 2.66699 1 5.66699 1 9c0 6 -2.33301 13.833 -7 23.5s-7.33398 15.834 -8.00098 18.501c-12.667 -2 -24.667 -11 -36 -27s-21.666 -24 -30.999 -24c-5.33301 0 -11.333 1.33301 -18 4
c-8.66699 -6 -20 -8.66699 -34 -8c-12.667 2 -25 3.66699 -37 5c-0.666992 16.667 -17.334 31 -50.001 43c0 6.66699 -3.5 16.5 -10.5 29.5s-10.5 22.167 -10.5 27.5c0 6 2.33301 11 7 15c-0.666992 2 -6.33398 14.333 -17.001 37c-7.33301 16.667 -11 31 -11 43
c0 9.33301 2 18 6 26c-6.66699 56.667 -10 105.334 -10 146.001c0 62.667 8 120.334 24 173.001c-1.33301 8 -2 16 -2 24c0 42 14 71.333 42 88v13c27.333 36 63.666 62.333 108.999 79c27.333 -6 54.666 -11.667 81.999 -17c30.667 -10 52 -27.667 64 -53
c9.33301 -5.33301 14 -16.333 14 -33c0 -18.667 2.33301 -30.667 7 -36l-5 -6c6 -39.333 9 -63.333 9 -72c0 -25.333 -6.33301 -43.333 -19 -54c-4.66699 0 -17 4 -37 12c-4.66699 -4.66699 -9.66699 -7 -15 -7c-2.66699 0 -7.5 1.33301 -14.5 4s-12.833 4 -17.5 4
c-3.33301 0 -6.66602 -0.666992 -9.99902 -2c-1.33301 52.667 -0.333008 92 3 118c-5.33301 3.33301 -10.833 11 -16.5 23s-12.834 18.667 -21.501 20c-5.33301 -6.66699 -7.66602 -11 -6.99902 -13l-18 6c-16 -18 -26.333 -49 -31 -93
c-4.66699 -50.667 -11 -84.334 -19 -101.001c7.33301 -7.33301 11 -17.666 11 -30.999c0 -4.66699 -0.666992 -12.334 -2 -23.001s-2 -18.667 -2 -24c0 -6 0.666992 -11.333 2 -16l-12 -12c5.33301 -22.667 8.66602 -51.334 9.99902 -86.001
c0 -29.333 0.333008 -58.666 1 -87.999c-0.666992 0 -6.33398 -0.333008 -17.001 -1c-6.66699 0 -11.334 -2.33301 -14.001 -7c4 0.666992 7.66699 1 11 1c14.667 0 26.334 -10.167 35.001 -30.5s16 -30.5 22 -30.5c6.66699 0 15.667 6.33301 27 19
c19.333 21.333 29 50.333 29 87c0 18 -2.33301 37.333 -7 58c-4.66699 -2.66699 -7 -9.33398 -7 -20.001c-10.667 0 -17.334 -2.33301 -20.001 -7c-4.66699 1.33301 -6.66699 5 -6 11c0.666992 8.66699 1 13.334 1 14.001c8 2.66699 12 6.33398 12 11.001
c0 2 -1.5 5.66699 -4.5 11s-4.5 9.66602 -4.5 12.999c0 2.66699 0.666992 5.33398 2 8.00098l4 39c14.667 -4 46.334 -5.33301 95.001 -4c-1.33301 -3.33301 0.666992 -7.66602 6 -12.999c4.66699 4.66699 9.66699 7 15 7c4 0 10 -1.66699 18 -5s13.667 -5 17 -5z" />
    <glyph glyph-name="H" unicode="H" horiz-adv-x="385" 
d="M361 368l0.999023 0.00195312c-9.33301 -13.333 -14 -29.333 -14 -48c0 -38.667 0.333008 -56 1 -52v-286c-11.333 -6.66699 -28.666 -7.66699 -51.999 -3s-39.333 3.66699 -48 -3c-4.66699 -1.33301 -8.33398 -2 -11.001 -2c-6.66699 0 -11.167 3.66699 -13.5 11
l-6.5 20c4 25.333 6 59.333 6 102c0 65.333 1.33301 100.166 4 104.499s4 10.833 4 19.5c0 9.33301 -5.33301 21.833 -16 37.5s-16.334 27.834 -17.001 36.501l-6 -5c4.66699 -2 6.33398 -8.66699 5.00098 -20c-8 3.33301 -13.333 11.666 -16 24.999
c-2.66699 18 -5 28.667 -7 32c-13.333 -45.333 -20.333 -105.333 -21 -180c0 -98 -1.33301 -158.333 -4 -181c-6 1.33301 -12.333 2 -19 2c-8 0 -19.667 -1.5 -35 -4.5s-26.666 -4.5 -33.999 -4.5c-10.667 0 -20.667 2.33301 -30 7l-4 20c-2 7.33301 -3 13.333 -3 18
c0 8 2 15.667 6 23c-4.66699 5.33301 -6 13 -4 23c3.33301 14.667 5 22.667 5 24c0 6 -2 11 -6 15c4.66699 10.667 6.66699 25.667 6 45c-0.666992 27.333 -1 41.333 -1 42l-5 6c4 10 6 23.333 6 40v18c-0.666992 7.33301 -1 13 -1 17c0 22.667 4.33301 39.667 13 51l-6 6
c4 6 6 14 6 24c0 7.33301 -1.33301 18.833 -4 34.5s-4 27.167 -4 34.5c0 4.66699 0.333008 9 1 13c-4 23.333 -6 50.666 -6 81.999c0.666992 48 0.666992 76.667 0 86c4 19.333 14.333 36 31 50h94c4 -21.333 6 -44 6 -68c0 -16 -1.16699 -39.667 -3.5 -71
s-3.5 -55.666 -3.5 -72.999c0 -16.667 0.666992 -33 2 -49c14.667 -5.33301 28 -8 40 -8c15.333 0 26.333 4.66699 33 14l1 191c-5.33301 33.333 -1.66602 56.666 11.001 69.999c9.33301 0.666992 20.333 0.666992 33 0c16.667 -1.33301 26.667 -2 30 -2
c13.333 0 25.666 2.66699 36.999 8l19 -18c-4.66699 -44 -7 -89.667 -7 -137c0 -48 2.33301 -93.667 7 -137z" />
    <glyph glyph-name="I" unicode="I" horiz-adv-x="217" 
d="M188 638l-19 -498.001l-6 -6c7.33301 -5.33301 8.5 -13.666 3.5 -24.999s-4.16699 -19.666 2.5 -24.999c-2 -4 -4.33301 -25.333 -7 -64c-2 -26.667 -12.333 -40 -31 -40c-6.66699 0 -14.667 1.66699 -24 5c-4.66699 6 -10.667 9 -18 9c-2.66699 0 -6.5 -0.5 -11.5 -1.5
s-8.83301 -1.5 -11.5 -1.5c-8 0 -13 5.66699 -15 17c4 12.667 6 26.667 6 42c0 10.667 -1.33301 26.5 -4 47.5s-4 36.5 -4 46.5c0 9.33301 1 18 3 26c0 18 -0.333008 51.667 -1 101c-0.666992 45.333 -0.666992 80.666 0 105.999c0.666992 39.333 3 74 7 104l5 6
c-4 4 -6 8.33301 -6 13c0 2.66699 1.16699 7 3.5 13s3.5 10.333 3.5 13c0 4.66699 -2 8.66699 -6 12c4 5.33301 6 11.333 6 18c0 4 -1.16699 10.5 -3.5 19.5s-3.5 15.5 -3.5 19.5c0 6.66699 2 12.667 6 18l-5 6c4 2 5.66699 5.66699 5 11c-0.666992 8 -0.666992 12.667 0 14
c5.33301 1.33301 11 2 17 2c7.33301 0 17.833 -1.33301 31.5 -4s23.167 -4 28.5 -4c12 0 21.667 4 29 12z" />
    <glyph glyph-name="J" unicode="J" horiz-adv-x="263" 
d="M244 705c-4 -25.333 -6.00195 -72.335 -6.00195 -141.002c0.666992 -58.667 -3.66602 -105 -12.999 -139l-7 -7c11.333 -1.33301 17 -7 17 -17c0 -4 -1.33301 -10.667 -4 -20c4.66699 -15.333 7 -33 7 -53s-2.33301 -38 -7 -54c-2.66699 2 -6.66699 0.333008 -12 -5l-6 5
c-9.33301 -5.33301 -21.333 -18.333 -36 -39c-12 -18 -23.333 -27 -34 -27c-7.33301 0 -15.666 3.33301 -24.999 10c-4 20.667 -6 48.334 -6 83.001c0.666992 49.333 0.666992 78 0 86c3.33301 1.33301 13.333 6.33301 30 15c12 7.33301 22.333 11 31 11
c7.33301 0 14.333 -2.33301 21 -7c1.33301 -3.33301 3.66602 -5 6.99902 -5c0.666992 0 6.33398 3.66699 17.001 11c-6 6 -15.667 12.333 -29 19c-4 0.666992 -8 1 -12 1c-16.667 0 -33.667 -6.66699 -51 -20c-9.33301 9.33301 -14 34.333 -14 75l7 6
c-4.66699 4.66699 -7 12 -7 22c0 8.66699 2 15.667 6 21c-4 21.333 -6 51 -6 89c0.666992 50.667 0.666992 79.334 0 86.001c7.33301 3.33301 31 5.33301 71 6c18 0.666992 32 3 42 7zM236.998 150.998c-0.666992 -1.33301 -0.667969 -9.99902 -0.000976562 -25.999
c0 -14 -2 -24 -6 -30c0.666992 5.33301 1 -3.33398 1 -26.001c0 -14 -2.33301 -24 -7 -30c-2.66699 -0.666992 -15.667 -3.66699 -39 -9c-16 -4 -28 -9.33301 -36 -16c3.33301 -7.33301 5 -13.333 5 -18c0 -10.667 -9 -16.667 -27 -18c-22.667 -2 -36 -4.33301 -40 -7
c-6 -1.33301 -11.667 -2 -17 -2c-21.333 0 -33 13.333 -35 40c-2 38 -5.33301 60.333 -10 67c6.66699 5.33301 21.334 8.66602 44.001 9.99902c20 2 34 9 42 21v82c4 -2 8.33301 0 13 6c5.33301 -2 10.333 -3 15 -3c10.667 0 24 8 40 24s28.667 25.333 38 28
c17.333 -2.66699 26 -10.667 26 -24c0 -5.33301 -1.66699 -14.166 -5 -26.499s-5 -21.5 -5 -27.5c0 -5.33301 1 -10.333 3 -15z" />
    <glyph glyph-name="K" unicode="K" horiz-adv-x="384" 
d="M358 -5l1.00879 -1.00098c-10.667 0 -17.334 2 -20.001 6l-6 -5l-6 5h-26c-14 0 -24 -1.66699 -30 -5c-20.667 15.333 -32.667 44 -36 86c-4.66699 54.667 -9.33398 88 -14.001 100c-16.667 40 -23 85.333 -19 136l-12 19c0 -10.667 -4.16699 -19.167 -12.5 -25.5
l-25.5 -18.5c-2 -0.666992 -4 -1 -6 -1c-4.66699 0 -10.334 2.16699 -17.001 6.5s-11.334 6.83301 -14.001 7.5c-4 -7.33301 -9.33301 -8.5 -16 -3.5s-11.334 4.16699 -14.001 -2.5c3.33301 -12 18.666 -18.667 45.999 -20s41 -7 41 -17c0 -7.33301 -4.66699 -18 -14 -32
c-14 -20 -19 -48.333 -15 -85c4 -42 3 -71.667 -3 -89c-1.33301 -3.33301 -2 -7 -2 -11c0 -4.66699 1.33301 -10.834 4 -18.501s4 -13.5 4 -17.5c0 -5.33301 -2 -10.333 -6 -15c-11.333 6.66699 -29.166 7.5 -53.499 2.5s-41.333 -2.33301 -51 8s-14.5 23.5 -14.5 39.5
c0 8 1.33301 20.333 4 37s4 29.334 4 38.001c0 11.333 -2 21.666 -6 30.999c4.66699 22 6.66699 51.333 6 88c-0.666992 58 -1 88.667 -1 92c-4.66699 -0.666992 0 -1 14 -1c5.33301 0 9 2.33301 11 7c-12.667 12.667 -19 28.667 -19 48c0 8 1.5 20.667 4.5 38
s4.5 30.333 4.5 39c0 9.33301 -1.66699 22.833 -5 40.5s-5 31.167 -5 40.5c0 15.333 2.16699 37.833 6.5 67.5s6.83301 52.834 7.5 69.501l119 -7c0.666992 -21.333 -2.33301 -50.666 -9 -87.999c-7.33301 -40 -11 -68.667 -11 -86c0 -16 2 -30.667 6 -44v-13
c-0.666992 -6 1.33301 -9.66699 6 -11c-2.66699 20.667 5 44.667 23 72c19.333 30 29 53.333 29 70c0 6.66699 -0.666992 13 -2 19c9.33301 8 17.666 23 24.999 45s15.666 36.333 24.999 43l100 -13v-19l-6 1l-28 -68c-12.667 -26 -26.334 -47.333 -41.001 -64
c-4 -17.333 -6 -35.333 -6 -54c0 -32 9 -78.333 27 -139c18 -62.667 27.667 -109.667 29 -141c1.33301 -10 6.66602 -36.667 15.999 -80c7.33301 -32 11 -58.333 11 -79c0 -10 -0.666992 -19.333 -2 -28z" />
    <glyph glyph-name="L" unicode="L" horiz-adv-x="325" 
d="M300 -18c-8.66699 -1.33301 -18.334 -1.99805 -29.001 -1.99805c-12 0 -30.833 1.33301 -56.5 4s-44.834 4 -57.501 4c-25.333 0 -46 -4.33301 -62 -13c-2.66699 12.667 -11.667 28.334 -27 47.001c-14.667 17.333 -22 33 -22 47c0 7.33301 1.66699 15.666 5 24.999
c-2.66699 4.66699 -4 10.667 -4 18s1.83301 19.166 5.5 35.499s5.5 27.833 5.5 34.5c0 19.333 -10.667 29 -32 29v212c17.333 12.667 34 19 50 19c-9.33301 78 -9.66602 156.667 -0.999023 236c68.667 0 115 -4 139 -12l-19 -180c-7.33301 -4.66699 -18.333 -7 -33 -7h-29
c-1.33301 -7.33301 -6.66602 -12.333 -15.999 -15c-12 -3.33301 -19.333 -6.33301 -22 -9c4.66699 -3.33301 11 -5.33301 19 -6c4.66699 -0.666992 12.167 -0.833984 22.5 -0.500977s17.5 0.5 21.5 0.5c0.666992 -16 1 -32.333 1 -49c0 -34.667 -1.66699 -77.667 -5 -129
c-5.33301 -73.333 -8.33301 -115.666 -9 -126.999c4.66699 -3.33301 7 -6.66602 7 -9.99902c0 -2 -1.33301 -5.33301 -4 -10s-4 -8.33398 -4 -11.001c0 -2 0.666992 -4.33301 2 -7c-22 0.666992 -39 -11.666 -51 -36.999c2 -1.33301 4.33301 -2 7 -2
c3.33301 0 8.83301 2.16699 16.5 6.5s12.167 6.83301 13.5 7.5c11.333 6.66699 28.666 7.66699 51.999 3s41 -3.33398 53 3.99902c5.33301 -2.66699 14.333 -3.33398 27 -2.00098c14.667 2 24.334 2.66699 29.001 2c5.33301 -16 8 -33.333 8 -52
c-0.666992 -38.667 -1 -56.667 -1 -54z" />
    <glyph glyph-name="M" unicode="M" horiz-adv-x="497" 
d="M465 405c-0.666992 -2 -0.666992 -13.667 0 -35c0 -17.333 -2 -30.333 -6 -39c-4.66699 -13.333 -7 -32.333 -7 -57c0 -5.33301 0.333008 -13.666 1 -24.999v-25c0 -42 -6.66699 -72.667 -20 -92c1.33301 -10.667 2 -21.334 2 -32.001
c0 -33.333 -10.667 -78.333 -32 -135c-6 -2 -11 -3 -15 -3c-8 0 -13.833 4.5 -17.5 13.5l-10.5 25.5c1.33301 51.333 -1 126 -7 224l6 6c-4.66699 17.333 -7 36.666 -7 57.999c0 15.333 1.5 37.666 4.5 66.999s4.5 51.333 4.5 66c0 9.33301 -0.333008 18.333 -1 27
c-22 -55.333 -36.667 -148.666 -44 -279.999l-8 -20c-2.66699 -6.66699 -8.33398 -10.334 -17.001 -11.001c-2.66699 4.66699 -5.33398 7 -8.00098 7c-2 0 -5.5 -2.5 -10.5 -7.5s-9.16699 -7.16699 -12.5 -6.5l-13 -12c6 -7.33301 18.667 -8 38 -2
c15.333 4.66699 23.333 -1 24 -17c0.666992 -13.333 -2.66602 -31.333 -9.99902 -54s-11 -39.667 -11 -51c0 -8 1 -16 3 -24l-69 -12c-6.66699 13.333 -11.834 35.833 -15.501 67.5s-8.83398 54.167 -15.501 67.5c4 4.66699 6 9.66699 6 15c0 4.66699 -2 11.667 -6 21
s-6.33301 16.333 -7 21c-0.666992 7.33301 -3.33398 25 -8.00098 53c-3.33301 22.667 -5 40.334 -5 53.001c0 6.66699 0.333008 12.667 1 18c0 4.66699 -2.66699 11.5 -8 20.5s-8 15.5 -8 19.5c0 3.33301 1.33301 6.33301 4 9c-4.66699 5.33301 -6.66699 14.666 -6 27.999
s-1.33301 22.666 -6 27.999c-9.33301 -26 -14 -61 -14 -105c0.666992 -61.333 0.666992 -96.666 0 -105.999l7 -6l-7 -6c5.33301 -24 8 -54.667 8 -92c-0.666992 -67.333 -1 -98.666 -1 -93.999c-9.33301 -8.66699 -22.333 -13 -39 -13c-20.667 0 -34.667 -2 -42 -6
c-8.66699 14.667 -13 33.667 -13 57c0 18 2.66699 40 8 66c-9.33301 16.667 -14 40 -14 70c0 7.33301 0.666992 21.333 2 42c0.666992 16.667 0.666992 29 0 37c6.66699 3.33301 10 7 10 11c0 2.66699 -2.16699 7.16699 -6.5 13.5s-6.5 11.166 -6.5 14.499
c0 4 2.66699 8 8 12l-27 323c12.667 8.66699 33.334 13 62.001 13c31.333 -0.666992 52.666 1.33301 63.999 6c2 1.33301 4.33301 2 7 2s5.83398 -1.5 9.50098 -4.5s6.16699 -4.5 7.5 -4.5c2.66699 0 5 2 7 6l19 -18c6.66699 -23.333 13.334 -68.666 20.001 -135.999
c6.66699 -58 16.334 -101.667 29.001 -131l38 149l19 130l155 6c0.666992 -8.66699 3.33398 -26.334 8.00098 -53.001c4 -23.333 6 -42.333 6 -57c0 -16.667 -2.33301 -31.667 -7 -45c5.33301 -7.33301 8 -16.666 8 -27.999s-2.66699 -20.666 -8 -27.999z" />
    <glyph glyph-name="N" unicode="N" horiz-adv-x="379" 
d="M355 -10c-3.33301 -12 -9.33398 -18.001 -18.001 -18.001c-3.33301 0 -8.66602 1 -15.999 3s-13 3 -17 3c-6.66699 0 -12.334 -2.33301 -17.001 -7c-8.66699 3.33301 -17.667 7.16602 -27 11.499s-15.333 10.833 -18 19.5c18 25.333 27 50 27 74c0 6 -0.333008 12 -1 18
c5.33301 42 1.33301 71.333 -12 88l-7 -6c-2.66699 4 -5.33398 7.66699 -8.00098 11c-4 6 -9 9 -15 9c-2.66699 0 -5.33398 -0.666992 -8.00098 -2c3.33301 20 -6 35.667 -28 47c-26.667 14 -42 25.667 -46 35c-9.33301 -16 -11.666 -40 -6.99902 -72
c6 -39.333 8 -63.333 6 -72c-3.33301 -23.333 -19.666 -37.666 -48.999 -42.999c-4 4 -11 5.66699 -21 5c-13.333 -0.666992 -21 -0.666992 -23 0c-14.667 179.333 -21 360 -19 542c12 4.66699 30.833 6.66699 56.5 6s44.5 1.33301 56.5 6l38 -67
c5.33301 -38 19.666 -77.667 42.999 -119v-44c-12 8 -26 19.667 -42 35l-39 40c0.666992 -7.33301 -3.66602 -11.833 -12.999 -13.5s-14 -4.83398 -14 -9.50098c0 -2 0.666992 -4.66699 2 -8l76 -49c32 -22 48 -47 48 -75c0 -4 -0.333008 -8.33301 -1 -13l20 -21
c4 3.33301 6 6.33301 6 9s-2.16699 6.66699 -6.5 12s-6.16602 9.66602 -5.49902 12.999v85c0 34 -2.66699 61.333 -8 82c4.66699 6.66699 7 13.667 7 21c0 5.33301 -1.33301 13.333 -4 24s-4 19 -4 25c0 4 0.333008 7.66699 1 11c-0.666992 2.66699 -1 5.33398 -1 8.00098
c0 6 2.33301 13.833 7 23.5s7.33398 15.834 8.00098 18.501c4 1.33301 7.33301 0.333008 10 -3s5 -6.66602 7 -9.99902c29.333 8 54.666 8.33301 75.999 1l-6 -517l6 -7v-110zM136.999 6.99902h1.00195c-17.333 -4.66699 -28 -7.66699 -32 -9
c-11.333 -4.66699 -17.333 -11.667 -18 -21l-37 30c-2 -2.66699 -8.66699 -4.66699 -20 -6c-4 5.33301 -6 13.333 -6 24c0.666992 14.667 0.666992 23.334 0 26.001c8 0 19.667 2.66699 35 8s26.666 8 33.999 8c6.66699 0 12.667 -1.33301 18 -4
c5.33301 5.33301 9.66602 7.33301 12.999 6c10.667 -5.33301 13.667 -15.333 9 -30s-3.66699 -25.334 3 -32.001z" />
    <glyph glyph-name="O" unicode="O" horiz-adv-x="410" 
d="M385 229l1.00098 1c-1.33301 -6.66699 -4.33301 -36.334 -9 -89.001c-4 -36.667 -9.33301 -66 -16 -88c-4 -1.33301 -7.66699 -2 -11 -2c-6.66699 0 -12.167 5.16699 -16.5 15.5s-8.5 15.5 -12.5 15.5s-9.66699 -3 -17 -9c-12 6 -23.667 12.167 -35 18.5
s-16.333 16.833 -15 31.5l8 5c-6.66699 32.667 -12 105 -16 217c-2.66699 94.667 -14 166 -34 214c-5.33301 -2 -8 -6 -8 -12c0.666992 -9.33301 1 -13.666 1 -12.999l-19 31c-4 -4 -6 -11 -6 -21c0.666992 -13.333 0.666992 -21 0 -23c-8.66699 1.33301 -15 -1 -19 -7
l-12 -18l19 -323l-13 -13l-6 6c-2.66699 -1.33301 -16.334 -12.666 -41.001 -33.999c-14.667 -12.667 -32 -18 -52 -16l-20 129c-7.33301 54 -11 99.667 -11 137c0 99.333 27 172.666 81 219.999c6 1.33301 19.667 6 41 14c17.333 6.66699 31.666 10 42.999 10
c9.33301 0 18.333 -2 27 -6c1.33301 5.33301 5.33301 8 12 8s10.667 0.333008 12 1c6.66699 -11.333 17.334 -16.333 32.001 -15c36 -26 62 -62 78 -108c12 -34 19.333 -79 22 -135l6 -136zM343.001 -5c-6.66699 -0.666992 -15.001 -0.331055 -25.001 1.00195
c-12 2 -19.667 3 -23 3c-10.667 0 -19.334 -3.66699 -26.001 -11l-13 -25c-3.33301 4 -10.5 6 -21.5 6s-18.167 2.33301 -21.5 7c-2 -4.66699 -6 -7 -12 -7h-13c0.666992 3.33301 -1.66602 7.66602 -6.99902 12.999c-2.66699 -5.33301 -7.33398 -8 -14.001 -8
c-14.667 0.666992 -20.334 1.33398 -17.001 2.00098l-6 6c-5.33301 -5.33301 -9.33301 -7.33301 -12 -6c-4.66699 2 -7 8 -7 18c20.667 4.66699 33.334 14.667 38.001 30c-4 9.33301 -11.667 15.333 -23 18c-15.333 3.33301 -24.333 6 -27 8
c-3.33301 -0.666992 -9.33301 -2.33398 -18 -5.00098s-15 -4 -19 -4c-9.33301 0 -15.666 6.66699 -18.999 20c-2 4.66699 -3 8.66699 -3 12c0 6.66699 6.16699 11 18.5 13s19.5 4.33301 21.5 7l37 28c15.333 12 30 17.333 44 16c4 -7.33301 7.33301 -21 10 -41s6 -34 10 -42
c7.33301 -12.667 19.333 -20.334 36 -23.001l9 22c2.66699 8.66699 7.33398 13.667 14.001 15c6 0 14.333 -3.5 25 -10.5s19.334 -10.5 26.001 -10.5c4 0 8.33301 1 13 3c6 -6 11 -15.333 15 -28c5.33301 -14.667 8.66602 -23.667 9.99902 -27z" />
    <glyph glyph-name="P" unicode="P" horiz-adv-x="356" 
d="M330 473l-0.998047 0.00292969c0.666992 -6 1 -12 1 -18c0 -10.667 -1.66699 -24.334 -5 -41.001c-4.66699 -20.667 -7.33398 -34.334 -8.00098 -41.001c4.66699 -2.66699 7 -5.66699 7 -9c0 -2 -1.5 -6 -4.5 -12s-3.5 -11 -1.5 -15
c-9.33301 -7.33301 -17.666 -18.333 -24.999 -33c-12 -22.667 -18.333 -34.667 -19 -36c-4.66699 8.66699 -16 12.667 -34 12s-29.333 3.66602 -34 12.999c-18 -0.666992 -28.333 -10 -31 -28c-5.33301 -31.333 -7.66602 -49.333 -6.99902 -54
c-16 4.66699 -25.667 20 -29 46c-4 32.667 -9 53.334 -15 62.001c-4.66699 -6.66699 -6.33398 -11.334 -5.00098 -14.001c-3.33301 -0.666992 -6 -1 -8 -1c-10 0 -15.333 7.33301 -16 22s-3.66699 22 -9 22c-2.66699 0 -6.33398 -1.33301 -11.001 -4
c2.66699 -1.33301 4.66699 -8.33301 6 -21c-2.66699 0 -6.5 1.5 -11.5 4.5s-9.83301 3.83301 -14.5 2.5c-4.66699 14 -6.66699 30 -6 48c0.666992 27.333 1 42 1 44c-4.66699 19.333 -7 36.333 -7 51s2.33301 31.334 7 50.001c-3.33301 2 -5.33301 4.66699 -6 8
c-0.666992 2.66699 -0.833984 6.66699 -0.500977 12s0.5 9 0.5 11c2 4 3 8.66699 3 14c0 6 -1.66699 16 -5 30s-5 24 -5 30c0 16 8.33301 25 25 27l14 -25c4.66699 -8.66699 10.667 -15.334 18 -20.001c15.333 5.33301 30.333 8 45 8c18 0 31.333 -4.66699 40 -14
c7.33301 4.66699 16 7 26 7s18 -2.33301 24 -7c57.333 -27.333 91 -71 101 -131zM149.002 180.003l-0.00195312 1c-0.666992 -8 -0.666992 -40.667 0 -98c0 -43.333 -2 -77 -6 -101c-8.66699 4.66699 -22.667 6.66699 -42 6c-23.333 -1.33301 -38.666 -1 -45.999 1
c-3.33301 -1.33301 -6.33301 -2 -9 -2c-5.33301 0 -9.66602 2.83301 -12.999 8.5s-6 11.167 -8 16.5s-3 10.666 -3 15.999c0 6.66699 1.5 15.834 4.5 27.501s4.5 20.5 4.5 26.5c0 8.66699 -2.33301 17 -7 25l6 5l-6 206c14.667 -6.66699 29.334 -13 44.001 -19
c17.333 -8 27.666 -18 30.999 -30c2.66699 -4 9 -20.333 19 -49c6.66699 -20.667 17 -34 31 -40zM193 367.003c4 18 6 36.0029 6 54.0029c0 21.333 -6.66699 61.666 -20 120.999l-6 -6c0.666992 -6.66699 0.666992 -34.334 0 -83.001c0 -36.667 2 -65.334 6 -86.001h14z" />
    <glyph glyph-name="Q" unicode="Q" horiz-adv-x="413" 
d="M386 392l0.000976562 1.00488l-8 -115c-4 -46 -11.667 -80.667 -23 -104c-2.66699 -2.66699 -5.66699 -5.5 -9 -8.5s-4.33301 -6.16699 -3 -9.5c-4.66699 -0.666992 -11 1.33301 -19 6c-5.33301 -5.33301 -7.33301 -10 -6 -14c2 -4.66699 5.66699 -6.66699 11 -6
c8 0.666992 12.333 1 13 1c-4 -17.333 -6 -40.666 -6 -69.999c0.666992 -42 0.666992 -66.333 0 -73c3.33301 -7.33301 9.66602 -11.333 18.999 -12c8.66699 0.666992 17 1 25 1c4.66699 -25.333 7 -45.333 7 -60c0 -22.667 -4.33301 -40.334 -13 -53.001
c-36.667 3.33301 -62 7.66602 -76 12.999c-26.667 8.66699 -45 25 -55 49c-0.666992 16.667 -9 31.667 -25 45c-18 3.33301 -36 6.33301 -54 9c-20.667 5.33301 -33.667 14.666 -39 27.999c-1.33301 13.333 5.83398 28.5 21.501 45.5s24.5 30.167 26.5 39.5
c8 2 17.167 -2.66699 27.5 -14s17.5 -17 21.5 -17c4.66699 0 9.33398 4 14.001 12l10 67c3.33301 27.333 8.33301 48.666 15 63.999c-4.66699 24 -7 50 -7 78s2.33301 54.333 7 79l-6 5c4 4 6 8.66699 6 14c0 2.66699 -1 7.5 -3 14.5s-3 12.167 -3 15.5
c5.33301 22.667 8 43.334 8 62.001c0 19.333 -2.66699 40 -8 62c-17.333 2.66699 -33.333 13.667 -48 33c-0.666992 -2.66699 -3 -7.33398 -7 -14.001c-6 6 -8.33301 10.667 -7 14c2.66699 2 4 4.66699 4 8c0 7.33301 -3.66699 15 -11 23c-12.667 -69.333 -19 -122 -19 -158
c0 -12.667 0.666992 -24.334 2 -35.001c-9.33301 -35.333 -14 -77 -14 -125c0 -6.66699 0.333008 -30 1 -70c0.666992 -29.333 0.666992 -54 0 -74c4.66699 -16.667 7 -26.334 7 -29.001c-2 0.666992 -4 1 -6 1c-4.66699 0 -8.66699 -2.66699 -12 -8
c-4.66699 -9.33301 -7.33398 -18 -8.00098 -26c-4.66699 0.666992 -9 -1.33301 -13 -6l-12 -12c2 -6 -2 -14.667 -12 -26c-16 -0.666992 -27 9.33301 -33 30c-7.33301 24.667 -15.333 40 -24 46c-4.66699 10.667 -6.66699 26.334 -6 47.001c0.666992 30 1 45.333 1 46
l-13 31l16 220c11.333 84 43.666 143.333 96.999 178c51.333 10 82 14.333 92 13c5.33301 4.66699 10.666 7 15.999 7c4 0 11 -2.83301 21 -8.5s18.333 -7.5 25 -5.5c18.667 -8 34.334 -23.333 47.001 -46l28 -59c-9.33301 -8 -14 -15.667 -14 -23c0 -6 4 -15.167 12 -27.5
s12 -22.5 12 -30.5c0 -4.66699 -1 -9 -3 -13c10.667 -4.66699 13.667 -13.834 9 -27.501s-3.66699 -23.167 3 -28.5z" />
    <glyph glyph-name="R" unicode="R" horiz-adv-x="355" 
d="M328 88h-1.00098c-4.66699 -10 -6.66699 -24.667 -6 -44c0.666992 -27.333 1 -41.333 1 -42c-3.33301 -1.33301 -7.66602 1 -12.999 7c-8.66699 -3.33301 -13 -9.66602 -13 -18.999c0 -1.33301 0.333008 -3.66602 1 -6.99902v-8c0 -7.33301 -2 -12.666 -6 -15.999
c-9.33301 7.33301 -21.833 12.5 -37.5 15.5l-44.5 8.5c4 90.667 -1.66699 180 -17 268c0 -0.666992 0 8.33301 0 27c0.666992 13.333 -1.33301 23 -6 29l-7 -7c0 1.33301 2.33301 3.83301 7 7.5s7 7.5 7 11.5c0 2 -0.333008 4 -1 6l-7 7c-12.667 -4 -19 -16 -19 -36
c0 -13.333 -4.66699 -22.333 -14 -27c3.33301 -3.33301 5 -7.33301 5 -12c0 -2.66699 -0.5 -6.33398 -1.5 -11.001s-1.5 -8.33398 -1.5 -11.001c0 -6 2.33301 -11 7 -15v-108c0 -43.333 -2.66699 -80 -8 -110v-17c-4.66699 0.666992 -10 1 -16 1
c-6.66699 0 -16.334 -0.5 -29.001 -1.5s-22 -1.5 -28 -1.5c-24.667 0 -41.667 6.33301 -51 19l7 373c-4 18.667 -6 44.334 -6 77.001v72c-0.666992 35.333 -3 62.666 -7 81.999c2.66699 12.667 12 19 28 19c10 0 23.333 -2.66699 40 -8c8 4 19 6 33 6
c4 0 10.333 -0.333008 19 -1h20c26 0 43.667 8.66699 53 26c12 -0.666992 24.833 -6.33398 38.5 -17.001s25.834 -16.667 36.501 -18c27.333 -22.667 41 -58 41 -106c0 -10.667 -5.33301 -52.667 -16 -126l-51 -49c7.33301 -19.333 15.333 -61 24 -125
c7.33301 -53.333 20.333 -93 39 -119zM257.999 518l1 -1.00391c0.666992 -4.66699 1 11.666 1 48.999c0 18 -4.66699 31.333 -14 40c-6 -9.33301 -10.833 -25.166 -14.5 -47.499s-8.83398 -38.166 -15.501 -47.499c-16.667 1.33301 -26.334 12 -29.001 32
c-6 32.667 -9 49.334 -9 50.001v-13l-9 -9c-3.33301 -3.33301 -6.66602 -4.33301 -9.99902 -3c0 -4 -1.83301 -10.167 -5.5 -18.5s-5.5 -14.166 -5.5 -17.499c0 -6 3.66699 -10.667 11 -14c-2 -13.333 -3 -27.333 -3 -42c0 -8 0.666992 -26.333 2 -55
c2 -22.667 2.33301 -42 1 -58c6 -0.666992 11.667 -1 17 -1c23.333 0 39 10.333 47 31c2.66699 6 6.33398 28 11.001 66c4 28.667 12 48.334 24 59.001z" />
    <glyph glyph-name="S" unicode="S" horiz-adv-x="370" 
d="M347 51h1.00293c-6.66699 -5.33301 -11.334 -7.66602 -14.001 -6.99902l-5 7c-13.333 -28 -39 -47 -77 -57c-30.667 -7.33301 -61 -15 -91 -23c-8.66699 14 -19.334 16.333 -32.001 7c-28.667 14.667 -52.667 39.834 -72 75.501s-28.666 72.167 -27.999 109.5
c2.66699 0 6.33398 1.33301 11.001 4s9 3.33398 13 2.00098c43.333 0 73 2.33301 89 7c1.33301 -2.66699 2 -5.33398 2 -8.00098c0 -3.33301 -1.33301 -7.66602 -4 -12.999s-4 -9 -4 -11c0 -4.66699 4 -8.33398 12 -11.001c-4.66699 -2.66699 -7 -6.33398 -7 -11.001
c0 -2 2.33301 -9.33301 7 -22c3.33301 -16.667 12.666 -25 27.999 -25c5.33301 0 13.166 1.16699 23.499 3.5s17.5 3.5 21.5 3.5c16 0 22.333 -12.667 19 -38c9.33301 4 14 11.667 14 23v28c-8 5.33301 -12.333 16 -13 32v37c-0.666992 7.33301 -2.33398 13.333 -5.00098 18
l-50 49c2 10.667 -2.33301 17.334 -13 20.001c-14.667 3.33301 -23 7.33301 -25 12l-75 74l7 6c-10 -0.666992 -18.667 4.66602 -26 15.999c-10.667 16.667 -17 25.667 -19 27c3.33301 2 5 4.33301 5 7s-1.5 6.16699 -4.5 10.5s-4.83301 6.83301 -5.5 7.5
c-4.66699 18 -7 36.667 -7 56c0 38 8.33301 71.667 25 101h12c0 -0.666992 2 -5 6 -13c15.333 2.66699 34 17 56 43c20.667 24 39 36 55 36c6 0 12.667 -1.33301 20 -4l26 6c56.667 -24 90 -59 100 -105c4.66699 -9.33301 6.66699 -22.333 6 -39
c-0.666992 -26.667 -1 -40.667 -1 -42c-10.667 2.66699 -21.334 4 -32.001 4c-14 0 -36.333 -4 -67 -12c-3.33301 7.33301 -5 17.666 -5 30.999v33c-1.33301 22.667 -11.333 36.334 -30 41.001c-0.666992 5.33301 -5.66699 12.666 -15 21.999
c1.33301 -4.66699 2 -8.66699 2 -12c0 -8.66699 -8.16699 -14.834 -24.5 -18.501s-23.166 -12.5 -20.499 -26.5c-2 -8 -3 -15.667 -3 -23c0 -25.333 11.667 -50 35 -74l62 -58c40 -18.667 70.333 -52 91 -100c-3.33301 -7.33301 -5 -16 -5 -26v-12
c0.666992 -5.33301 1 -9 1 -11c0 -15.333 -6.66699 -26 -20 -32c4 -8 12.333 -12.667 25 -14s21 -4.66602 25 -9.99902c0 -7.33301 -2 -18.666 -6 -33.999s-6 -27 -6 -35c0 -12.667 4 -23.334 12 -32.001z" />
    <glyph glyph-name="T" unicode="T" horiz-adv-x="482" 
d="M457 515h0.999023c-1.33301 -3.33301 -4.66602 -5.5 -9.99902 -6.5s-8.33301 -1.5 -9 -1.5c-6 8.66699 -8 22 -6 40s1.66699 30 -1 36c0 13.333 0.333008 21 1 23c2 8.66699 8 11.667 18 9c5.33301 -6 8 -14.333 8 -25c0 -4 -0.5 -11 -1.5 -21s-1.5 -17.333 -1.5 -22
c0 -5.33301 0.333008 -10 1 -14v-18zM373.999 515l0.995117 -1.00098c-9.33301 1.33301 -25.666 1 -48.999 -1c-20 -1.33301 -35 -0.666016 -45 2.00098c-10 -7.33301 -14 -18 -12 -32l6 -5c-5.33301 -5.33301 -7.33301 -9.66602 -6 -12.999l5 -7
c-6.66699 -118 -10 -183.333 -10 -196c0 -31.333 1.66699 -59 5 -83c-4.66699 -14.667 -7 -31.667 -7 -51c0 -12.667 1.5 -32.834 4.5 -60.501s4.5 -48.5 4.5 -62.5c0 -10.667 -0.666992 -20.667 -2 -30c-9.33301 -4 -19.333 -6 -30 -6c-18 0 -37 6 -57 18
c-2.66699 -2.66699 -5.66699 -5.5 -9 -8.5s-4.33301 -6.5 -3 -10.5c-6.66699 -2 -15.667 2 -27 12c-0.666992 120 -8 304 -22 552c-9.33301 -9.33301 -22.666 -14.666 -39.999 -15.999c-20.667 -1.33301 -35 -4 -43 -8c-9.33301 14 -14 32 -14 54c0 21.333 4.66699 39 14 53
c12 -5.33301 29 -7.66602 51 -6.99902h48c2.66699 4.66699 9.33398 7 20.001 7c6.66699 -4.66699 10 -10 10 -16c0 -4 -1.33301 -9.5 -4 -16.5s-4 -12.167 -4 -15.5c0 -8 5.33301 -14.667 16 -20c12 -0.666992 24.333 -1 37 -1c14 -2.66699 20 -11.334 18 -26.001
c2.66699 4 14.334 10.333 35.001 19c15.333 7.33301 23 18.666 23 33.999c0 33.333 -0.333008 41.333 -1 24c0 8.66699 4 14.667 12 18c24.667 -4.66699 39.334 -7 44.001 -7c10 0 18.667 2 26 6c4.66699 -12 6.66699 -28 6 -48c-0.666992 -32 -1 -49 -1 -51z" />
    <glyph glyph-name="U" unicode="U" horiz-adv-x="473" 
d="M451 640l1.00098 -0.999023l-21 -242l6 -7c-8.66699 -24.667 -13 -56.334 -13 -95.001c0 -13.333 0.666992 -33 2 -59s2 -45.667 2 -59c0 -71.333 -17 -122.666 -51 -153.999c-10.667 -4 -22 -8.5 -34 -13.5s-19.667 -12.5 -23 -22.5
c-12 -0.666992 -22.333 6.33301 -31 21c-6 13.333 -12.333 26.666 -19 39.999v37h18c-0.666992 -2.66699 1.66602 -6.66699 6.99902 -12l19 55l24 511c10.667 5.33301 26.667 7 48 5s36.333 -1.33301 45 2zM271.001 4.00098l1.00195 -0.00292969v-13
c0 -6 -1.83301 -9.83301 -5.5 -11.5s-6.16699 -2.5 -7.5 -2.5c-4 0 -7.33301 3 -10 9c-4.66699 7.33301 -7.66699 11.666 -9 12.999c-4 -10 -10.833 -15.667 -20.5 -17s-19.5 -2 -29.5 -2c-16.667 28.667 -26.334 49.667 -29.001 63c-4 -4 -6 -10.333 -6 -19
c0 -5.33301 1 -13.166 3 -23.499s3 -17.166 3 -20.499c-71.333 36.667 -107 96.667 -107 180c3.33301 7.33301 5 16 5 26c0 9.33301 -2.33301 24.333 -7 45c-4.66699 18 -6.33398 31.333 -5.00098 40c4 31.333 6 72.333 6 123c0 74.667 0.333008 116.667 1 126
c4.66699 6 7 13 7 21c0 5.33301 -1.5 14.5 -4.5 27.5s-4.5 23.167 -4.5 30.5c0 5.33301 0.666992 10.333 2 15l-7 6c18 9.33301 31 14 39 14c2.66699 0 4.33398 -0.666992 5.00098 -2c3.33301 0.666992 15 0.666992 35 0c11.333 -0.666992 22.666 1.66602 33.999 6.99902
c10 -10 15 -24.667 15 -44c0 -9.33301 -1.33301 -22 -4 -38c-3.33301 -20.667 -5.33301 -32.667 -6 -36c10 -8.66699 13.667 -21.667 11 -39c-3.33301 -20 -3 -34.333 1 -43c-26 -10 -39 -22.333 -39 -37c0 -4 0.666992 -8.33301 2 -13l-6 -7c3.33301 -4.66699 5 -9 5 -13
c0 -5.33301 -4.33301 -13.666 -13 -24.999s-12 -20.666 -10 -27.999c-0.666992 -5.33301 -1 -10.666 -1 -15.999c0 -16 6 -39.5 18 -70.5s16.667 -56.5 14 -76.5c3.33301 -2 5.83301 -7.16699 7.5 -15.5s5.5 -13.833 11.5 -16.5c4 4.66699 6 11.667 6 21
c0 15.333 -2 25 -6 29l6 6c-2.66699 1.33301 -5 7.66602 -7 18.999c1.33301 4.66699 5 7 11 7h14c8 -14.667 12.167 -37.334 12.5 -68.001s4.83301 -53.667 13.5 -69l24 24c8 -7.33301 13 -21.666 15 -42.999s7.33301 -35.666 16 -42.999z" />
    <glyph glyph-name="V" unicode="V" horiz-adv-x="378" 
d="M353 682c-2 -46 -10.501 -111.333 -25.501 -196s-23.5 -148.667 -25.5 -192c-20.667 -6 -37 -9 -49 -9s-25 2.66699 -39 8c0.666992 52 5.33398 116 14.001 192c14.667 124.667 22 188 22 190c12 5.33301 28.667 8 50 8c37.333 -0.666992 55 -1 53 -1zM191.999 271
l-0.000976562 1l-13 -14c-5.33301 -6 -10.666 -9 -15.999 -9l-7 8l-27 -23.5c-9.33301 -8.33301 -20 -12.833 -32 -13.5c1.33301 4 0 8 -4 12c-7.33301 6 -10.833 10.333 -10.5 13s0.5 7 0.5 13c0 12 -2 28.667 -6 50c-6 27.333 -9.33301 44 -10 50
c-1.33301 40.667 -8 93.667 -20 159c-13.333 75.333 -21.333 128 -24 158l110 15l22 -15c0 -0.666992 3.66699 -46.334 11 -137.001c4 -55.333 10.333 -100.333 19 -135c-1.33301 -5.33301 -2 -11.333 -2 -18c0 -8.66699 1.83301 -23.167 5.5 -43.5s5.5 -36.166 5.5 -47.499
c0 -8 -0.666992 -15.667 -2 -23zM286.998 213v1c-6.66699 -56 -18.667 -139 -36 -249c-4.66699 5.33301 -9.33398 8 -14.001 8c-3.33301 0 -8.5 -1.5 -15.5 -4.5s-12.167 -4.5 -15.5 -4.5c-4.66699 0 -9.33398 2.66699 -14.001 8c-3.33301 -5.33301 -8.66602 -8 -15.999 -8
h-20l-8 8c-2.66699 -5.33301 -7 -8 -13 -8h-17l-36 191c6.66699 8.66699 27 18 61 28c28.667 8.66699 45 23.667 49 45c8.66699 10 18.334 15 29.001 15c2.66699 0 5 -0.333008 7 -1c3.33301 -9.33301 11.333 -14 24 -14h8h7c12 0 18.667 -5 20 -15z" />
    <glyph glyph-name="W" unicode="W" horiz-adv-x="594" 
d="M586 644l0.999023 0.998047l-27 -159c-11.333 -62.667 -27.333 -113 -48 -151l-44 -272c2 -4 3 -9 3 -15c0 -2.66699 -0.666992 -10.667 -2 -24c-2 -10.667 -2.33301 -19 -1 -25c-14 -6.66699 -33.333 -8.66699 -58 -6c-27.333 2.66699 -47 2.33398 -59 -0.999023
c-14.667 54 -22 109.667 -22 167c0 14.667 0.333008 29.334 1 44.001c-34.667 13.333 -52 35.333 -52 66v39c0 15.333 -2.66699 26.666 -8 33.999c4 2 6 4.66699 6 8c0 -0.666992 -4.33301 6.66602 -13 21.999l-33 -196c-13.333 -79.333 -27 -143.333 -41 -192l7 -7
c-6.66699 -6.66699 -9.33398 -11.667 -8.00098 -15c-12 5.33301 -30.667 8 -56 8h-54c-14.667 7.33301 -22 19.333 -22 36c0 8 2.66699 14.667 8 20c1.33301 38.667 -2.33398 92.334 -11.001 161.001c-9.33301 72.667 -14 125.334 -14 158.001c0 19.333 1 38 3 56
c-13.333 44.667 -20 98 -20 160c0 29.333 1.66699 57 5 83c8 -5.33301 17.333 -8 28 -8c0.666992 0 14.334 2.33301 41.001 7c16.667 2.66699 30.334 0.666992 41.001 -6l23 -324l13 21c0.666992 1.33301 4.33398 32 11.001 92c4 36.667 13 65 27 85
c-1.33301 58.667 8 98 28 118c52 -6 86.333 -8.33301 103 -7c4 -109.333 19.333 -212.333 46 -309c2.66699 1.33301 5.66699 6.33301 9 15c2 6 6.33301 8.33301 13 7l7 -8l44 164c16 62 28 117.667 36 167c-6 0.666992 10.667 1 50 1c18 0 31 -5 39 -15z" />
    <glyph glyph-name="X" unicode="X" horiz-adv-x="403" 
d="M379 -50l-1.00195 0.00292969c-9.33301 -4 -19.333 -6 -30 -6c-9.33301 0 -24.666 2.5 -45.999 7.5s-37.666 7.16699 -48.999 6.5c-28 62 -40.667 135.333 -38 220c-31.333 -33.333 -47 -73.333 -47 -120c-12.667 2 -21 -3.66699 -25 -17
c-5.33301 -16 -11 -25.667 -17 -29c0.666992 -4 1 -8 1 -12c0 -18 -6.33301 -27 -19 -27c-3.33301 0 -7 0.666992 -11 2c-4 -1.33301 -8 -2 -12 -2c-7.33301 0 -20 4.66699 -38 14c-5.33301 -6.66699 -10.666 -9.66699 -15.999 -9c0 0.666992 2.66699 16.334 8 47.001
c3.33301 19.333 11.333 33.333 24 42l39 120c13.333 46 19 88 17 126c4 11.333 6 22.333 6 33c0 19.333 -11.167 45.666 -33.5 78.999s-33.5 61 -33.5 83c0 4.66699 0.333008 9.33398 1 14.001c-2 8.66699 -8.66699 24.667 -20 48c-10 19.333 -15 35.333 -15 48
c0 9.33301 2.33301 18.666 7 27.999c14 -4.66699 33.333 -6.33398 58 -5.00098c43.333 2.66699 63.333 4 60 4l29 -139l22 -21c9.33301 14.667 18.666 35.667 27.999 63c10 31.333 18 52.666 24 63.999c-4 7.33301 -5 13.666 -3 18.999c1.33301 4 3 8 5 12h12
c9.33301 -5.33301 23.666 -7.33301 42.999 -6c30 1.33301 43 2 39 2c10 -3.33301 15 -7.66602 15 -12.999c0 -2.66699 -1.33301 -7.16699 -4 -13.5s-4 -11.166 -4 -14.499c0 -4 1 -7.66699 3 -11c-15.333 -16.667 -28 -39.334 -38 -68.001c-7.33301 -24.667 -15 -49 -23 -73
c-26 -68 -39 -115.333 -39 -142c0 -20.667 3.66699 -40.334 11 -59.001c-4 2 -8.66699 -0.333008 -14 -7c6.66699 -4.66699 15.334 -7 26.001 -7c10.667 0.666992 19 3.66699 25 9c12 -30.667 24.333 -79 37 -145s24.667 -114.333 36 -145z" />
    <glyph glyph-name="Y" unicode="Y" horiz-adv-x="390" 
d="M364 563l0.996094 0.000976562c1.33301 -3.33301 2 -6 2 -8c0 -4 -3 -7 -9 -9c-8 -2 -12.667 -3.66699 -14 -5c-11.333 -2 -18.666 -9.66699 -21.999 -23c-3.33301 -16 -7.66602 -25.667 -12.999 -29c-1.33301 -13.333 -5.66602 -36.666 -12.999 -69.999
c-7.33301 -29.333 -11 -52 -11 -68c0 -18 3.66699 -34 11 -48c-5.33301 -10 -9.33301 -23.333 -12 -40c-2.66699 -13.333 -5 -26.666 -7 -39.999c-4 0.666992 -8 -1.33301 -12 -6c-5.33301 -6.66699 -8.66602 -10.334 -9.99902 -11.001
c-2.66699 -5.33301 -4 -10.666 -4 -15.999c0 -8 4 -18 12 -30s12 -21 12 -27c0 -7.33301 -5 -15 -15 -23v-8c2 -8 3 -13.667 3 -17c0 -2.66699 -0.666992 -4.33398 -2 -5.00098c-8.66699 -9.33301 -13 -19.333 -13 -30c0 -8 2.66699 -17.667 8 -29l12 -25
c-3.33301 -4.66699 -14 -7 -32 -7c-6.66699 0 -16.167 0.5 -28.5 1.5s-19.833 1.16699 -22.5 0.5c-3.33301 20.667 -5 45.667 -5 75c0 14.667 0.666992 37 2 67s2 52.333 2 67c0 29.333 -1.66699 54.666 -5 75.999c-6 -6 -8.33301 -11.333 -7 -16
c-14 0.666992 -23.333 10 -28 28l-12 44l-37 97c-14.667 36 -29.667 66.333 -45 91c-4.66699 7.33301 -8 22.333 -10 45c-2 20 -7.66699 34 -17 42c23.333 14 49.333 21 78 21c26.667 0 45.334 -7.33301 56.001 -22c4 -10.667 12.333 -48.334 25 -113.001
c8.66699 -46.667 23 -81.667 43 -105c10.667 25.333 19.334 58.333 26.001 99c6 33.333 11.667 67 17 101c-12.667 7.33301 -18.334 19.333 -17.001 36c5.33301 1.33301 10.666 2 15.999 2c16.667 0 34.667 -7.66699 54 -23z" />
    <glyph glyph-name="Z" unicode="Z" horiz-adv-x="344" 
d="M175 590l1.00098 1.00098c-12.667 -4.66699 -21 -17.834 -25 -39.501s-12 -34.167 -24 -37.5c-2.66699 -2 -5 -3 -7 -3c-4 0 -8.83301 2.83301 -14.5 8.5s-9.83398 8.5 -12.501 8.5c-3.33301 0 -7 -3 -11 -9l-8 8c-10 -16 -24.333 -24 -43 -24l-6 109l75 4
c26 0.666992 50.333 -1 73 -5zM321.001 -26.999l0.00585938 1.00195c-7.33301 -11.333 -16.666 -17 -27.999 -17c-2.66699 0 -5.33398 0.333008 -8.00098 1c-2 4 -4 6 -6 6c-1.33301 0 -3.33301 -1.33301 -6 -4s-5 -4 -7 -4c-0.666992 0 -4.5 1.16699 -11.5 3.5
s-13.833 3.5 -20.5 3.5c-4.66699 0 -11.834 -0.5 -21.501 -1.5s-16.834 -1.5 -21.501 -1.5c-28.667 0 -42.334 14 -41.001 42c-6.66699 -4 -11.667 -14 -15 -30c-2 -12.667 -7.66699 -19 -17 -19c-4.66699 0 -10.334 1 -17.001 3
c-6.66699 1.33301 -31.334 -2.33398 -74.001 -11.001c1.33301 53.333 11.666 117 30.999 191l48 187c18.667 -0.666992 29.334 9.66602 32.001 30.999c3.33301 24.667 11 39.667 23 45c2 43.333 5.66699 74.666 11 93.999c8.66699 34 25 57.333 49 70
c-1.33301 14.667 2.5 34.667 11.5 60s12.833 45 11.5 59c19.333 8.66699 35.333 13 48 13c19.333 0 28 -10.333 26 -31c1.33301 -3.33301 2 -6.66602 2 -9.99902c0 -14.667 -7.33301 -24.334 -22 -29.001l-25 -156c-10 -62.667 -26 -112 -48 -148
c-2 -32 -8.66699 -71 -20 -117c-18.667 -73.333 -28.334 -111 -29.001 -113c0 -25.333 4.66699 -38 14 -38c2.66699 0 5.66699 0.666992 9 2c15.333 6 33 9.33301 53 10c30.667 1.33301 49.667 2.33301 57 3c6.66699 -15.333 10 -32.666 10 -51.999
c0 -13.333 -2 -25.333 -6 -36z" />
    <glyph glyph-name="bracketleft" unicode="[" horiz-adv-x="201" 
d="M244 729c-8.66699 10.667 -17.667 15.998 -27 15.998c-8.66699 0 -20.667 -5.33301 -36 -16s-26.333 -16.667 -33 -18l-32 -32c14 -10.667 16.333 -29.167 7 -55.5s-5.66602 -45.166 11.001 -56.499l-3 -573c-6 0.666992 -14 0.333984 -24 -0.999023
c-12 -1.33301 -20 -2 -24 -2c-14.667 0 -25.334 5 -32.001 15l16 17l-34 31l19 656c-12 4.66699 -18 14 -18 28c0.666992 24 18 36 52 36s86.333 1 157 3zM228 -85.002c-4.66699 0.666992 -9.99902 1 -15.999 1c-5.33301 0 -13 -0.333008 -23 -1s-17.667 -1 -23 -1
c-24.667 0 -41.667 10 -51 30c-10.667 -10.667 -16 -19 -16 -25c0 -2 0.333008 -4.33301 1 -7l-64 -1l-1 49c13.333 -14.667 28.666 -22 45.999 -22c15.333 0 36.333 6.83301 63 20.5s44.334 20.5 53.001 20.5c19.333 0 29.666 -21.333 30.999 -64z" />
    <glyph glyph-name="backslash" unicode="\" horiz-adv-x="330" 
d="M134 629l1.00098 1c-5.33301 -8.66699 -8 -18 -8 -28c0 -4 0.666992 -8.83301 2 -14.5s2 -9.16699 2 -10.5c0 -4 -2.66699 -6 -8 -6c-6.66699 0 -24.667 4 -54 12c-5.33301 10 -12.333 29.333 -21 58c-6.66699 24.667 -15.334 43 -26.001 55l82 15
c9.33301 -7.33301 15.333 -21 18 -41s6.66699 -33.667 12 -41zM279.001 -43h-31.998l-20 107c-8.66699 42.667 -21.667 76 -39 100c2 13.333 3 26.333 3 39c0 43.333 -15.333 98 -46 164s-46.334 121.667 -47.001 167l48 14l106 -336
c1.33301 -12.667 6.66602 -33.667 15.999 -63c9.33301 -26.667 14 -47.334 14 -62.001c0 -19.333 -5.66699 -36.666 -17 -51.999c10.667 -6 16 -16.667 16 -32c0 -2 -0.666992 -9.66699 -2 -23c-1.33301 -10 -1.33301 -17.667 0 -23z" />
    <glyph glyph-name="bracketright" unicode="]" horiz-adv-x="205" 
d="M164 786c0 -8.66699 -3.00098 -148 -9.00098 -418c-3.33301 -160 -5 -297 -5 -411v-48c-20.667 10 -48.667 15 -84 15c-13.333 0 -31.5 -0.833008 -54.5 -2.5s-39.167 -2.5 -48.5 -2.5c-7.33301 0 -14 0.333008 -20 1v50l111 1l16 718l16 16
c-12 10.667 -29.667 16 -53 16c-4.66699 0 -17 -0.666992 -37 -2c-15.333 -1.33301 -27.666 -1.33301 -36.999 0c0 26 -5.33301 41.667 -16 47z" />
    <glyph glyph-name="asciicircum" unicode="^" horiz-adv-x="294" 
d="M237 658c-18.667 -8.66699 -40.667 -1.33301 -66 22c-28.667 26 -45.667 39 -51 39c-12.667 0 -21 -21.333 -25 -64l-64 -2c12 9.33301 29 35.333 51 78c16.667 30.667 37.667 46 63 46c12 0 26.333 -2.66699 43 -8l31 -52c12 -21.333 18 -41 18 -59z" />
    <glyph glyph-name="underscore" unicode="_" horiz-adv-x="690" 
d="M677 -92c-11.333 4 -27.334 6.00098 -48.001 6.00098c-19.333 0 -53.333 -2.66699 -102 -8s-84 -8 -106 -8c-38 0 -65.333 5.66699 -82 17l18 14c-15.333 14 -26 20 -32 18c-8.66699 -4 -13.667 -10.833 -15 -20.5s-2.33301 -18.834 -3 -27.501h-44
c-17.333 0 -29.333 5.66699 -36 17c-28 -10.667 -60 -16 -96 -16c-42.667 0 -80 7 -112 21l18 14c0.666992 2.66699 1 5.33398 1 8.00098c0 6 -5.66699 14.667 -17 26c13.333 10.667 21.333 16 24 16s5.33398 -0.666992 8.00098 -2c4 -20.667 20.333 -31 49 -31
c27.333 0 43 10 47 30c8 -2 24.333 -2 49 0c24 1.33301 41 0.666016 51 -2.00098c16 -4 25.333 -14.667 28 -32c22 20.667 73.667 31 155 31c25.333 0 61 -1.16699 107 -3.5s76.667 -3.5 92 -3.5c13.333 0 24 0.333008 32 1z" />
    <glyph glyph-name="grave" unicode="`" horiz-adv-x="96" 
d="M75 671c-5.33301 -2.66699 -10.667 -4 -16 -4c-10.667 0 -22 7 -34 21c-14.667 17.333 -24.334 27.333 -29.001 30c10.667 12.667 16 21 16 25c0 2 -0.666992 4.33301 -2 7l-63 30c0.666992 12 11.334 18.333 32.001 19h47c7.33301 -7.33301 11 -17.666 11 -30.999
c0 -3.33301 -0.333008 -8.33301 -1 -15s-1 -11.667 -1 -15c0 -20.667 13.333 -32.334 40 -35.001v-32z" />
    <glyph glyph-name="a" unicode="a" horiz-adv-x="359" 
d="M293 388c-8 -3.33301 -13.999 -11.667 -17.999 -25s-10.667 -22 -20 -26c-6 -2.66699 -11.333 -4 -16 -4c-10 0 -16 8.33301 -18 25c-2.66699 21.333 -5.33398 33.666 -8.00098 36.999c1.33301 17.333 -4 30.333 -16 39c-23.333 -5.33301 -43 -32.666 -59 -81.999l-7 8
c-20 -5.33301 -35.667 -8 -47 -8c-12.667 0 -26 2.66699 -40 8c4.66699 38 9 62.667 13 74c9.33301 25.333 26.333 42 51 50l96 15c10.667 -3.33301 23 -8.33301 37 -15c1.33301 1.33301 6 4.33301 14 9c6 3.33301 9 7 9 11c0 2.66699 -0.666992 5.66699 -2 9
c4.66699 1.33301 10 -1 16 -7l-7 -7c21.333 -29.333 32 -53.666 32 -72.999c0 -12.667 -3.33301 -25.334 -10 -38.001zM329.001 -7.00098c-8 9.33301 -18.999 13.999 -32.999 13.999c-6.66699 0 -16 -1.16699 -28 -3.5s-20.667 -3.5 -26 -3.5
c-16.667 0 -26.667 9.66699 -30 29c-30.667 -24 -62.667 -36 -96 -36c-12.667 0 -24.667 2 -36 6c-36.667 42 -55 77.333 -55 106c0 8.66699 1 17.667 3 27c1.33301 68 26 114.333 74 139c22 15.333 48.667 23 80 23c5.33301 0 10.333 -0.333008 15 -1
c5.33301 5.33301 13.666 8 24.999 8h27l6 -8c0.666992 0.666992 11.667 19.334 33 56.001c13.333 22 27.333 37.667 42 47v-138c0 -58.667 -2.66699 -105.667 -8 -141c4.66699 -2 7 -9 7 -21c-0.666992 -4 -1 -8.66699 -1 -14c0 -6 0.833008 -16.333 2.5 -31
s2.5 -25.667 2.5 -33c0 -10 -1.33301 -18.333 -4 -25zM204.002 249.998c-9.33301 -10.667 -19.001 -15.668 -29.001 -15.001c-4 -19.333 -7.66699 -38.333 -11 -57c-4 -23.333 -5.33301 -43.666 -4 -60.999l10.5 -21c3.66699 -7.33301 8.83398 -11 15.501 -11
c3.33301 0 7 1 11 3z" />
    <glyph glyph-name="b" unicode="b" horiz-adv-x="371" 
d="M340 105l0.000976562 0.999023c-7.33301 -22.667 -14.333 -45.667 -21 -69c-9.33301 -26 -24.333 -42 -45 -48c-7.33301 -3.33301 -32 -8.33301 -74 -15c4 16 -6 29.667 -30 41c-26 12.667 -39 21.667 -39 27c0 6.66699 8.66699 15.334 26 26.001
c3.33301 0.666992 6.66602 1 9.99902 1c6.66699 0 20.334 -5 41.001 -15c20 34 30 76.333 30 127c0 40.667 -10 106 -30 196l-22 15c-10 -6 -15 -17.667 -15 -35c0.666992 -20 -1.66602 -33 -6.99902 -39h-15c-5.33301 15.333 -8 32.666 -8 51.999c0 20 2.66699 37.333 8 52
c7.33301 2.66699 23.666 11.334 48.999 26.001c20 11.333 37.333 17 52 17c10 0 20.667 -2.33301 32 -7c44.667 -40 67 -103 67 -189c0 -20.667 -1.33301 -48.667 -4 -84c-2.66699 -39.333 -4.33398 -66 -5.00098 -80zM142.001 590.999l-0.00195312 1.00098
c2 -8.66699 3 -17 3 -25c0 -26 -13.167 -59.667 -39.5 -101s-39.5 -75 -39.5 -101c0 -8 0.666992 -16 2 -24c4.66699 0.666992 9 1 13 1c17.333 0 29.333 -8.33301 36 -25c3.33301 -16 7 -32.333 11 -49l-22 -30c-2 4.66699 -9.66699 7 -23 7l-15 -13
c27.333 -0.666992 41 -9.66699 41 -27c0 -5.33301 -1.83301 -15.333 -5.5 -30s-5.5 -25.667 -5.5 -33c-2.66699 1.33301 -7.66699 -0.333984 -15 -5.00098c-2 -5.33301 -3 -9.66602 -3 -12.999c0 -8.66699 6.33301 -14 19 -16
c16.667 -2.66699 26.334 -5.33398 29.001 -8.00098l-11 -47c-4 -18.667 -13 -30 -27 -34c5.33301 -8 8 -16.667 8 -26c0 -16 -7.33301 -34 -22 -54c-5.33301 -1.33301 -10.333 -2 -15 -2c-22 0 -34.333 12.333 -37 37c0 12.667 2.66699 20.334 8 23.001l-8 6
c8.66699 71.333 10.167 173.166 4.5 305.499s-4.5 233.5 3.5 303.5c5.33301 -0.666992 11 -1 17 -1s14.333 0.5 25 1.5s18.334 1.5 23.001 1.5c20 0 35 -7.66699 45 -23z" />
    <glyph glyph-name="c" unicode="c" horiz-adv-x="353" 
d="M180 448c-19.333 -1.33301 -29 -14.666 -29 -39.999v-11.5v-11.5c0 -14.667 -2.33301 -25.334 -7 -32.001c4.66699 -4 7 -8 7 -12c0 -2.66699 -1.5 -7.33398 -4.5 -14.001s-4.5 -11.667 -4.5 -15c0 -4 1 -7.66699 3 -11c5.33301 -21.333 8 -43.666 8 -66.999
c0 -27.333 -3.66699 -59.666 -11 -96.999c-7.33301 -30.667 -14.333 -61.667 -21 -93v-8c-22 4.66699 -39 20 -51 46c-18.667 40.667 -28.667 62 -30 64c-4 20 -6.16699 49.667 -6.5 89s-2.5 68.666 -6.5 87.999c-2 39.333 4.33301 75.5 19 108.5s37 57.833 67 74.5
c12.667 6.66699 25 10 37 10c26.667 0 40 -12 40 -36c0 -9.33301 -3.33301 -20 -10 -32zM326 323h1c-4.66699 -10 -15.667 -15 -33 -15h-12c-5.33301 0.666992 -9 1 -11 1c-14.667 0 -25.334 -2.66699 -32.001 -8c-2 10.667 -8.66699 35 -20 73
c-8.66699 30 -13 55.667 -13 77c0 8.66699 0.666992 17.667 2 27c6 5.33301 11.667 8 17 8s13.333 -4.16699 24 -12.5s19.667 -11.833 27 -10.5c26.667 -26 43.334 -72.667 50.001 -140zM291 169h-1.00098v-103c-3.33301 -39.333 -20 -63.666 -50 -72.999h-39
c-19.333 0 -33.666 2.33301 -42.999 7c-1.33301 41.333 4 75.666 16 102.999c3.33301 0.666992 6.33301 1 9 1c8 0 19.333 -8 34 -24c15.333 7.33301 23 22.666 23 45.999c0 4 -0.333008 9.83301 -1 17.5s-1 13.167 -1 16.5c0 26.667 13 39.334 39 38.001z" />
    <glyph glyph-name="d" unicode="d" horiz-adv-x="350" 
d="M325 633l1.00195 1.00391c-8 -48.667 -9.33301 -121.167 -4 -217.5s3.66602 -168.833 -5.00098 -217.5c-3.33301 -1.33301 -6 -2 -8 -2c-4.66699 0 -9 3.33301 -13 10s-7 10.667 -9 12c-10 2 -20 0.666992 -30 -4l-29 -13c0.666992 0 12.334 -3 35.001 -9
c13.333 -3.33301 22.333 -9 27 -17c-3.33301 -5.33301 -5 -10.666 -5 -15.999c0 -6 5 -17.667 15 -35c-0.666992 -15.333 -2.66699 -38.333 -6 -69c-3.33301 -26.667 -5 -47.334 -5 -62.001c0 -16 1.33301 -31.667 4 -47c-6.66699 -2 -13.334 -3 -20.001 -3
c-14.667 0 -28 6.66699 -40 20c-5.33301 6 -13.666 19 -24.999 39c0 4 -0.333008 8.16699 -1 12.5s-3 7.5 -7 9.5l-6 -8l-9 7c-2.66699 -8 -5.66699 -15.667 -9 -23c-3.33301 -8.66699 -9.33301 -13.334 -18 -14.001l-7 6c-26.667 -4 -51.334 -0.666992 -74.001 10
c-34.667 45.333 -52 92.333 -52 141c0 14 1.66699 28 5 42l-5 6c0.666992 77.333 3 128.333 7 153c10 55.333 32.333 96.666 67 123.999c6.66699 5.33301 14 8 22 8c6 0 14.5 -2 25.5 -6s19.167 -6 24.5 -6l24 -22c8.66699 8.66699 13 22 13 40
c0 4.66699 -0.666992 15 -2 31c-1.33301 11.333 -1.33301 19.666 0 24.999c4.66699 2.66699 7 5.66699 7 9c0 2 -2 5.16699 -6 9.5s-6 8.16602 -6 11.499c0 2.66699 0.666992 5 2 7l10 73c41.333 3.33301 78.666 -2 111.999 -16zM209.002 194.004
c-6.66699 13.333 -9.99902 29.334 -9.99902 48.001c0 8.66699 0.833008 21.167 2.5 37.5s2.5 28.166 2.5 35.499c0 10 -1 19 -3 27c4 6 6 12.333 6 19c0 5.33301 -1.83301 13.166 -5.5 23.499s-5.5 18.5 -5.5 24.5c0 4.66699 0.666992 9 2 13l-7 -14
c-12.667 -1.33301 -20.667 0.333984 -24 5.00098l2 -21c-5.33301 -6.66699 -10 -9.66699 -14 -9c1.33301 -8 2 -16 2 -24c0 -10.667 -1.66699 -24 -5 -40c-4 -20 -6.33301 -32.667 -7 -38c3.33301 -15.333 4.66602 -35 3.99902 -59v-60c2 -48.667 14 -82 36 -100l-10 43
c2 4.66699 9.33301 7.66699 22 9c2 7.33301 3.66699 21 5 41c0 17.333 2.33301 30.333 7 39z" />
    <glyph glyph-name="e" unicode="e" horiz-adv-x="350" 
d="M324 323c-4.66699 -8.66699 -7.00098 -17.999 -7.00098 -27.999v-29c-1.33301 -8 -4 -16 -8 -24c-6 2 -11 3 -15 3c-4.66699 0 -9.5 -1.5 -14.5 -4.5s-8.83301 -4.5 -11.5 -4.5c-4 0 -9.33301 1.66699 -16 5l-43 70c0.666992 -20 4.33398 -37.667 11.001 -53l10 -24
c-27.333 -3.33301 -42.666 -3.33301 -45.999 0l-7 -8l-15 22c-13.333 -14.667 -17.333 -37 -12 -67c6.66699 -32.667 6 -56 -2 -70c9.33301 -15.333 21 -23 35 -23c6 0 11.333 2 16 6l22 48c10.667 19.333 22 29 34 29c9.33301 0 20 -5.33301 32 -16
c14.667 -6 22 -13.333 22 -22c0 -5.33301 -3.83301 -13.833 -11.5 -25.5s-11.5 -20.834 -11.5 -27.501c0 -2.66699 0.333008 -5 1 -7c-10 -6.66699 -19.167 -17 -27.5 -31s-18.833 -23.333 -31.5 -28c-11.333 -10 -21.666 -15 -30.999 -15c-7.33301 0 -18 6.16699 -32 18.5
s-27.333 18.5 -40 18.5c-4.66699 12 -17 25.667 -37 41s-32 31.333 -36 48c0 -1.33301 0 4 0 16c0 6.66699 -2.66699 11 -8 13l8 7c-10 0.666992 -15 6.66699 -15 18v8c0.666992 3.33301 1 6 1 8c0 8 -2.33301 13.667 -7 17v35c0 18 -3 31 -9 39l26 126
c13.333 48.667 30.666 73 51.999 73c3.33301 0 6.66602 -0.666992 9.99902 -2c20 18 43.667 27 71 27c30 0 62.667 -10.667 98 -32c26 -48 41 -99.667 45 -155zM191.999 440.001l-7 -8c-4.66699 -0.666992 -10 2 -16 8v-23c-10.667 -10.667 -15.667 -27.667 -15 -51
c0 -40 0 -59.333 0 -58l30 -1c14.667 7.33301 22 20.333 22 39c0 9.33301 -2.5 24.833 -7.5 46.5s-7.16699 37.5 -6.5 47.5z" />
    <glyph glyph-name="f" unicode="f" horiz-adv-x="286" 
d="M252 636l-1.00098 1.00293c6 -18 9 -34 9 -48c0 -18.667 -5 -32.334 -15 -41.001c-3.33301 4.66699 -8 7 -14 7c-0.666992 0 -8.66699 -2 -24 -6c-10.667 -10 -16 -25 -16 -45c0 -15.333 3 -32.333 9 -51c2.66699 -1.33301 5.33398 -2 8.00098 -2
c3.33301 0 7.83301 1.66699 13.5 5s9.5 5 11.5 5c4 0 7.66699 -2.66699 11 -8c6 -8.66699 9 -22.334 9 -41.001s-3 -34.334 -9 -47.001c-4.66699 -2 -9 -3 -13 -3c-6.66699 0 -11.667 5.33301 -15 16c-3.33301 13.333 -6 21 -8 23c-15.333 -46.667 -23 -112 -23 -196v-48
v-48c0 -54.667 -2.66699 -98.667 -8 -132c-15.333 -2 -44.666 2.66699 -87.999 14l-6 -8c-5.33301 48.667 -8 112.667 -8 192v190l-14 37l-11 -23c-4 -8.66699 -10 -13.334 -18 -14.001c-5.33301 9.33301 -8 22.333 -8 39v42c2.66699 0.666992 6.66699 2.66699 12 6
s9.33301 5 12 5c4.66699 0 9 -3.66699 13 -11c6 14.667 11 38 15 70s8.33301 54.667 13 68c9.33301 24 24.333 41.333 45 52c4.66699 -1.33301 11.167 -1.16602 19.5 0.500977s13.166 2.5 14.499 2.5c4 0 7 -1 9 -3c6 5.33301 12.333 8 19 8c4 0 10.833 -1.66699 20.5 -5
s17.167 -5 22.5 -5c4.66699 0 9 0.666992 13 2z" />
    <glyph glyph-name="g" unicode="g" horiz-adv-x="401" 
d="M377 496h-22.999c2 3.33301 -0.333008 8.33301 -7 15c-10 -9.33301 -15 -20 -15 -32c0 5.33301 2.33301 -8.66699 7 -42c1.33301 -11.333 2 -22.333 2 -33c0 -43.333 -12.667 -83.666 -38 -120.999c-24 -20 -54.333 -30 -91 -30c-6.66699 0 -13 0.333008 -19 1
c1.33301 15.333 10 36.333 26 63s24 48 24 64c0 8.66699 -1.66699 17.667 -5 27c-2.66699 -5.33301 -10 -8 -22 -8c0 12 -5.16699 24.333 -15.5 37s-15.166 25 -14.499 37c-4 -1.33301 -6.16699 -4.33301 -6.5 -9s-0.833008 -9.33398 -1.5 -14.001l-14 15
c-14.667 -22 -22 -48.667 -22 -80c0 -15.333 3.33301 -43.333 10 -84c5.33301 -36.667 7 -65.334 5 -86.001c-4.66699 1.33301 -8.66699 0.166016 -12 -3.50098l-10 -10.5c0 -26 15 -39 45 -39h8.5h7.5c23.333 0 37.666 -6.33301 42.999 -19l-10 -55
c-4.66699 -21.333 -16.667 -32.666 -36 -33.999l-30 30c-4.66699 -2.66699 -6.33398 -10 -5.00098 -22c-4 -1.33301 -9 1 -15 7c-0.666992 -6.66699 -6 -17.834 -16 -33.501s-15 -27.167 -15 -34.5c0 -10 7.33301 -18.667 22 -26h81v-17
c0 -6.66699 2.66699 -11.334 8 -14.001c9.33301 3.33301 14 12 14 26v12c-0.666992 5.33301 -1 9 -1 11c0 12.667 5.66699 19 17 19c4 0 8.66699 -0.666992 14 -2c5.33301 6 8 15.333 8 28v31c-10 10.667 -15 23.334 -15 38.001c0 8.66699 2.33301 21.834 7 39.501
s7 30.834 7 39.501h22l41 -32c16 -13.333 26.667 -26.5 32 -39.5s8 -26.5 8 -40.5c0 -22.667 -7.33301 -51 -22 -85c-23.333 -26.667 -47.666 -44 -72.999 -52c-2 1.33301 -4.33301 2 -7 2c-4 0 -10.5 -2 -19.5 -6s-16.167 -6 -21.5 -6
c-3.33301 0 -6.66602 0.666992 -9.99902 2c0.666992 4.66699 -2 10 -8 16c-6 -2.66699 -10.833 -11.167 -14.5 -25.5s-9.5 -21.5 -17.5 -21.5c-3.33301 0 -7.66602 1 -12.999 3h-31c-16 -0.666992 -27.333 1.66602 -34 6.99902c-55.333 16 -85 47.333 -89 94
c2.66699 22.667 17 42.667 43 60c3.33301 -1.33301 8.66602 0.666992 15.999 6c-0.666992 8.66699 -7.5 23.5 -20.5 44.5s-19.5 37.833 -19.5 50.5c0 10.667 3.33301 21 10 31c22.667 12 34 30 34 54c0 14 -4 27.667 -12 41c-16 10.667 -24 30.667 -24 60
c0 8 3.33301 34.333 10 79c7.33301 20 20 38 38 54s37 25.333 57 28l8 -7c4.66699 -0.666992 13.167 -0.166992 25.5 1.5s21.5 2.5 27.5 2.5c22.667 0 36.667 -9 42 -27v-24c-0.666992 -9.33301 1.66602 -16 6.99902 -20c10.667 6.66699 15.667 19.334 15 38.001
c-0.666992 22 1.66602 36 6.99902 42c12.667 28 44.667 50.333 96 67c5.33301 -6.66699 8 -14 8 -22c0 -5.33301 -1.66699 -13.666 -5 -24.999s-5 -20.333 -5 -27c0 -4.66699 0.666992 -9.33398 2 -14.001z" />
    <glyph glyph-name="h" unicode="h" horiz-adv-x="356" 
d="M331 423c0.666992 -26.667 1 -52.667 1 -78c0 -110.667 -7.66699 -228.667 -23 -354c-10 -8 -24.833 -9.16699 -44.5 -3.5s-34.167 4.5 -43.5 -3.5c-10.667 15.333 -16 42.333 -16 81v87c4.66699 140 24 252.333 58 337c34 -10.667 56.667 -32.667 68 -66zM235 489
l1.00293 -0.00195312c-3.33301 -18 -7 -36 -11 -54c-4.66699 -20.667 -11.334 -36.667 -20.001 -48c-1.33301 0.666992 -9.33301 5 -24 13c-10 6 -19 8.66699 -27 8c-8 -38.667 -14 -91.667 -18 -159c-4.66699 -86 -8 -138 -10 -156c-10 1.33301 -17.667 -1.5 -23 -8.5
s-10.333 -14.167 -15 -21.5c-2 -4 -3 -7.66699 -3 -11c0 -5.33301 4.33301 -10.666 13 -15.999s13 -11 13 -17c-4.66699 -14 -13.334 -21 -26.001 -21c-6 0 -16.333 2.33301 -31 7s-25 7 -31 7v286c6 7.33301 8.66699 12.333 8 15l-8 6c1.33301 12 5 71.667 11 179
c4 72.667 9.66699 131.334 17 176.001c-0.666992 0 20 0.333008 62 1c26 0 42.333 -8 49 -24c-0.666992 -14.667 -3.33398 -39.334 -8.00098 -74.001c-4.66699 -32 -7 -56.667 -7 -74c0 -21.333 2.33301 -40.666 7 -57.999c24 29.333 51 44 81 44z" />
    <glyph glyph-name="i" unicode="i" horiz-adv-x="178" 
d="M144 554c-16 -5.33301 -33.668 -8 -53.001 -8h-57c1.33301 8 1.33301 19 0 33c-0.666992 18.667 -1 30 -1 34c0 20.667 4.66699 35 14 43c4 1.33301 8.33301 2 13 2c6.66699 0 17.334 -1.83301 32.001 -5.5s26.334 -5.5 35.001 -5.5c5.33301 0 10.666 0.666992 15.999 2
c5.33301 -8.66699 8 -18.667 8 -30c0 -6.66699 -1.33301 -17.167 -4 -31.5s-3.66699 -25.5 -3 -33.5zM149.999 128c-4.66699 -10 -7 -23.665 -7 -40.998c0 -5.33301 0.333008 -13.666 1 -24.999v-25c0 -30.667 -10 -49.334 -30 -56.001h-45
c-18.667 -0.666992 -33 1.66602 -43 6.99902c5.33301 6.66699 8 15 8 25c0 10.667 -2.66699 19.334 -8 26.001c5.33301 58.667 8 129 8 211c-0.666992 147.333 -1 216.333 -1 207c35.333 6 58.333 9 69 9c26.667 0 42.667 -8 48 -24c-8 -13.333 -9.16699 -33.833 -3.5 -61.5
s4.5 -48.834 -3.5 -63.501c8 -12 9.16699 -30 3.5 -54s-4.5 -41.667 3.5 -53c1.33301 -3.33301 2 -6.66602 2 -9.99902c0 -4.66699 -1.5 -10.334 -4.5 -17.001s-4.5 -11.667 -4.5 -15c0 -4 2 -7.66699 6 -11c-4 -2 -6 -4.66699 -6 -8c0 -2 1.33301 -5.33301 4 -10
s3.66699 -8.33398 3 -11.001z" />
    <glyph glyph-name="j" unicode="j" horiz-adv-x="198" 
d="M158 525h1c-11.333 8.66699 -28.5 10.167 -51.5 4.5s-40.167 -4.5 -51.5 3.5c-6 20.667 -9 40 -9 58c0 22.667 5.33301 38 16 46h96c5.33301 -16 8 -34.333 8 -55c0 -21.333 -3 -40.333 -9 -57zM167 423c-5.33301 -49.333 -8 -112.332 -8 -188.999
c0.666992 -136.667 1 -200.334 1 -191.001v-21c0 -8.66699 -3 -14.667 -9 -18c8 -4.66699 9.83301 -13 5.5 -25s-3.5 -20.333 2.5 -25c-14 -56 -33.333 -95.333 -58 -118l-95 -14c-4.66699 9.33301 -7 23.333 -7 42c0.666992 32.667 1 48 1 46c17.333 1.33301 29 9 35 23
c4 8 6.5 22.333 7.5 43s3.5 35 7.5 43v208c0 86.667 -2.66699 157 -8 211c8.66699 6.66699 22.667 9.66699 42 9c22 0 37.333 1.66699 46 5c26.667 4 40 -2 40 -18c0 -3.33301 -1 -7 -3 -11z" />
    <glyph glyph-name="k" unicode="k" horiz-adv-x="334" 
d="M173 588l0.000976562 -1.00293c-12.667 -23.333 -20 -56.666 -22 -99.999c-2.66699 -54 -5.66699 -87 -9 -99c-8 -34 -27 -58.333 -57 -73l-12 -29c-6.66699 -11.333 -13.667 -17 -21 -17c-6 0 -12.333 3 -19 9c-3.33301 124.667 4 237.334 22 338.001v47
c0 21.333 2.66699 38 8 50c5.33301 4.66699 12.666 7 21.999 7c8.66699 0 16 -2.33301 22 -7h32c16 0 27.333 -2.66699 34 -8c-0.666992 -3.33301 -1 -6.66602 -1 -9.99902c0 -10 5 -23.5 15 -40.5s15 -29.167 15 -36.5c0 -12 -9.66699 -22 -29 -30zM311.001 471.997
l0.995117 0.000976562c3.33301 -16.667 -3.66699 -33.667 -21 -51c-20 -20 -30.333 -34.667 -31 -44c-9.33301 -14 -14 -32.333 -14 -55v-16v-16c0 -26 -7.33301 -46 -22 -60c17.333 -16.667 28.333 -39 33 -67c2.66699 -15.333 3.66699 -42 3 -80
c-17.333 -10.667 -26 -24.334 -26 -41.001c0 -11.333 4.33301 -22 13 -32c-3.33301 0 -10.166 -2.16699 -20.499 -6.5s-18.166 -6.5 -23.499 -6.5c-11.333 0 -19.666 6.33301 -24.999 19c4 52.667 -2.66699 99 -20 139c-8.66699 -17.333 -13.667 -41.333 -15 -72v-74
c-1.33301 -20 -4 -37 -8 -51l-110 15l23 241c12.667 2.66699 29 14.667 49 36c16.667 18 34.334 25.667 53.001 23l15 15c-10.667 10.667 -16 22 -16 34s6.33301 27.333 19 46c14.667 21.333 23 36.333 25 45c5.33301 21.333 9.33301 35.333 12 42
c6.66699 15.333 15.334 26 26.001 32c4 -0.666992 14.667 -4 32 -10c13.333 -4 24.666 -6 33.999 -6c4.66699 0 9.33398 0.333008 14.001 1z" />
    <glyph glyph-name="l" unicode="l" horiz-adv-x="176" 
d="M151 2h0.998047c-2.66699 -14.667 -18 -24.334 -46 -29.001l-6 8c-2 -5.33301 -6.33301 -8 -13 -8h-17l-8 8c-2 -4.66699 -9.33301 -7.66699 -22 -9c-5.33301 46.667 -7.66602 105.667 -6.99902 177v179c-1.33301 41.333 -3.66602 77.333 -6.99902 108
c4.66699 6.66699 5.5 19.334 2.5 38.001s-1.5 32.334 4.5 41.001c-5.33301 8.66699 -8 19.667 -8 33s3 24.666 9 33.999c-0.666992 3.33301 -0.666992 15.333 0 36c0 16.667 -2.66699 28.667 -8 36c0 21.333 11 32 33 32c4 0 9.83301 -0.333008 17.5 -1s13.167 -1 16.5 -1
c12.667 0 21.667 2.66699 27 8c12.667 -4 23 -14 31 -30c-5.33301 -107.333 -8 -216.333 -8 -327c0 -110 2.66699 -221 8 -333z" />
    <glyph glyph-name="m" unicode="m" horiz-adv-x="495" 
d="M471 309h0.995117c-3.33301 0.666992 -6.33301 1 -9 1c-6 0 -13.333 -2 -22 -6c-10 -6 -16.667 -9.33301 -20 -10c-0.666992 -2 1.33301 -7 6 -15c2.66699 4.66699 10.334 7 23.001 7l14 -15v-249c-3.33301 -2.66699 -7 -4 -11 -4s-10.667 2.33301 -20 7
s-16.666 7 -21.999 7c-4 0 -7.66699 -0.666992 -11 -2c-4 -16.667 -17 -24.334 -39 -23.001c-5.33301 28 -8 64.333 -8 109c0.666992 78.667 1 115.667 1 111l23 15c-10 18.667 -15 30.667 -15 36c0 6 2.33301 11.333 7 16c-5.33301 8.66699 -8 21.667 -8 39
c0 6.66699 0.5 17.167 1.5 31.5s1.5 24.833 1.5 31.5c0 35.333 -15.333 52.666 -46 51.999c-9.33301 -17.333 -14.666 -41.666 -15.999 -72.999v-76c-0.666992 -16.667 -3 -31.334 -7 -44.001c-3.33301 1.33301 -6.66602 2 -9.99902 2c-6.66699 0 -18 -7.33301 -34 -22
l37 -15c-1.33301 -10 -2 -20.333 -2 -31c0 -16.667 1.83301 -40.167 5.5 -70.5s5.5 -53.5 5.5 -69.5c0 -12 -0.666992 -23.667 -2 -35c-12 -4.66699 -41 -7 -87 -7c1.33301 4.66699 2 9.33398 2 14.001c0 16.667 -10.667 34.334 -32 53.001c4 7.33301 6 16 6 26
c0 5.33301 -0.666992 13.5 -2 24.5s-2 19.167 -2 24.5c0 18 6.66699 32 20 42l-8 227c-17.333 2 -26.5 11 -27.5 27s-1.83301 32 -2.5 48c16.667 18 37.667 27 63 27c26 0 47 -9 63 -27c-2 -7.33301 2.66699 -17.333 14 -30l41 40c18.667 15.333 37.334 21.333 56.001 18
c4 0.666992 7.66699 1 11 1c24.667 0 45 -20 61 -60v-153zM149.995 470l-0.999023 1.00098c-10 -30.667 -15 -66.667 -15 -108c0 -18.667 1.33301 -47 4 -85s4 -66.333 4 -85c0 -40 -4.66699 -75 -14 -105c-5.33301 3.33301 -11.333 5 -18 5
c-10 0 -22.833 -3.83301 -38.5 -11.5s-25.5 -11.5 -29.5 -11.5c-8.66699 0 -12 10.667 -10 32v126c-5.33301 37.333 -8 76.666 -8 117.999c0 44 3 85.333 9 124c-5.33301 4 -8 10.667 -8 20c0 10 2.33301 17.667 7 23c4.66699 -0.666992 9.66699 -1 15 -1
c8 0 19.167 1 33.5 3s24.5 3 30.5 3c9.33301 0 17.333 -1.33301 24 -4v-23c-0.666992 -10 1.66602 -17 6.99902 -21h8zM133.996 60.001l-0.000976562 -15.999c0 -6.66699 -2.66699 -11 -8 -13c5.33301 -2.66699 8 -5.66699 8 -9c0 -2 -1.33301 -5.33301 -4 -10
s-3.66699 -8.33398 -3 -11.001c-17.333 0 -34.666 0.333008 -51.999 1c-20 1.33301 -34.333 8.66602 -43 21.999c-3.33301 12.667 3 22 19 28c25.333 9.33301 38.333 14.333 39 15h24c9.33301 0.666992 16 -1.66602 20 -6.99902z" />
    <glyph glyph-name="n" unicode="n" horiz-adv-x="325" 
d="M302 186l-8 -176.995c-7.33301 -6 -18.666 -8 -33.999 -6c-16.667 2 -27.334 2 -32.001 0l-5 7c-3.33301 -5.33301 -6.66602 -8 -9.99902 -8c-2 0 -5.33301 1.66699 -10 5s-8.66699 5 -12 5c-2.66699 0 -5 -0.666992 -7 -2l-7 169l22 15l-21 14
c0.666992 -4.66699 1 35.333 1 120c0 47.333 -8.33301 85.666 -25 114.999c-15.333 -20.667 -23.833 -47.5 -25.5 -80.5s-2.5 -65.167 -2.5 -96.5l-8 -7c4 -1.33301 6.66699 -8.33301 8 -21l-8 -8c3.33301 -2 6 -9 8 -21l-1 -81c-5.33301 -8.66699 -8 -18.334 -8 -29.001
c0 -6.66699 1.5 -16.834 4.5 -30.501s4.5 -23.834 4.5 -30.501c0 -10 -2.66699 -19.333 -8 -28h-42c-20.667 0 -35.667 2.66699 -45 8c-3.33301 10 -5 20.333 -5 31c0 12.667 3.16699 30.167 9.5 52.5s9.5 38.5 9.5 48.5c0 19.333 -7.66699 36.333 -23 51
c16 30 24 64 24 102c0 7.33301 -0.333008 15 -1 23c13.333 0 22 8.33301 26 25c6.66699 25.333 10.334 38.666 11.001 39.999l-16 96c12.667 6 24.667 9 36 9c15.333 0 25.666 -5.33301 30.999 -16v-20c-0.666992 -8 1.66602 -13.667 6.99902 -17c18 23.333 43 41 75 53
c14 -4.66699 28 -9 42 -13c15.333 -7.33301 25 -18 29 -32v-101c0 -36.667 3 -69 9 -97l-1 -32c0 -16 2.66699 -27.667 8 -35z" />
    <glyph glyph-name="o" unicode="o" horiz-adv-x="347" 
d="M278 484c30.667 -47.333 45.999 -106.332 45.999 -176.999c0 -88 -20.667 -166.333 -62 -235c-1.33301 0.666992 -14 4.33398 -38 11.001c-14.667 3.33301 -21.667 11.666 -21 24.999c-1.33301 -4 -4.33301 -6.16699 -9 -6.5s-9 -0.833008 -13 -1.5
c8 35.333 14.333 81.666 19 138.999c3.33301 47.333 7 94.666 11 141.999c-5.33301 4 -7.66602 14.333 -6.99902 31c0.666992 14.667 -4.33301 24 -15 28l-15 -15l-15 36c-16 -50 -24 -110 -24 -180c0 -62 6 -126.667 18 -194
c-7.33301 -3.33301 -16.333 -13.666 -27 -30.999c-8.66699 -14 -19.334 -20.667 -32.001 -20c-46.667 58 -70 135.667 -70 233c0 78 16 144.667 48 200c30.667 30.667 70.334 46 119.001 46c35.333 0 64.333 -10.333 87 -31zM212.999 -28.999
c-6 -6 -8.33398 -10.667 -7.00098 -14c-6 2.66699 -16 4.66699 -30 6s-24 4 -30 8c-0.666992 4 -1 7.66699 -1 11c0 14.667 8 28 24 40c12.667 1.33301 21.334 -5 26.001 -19c6 -17.333 12 -28 18 -32z" />
    <glyph glyph-name="p" unicode="p" horiz-adv-x="373" 
d="M347 240l-0.996094 1.00195c1.33301 -12.667 2 -26 2 -40c0 -67.333 -15 -128 -45 -182c-10 -6 -22.5 -10.333 -37.5 -13s-29.5 -5 -43.5 -7l-14 13l-8 -8c-8.66699 3.33301 -15 12 -19 26c-7.33301 22.667 -11.333 31 -12 25s-3.33398 -26.333 -8.00098 -61
c-4 -26.667 -6 -48.334 -6 -65.001c0 -11.333 0.666992 -22.333 2 -33l-8 -7c6 -7.33301 8.66699 -12.333 8 -15h-54c-25.333 -0.666992 -44.666 1.66602 -57.999 6.99902c-0.666992 45.333 1.66602 110.666 6.99902 195.999
c0.666992 12.667 -1.66602 20.334 -6.99902 23.001l8 8c-5.33301 2 -8 6.33301 -8 13v16l8 7c-6 8 -9 12.667 -9 14c6 8.66699 16.333 10 31 4c12 -6 19.333 -2.33301 22 11c-10.667 -2 -23.334 3.66699 -38.001 17s-26.334 20 -35.001 20c5.33301 44 8 97.333 8 160
c-0.666992 112.667 -1 165 -1 157c8 5.33301 24.667 8 50 8c38 -0.666992 55.667 -1 53 -1l22 -45l37 30l14 -15c5.33301 14.667 11.666 22 18.999 22c4 0 12.667 -4.33301 26 -13c11.333 -8 20.666 -10.667 27.999 -8c30.667 -30.667 46 -70.334 46 -119.001
c0 -9.33301 -0.666992 -18.666 -2 -27.999c18 -41.333 27 -72.333 27 -93c0 -8.66699 -1.33301 -17 -4 -25zM250.004 351.002l-7.00195 -0.00195312c-6 2.66699 -8.33301 10 -7 22h-8v-22h8c-2 -4 -9.66699 -6.66699 -23 -8c0.666992 13.333 -2.5 31.833 -9.5 55.5
s-10.5 41.167 -10.5 52.5s2.33301 22 7 32c-22 -16 -36.667 -38 -44 -66c-4.66699 -16.667 -7.16699 -43.667 -7.5 -81s-2.83301 -64.333 -7.5 -81c4.66699 -15.333 7 -34 7 -56s-2.66699 -50 -8 -84c13.333 2 22 -3.66699 26 -17
c6.66699 -21.333 10.334 -32.333 11.001 -33l14 15c13.333 -1.33301 22 5.33398 26 20.001c6.66699 24.667 10.334 37.334 11.001 38.001c-6.66699 11.333 -7.83398 28.333 -3.50098 51s2.83301 40.334 -4.5 53.001c0.666992 19.333 1 38.333 1 57
c2.66699 25.333 12.334 42.666 29.001 51.999z" />
    <glyph glyph-name="q" unicode="q" horiz-adv-x="343" 
d="M320 499l0.00195312 0.999023c-4.66699 -21.333 -7 -53.666 -7 -96.999s-2 -75.333 -6 -96c-13.333 0 -21.333 -2.33301 -24 -7c20.667 0 31 -10.333 31 -31c0 -2.66699 -0.666992 -11 -2 -25c-1.33301 -10 -1.33301 -17.667 0 -23c-7.33301 -28 -11 -43 -11 -45
c0 -10 3.66699 -17 11 -21c0 -13.333 -1.66699 -21 -5 -23c0 4.66699 -0.666992 -7 -2 -35c0 -17.333 2.33301 -30 7 -38l-6 -7l6 -8l-6 -7l6 -183h-109c-6 18.667 -8.5 47 -7.5 85s-1.16699 65.667 -6.5 83c-3.33301 1.33301 -6.33301 2 -9 2c-4 0 -8 -3 -12 -9
c-4.66699 -8 -8 -12.667 -10 -14c-12 -4.66699 -22.333 -7 -31 -7c-15.333 0 -28.333 11.333 -39 34c-12 26 -25 41.333 -39 46c-16.667 99.333 -25 173 -25 221c0 108.667 30 186.667 90 234c9.33301 4 20.333 6 33 6c38.667 0 62 -12 70 -36l30 -29
c4 10 7.66699 19.667 11 29c5.33301 12 13.666 17 24.999 15h24c9.33301 -0.666992 13.666 -5.66699 12.999 -15zM189.002 481.999c-1.33301 -8 -4 -13.667 -8 -17c5.33301 2 8 7.66699 8 17zM204.002 287.999c-5.33301 12 -8 26.6699 -8 44.0029
c0 8.66699 0.833008 21.334 2.5 38.001s2.5 29 2.5 37c0 24 -6.33301 43 -19 57l-8 -8l-8 8c-10.667 -32.667 -16 -76.334 -16 -131.001c0 -111.333 0.333008 -160.666 1 -147.999c-1.33301 -4 -2 -8.33301 -2 -13c0 -6 1.33301 -15.833 4 -29.5s4 -23.834 4 -30.501
c0 -8.66699 -1.66699 -16.334 -5 -23.001c-12 0 -19.333 2.33301 -22 7l-16 -21c30 4.66699 42 7 36 7c11.333 0 19 -5 23 -15c15.333 21.333 23 54.666 23 99.999v25.5v25.5c0 29.333 2.66699 52.666 8 69.999z" />
    <glyph glyph-name="r" unicode="r" horiz-adv-x="279" 
d="M258 376c-40.667 6 -67.668 8.66992 -81.001 8.00293c-19.333 -11.333 -30.666 -33.333 -33.999 -66c-6.66699 -54 -10 -81.333 -10 -82l-7 8l-16 -14c2.66699 -4.66699 10.334 -7 23.001 -7c5.33301 -12.667 8 -27.334 8 -44.001c0 -17.333 -2.66699 -32 -8 -44l-37 -26
c-12.667 -8.66699 -25.667 -13 -39 -13c-6 0 -12.667 0.666992 -20 2v41c0 17.333 -2.66699 30.666 -8 39.999l38 21c-2.66699 5.33301 -10.334 8 -23.001 8l-21 271c20 10.667 42 13 66 7c3.33301 5.33301 9 8 17 8h19c10 -4.66699 15 -11 15 -19
c0 -3.33301 -1.16699 -8.33301 -3.5 -15s-3.5 -11.334 -3.5 -14.001c0 -8 4.66699 -14.333 14 -19l45 55c20 20.667 42 29.667 66 27v-133zM124.999 75.0029c6 -18 9 -34.999 9 -50.999c0 -18.667 -5 -33 -15 -43c-7.33301 1.33301 -13.333 8.5 -18 21.5s-11 20.5 -19 22.5
c-3.33301 -8 -7 -15.667 -11 -23c-4 -8.66699 -10.333 -13.334 -19 -14.001c-5.33301 5.33301 -8 13 -8 23v27c2.66699 -0.666992 5.33398 -1 8.00098 -1c9.33301 0 20.166 6.5 32.499 19.5s22.833 19.5 31.5 19.5c2.66699 0 5.66699 -0.333008 9 -1z" />
    <glyph glyph-name="s" unicode="s" horiz-adv-x="317" 
d="M290 158l1 -0.000976562c0.666992 -7.33301 1 -14.666 1 -21.999c0 -36 -10.667 -72.667 -32 -110c-2.66699 1.33301 -5.33398 2 -8.00098 2c-4.66699 0 -8.66699 -3 -12 -9c-4.66699 -8 -7.66699 -12.667 -9 -14c-22.667 -13.333 -46.667 -18.333 -72 -15
c-4 -2 -8.33301 -3 -13 -3c-6.66699 0 -17.5 4.16699 -32.5 12.5s-27.167 11.833 -36.5 10.5c-2.66699 7.33301 -14.334 24.666 -35.001 51.999c-13.333 18.667 -19 38 -17 58c9.33301 0.666992 22.333 5.33398 39 14.001s30 13 40 13c5.33301 0 11 -1 17 -3
c-0.666992 -4.66699 -1 -9 -1 -13c0 -18.667 10 -41 30 -67c2 1.33301 11 4 27 8c11.333 3.33301 17.333 10 18 20c2.66699 45.333 -7.33301 72.333 -30 81l-14 15c-2 -5.33301 -5 -8 -9 -8c-2 0 -5.33301 1.33301 -10 4s-8.33398 4 -11.001 4
c34.667 28.667 52 46.667 52 54c0 3.33301 -3 5 -9 5c-4.66699 0 -16.5 -2.33301 -35.5 -7s-31.833 -7 -38.5 -7c-7.33301 0 -11.666 1.66699 -12.999 5c-24.667 23.333 -37 60.666 -37 111.999c0 23.333 2.66699 47 8 71c10.667 24.667 37.334 47 80.001 67
c22 -2.66699 54 -9.66699 96 -21c30.667 -30.667 46 -64 46 -100c0 -8 -0.666992 -16.333 -2 -25l-66 -8c-1.33301 2 -7.33301 19.333 -18 52c-6.66699 20.667 -17.667 32.667 -33 36c-12.667 -15.333 -19 -32.666 -19 -51.999c0 -14 3.66699 -28.333 11 -43
c17.333 -11.333 27 -18 29 -20c8.66699 -8.66699 13.334 -19 14.001 -31c7.33301 -14 28 -31.333 62 -52c27.333 -16.667 41.333 -38.667 42 -66z" />
    <glyph glyph-name="t" unicode="t" horiz-adv-x="283" 
d="M265 457l-0.00390625 -1.00488c-6 -38 -8.66699 -64.333 -8 -79c-6 -2 -13.667 -2 -23 0c-12 2.66699 -19 4 -21 4c-5.33301 0 -9.66602 -1.66699 -12.999 -5c-7.33301 5.33301 -12.333 7.66602 -15 6.99902c-7.33301 -4 -11 -10 -11 -18
c0 -3.33301 1 -9.16602 3 -17.499s3 -14.5 3 -18.5c0 -5.33301 -1.5 -13.666 -4.5 -24.999s-4.5 -20.666 -4.5 -27.999c0 -8.66699 1.16699 -22.334 3.5 -41.001s3.5 -32.667 3.5 -42c-4.66699 -18 -7 -36.333 -7 -55c0 -22.667 4.66699 -53.334 14 -92.001
c2 -0.666992 4 -1 6 -1c4.66699 0 10.334 3 17.001 9s12.334 9 17.001 9c3.33301 0 7 -1 11 -3c10 -39.333 15 -64.666 15 -75.999c0 -5.33301 -0.333008 -11 -1 -17c-18 -3.33301 -30.333 3.33398 -37 20.001c1.33301 4.66699 -1 9.66699 -7 15l-21 -20
c19.333 -4 26.333 -19.333 21 -46c-2 -5.33301 -6.33301 -8 -13 -8c-11.333 0.666992 -16.666 1 -15.999 1l-15 30l-7 -8c-4.66699 14 -10.667 21 -18 21c-4 0 -11.167 -3 -21.5 -9s-18.833 -9 -25.5 -9c-5.33301 0 -10.666 1.66699 -15.999 5c0 8 -0.5 16.333 -1.5 25
s-5.16699 14.334 -12.5 17.001c0.666992 20.667 4 75 10 163c4 66.667 6 120.667 6 162c0 17.333 -0.333008 34.333 -1 51c-3.33301 5.33301 -6.66602 8 -9.99902 8c-2.66699 0 -6.83398 -2.66699 -12.501 -8s-10.5 -7.66602 -14.5 -6.99902c0 6.66699 -2.5 17.5 -7.5 32.5
s-7.5 25.833 -7.5 32.5c0 11.333 4.66699 21 14 29l23 -7c10 12.667 15 34.667 15 66c0 6 -0.333008 15.5 -1 28.5s-1 22.5 -1 28.5c0 51.333 17 77 51 77c12.667 0 28 -3 46 -9l22 -7c1.33301 -8.66699 2 -17.667 2 -27c0 -12.667 -1.5 -31.167 -4.5 -55.5
s-4.5 -42.166 -4.5 -53.499c0 -18 2.33301 -34.333 7 -49c5.33301 0 13.833 2.5 25.5 7.5s20.167 7.5 25.5 7.5c9.33301 0 16.666 -4.66699 21.999 -14zM191.996 388.995v23l-7 7z" />
    <glyph glyph-name="u" unicode="u" horiz-adv-x="358" 
d="M334 107l-0.999023 0.00488281c-4.66699 -12.667 -7 -33 -7 -61v-12.5v-12.5c0 -28 -2.66699 -48.333 -8 -61c-8 -18 -23 -27 -45 -27c-10 0 -21.667 2 -35 6c-14.667 -4.66699 -22 3.66602 -22 24.999c0 4 0.333008 7.66699 1 11v16c0 6 -2.66699 10.333 -8 13
c-2 -4.66699 -5 -7 -9 -7c-2 0 -5.16699 1.16699 -9.5 3.5s-7.83301 3.16602 -10.5 2.49902c-11.333 -0.666992 -27.333 -4.83398 -48 -12.501s-37.334 -11.5 -50.001 -11.5c-6.66699 0 -13.667 1 -21 3c-14.667 15.333 -23.667 38.666 -27 69.999
c0 25.333 -0.333008 50.666 -1 75.999l-8 331c11.333 4.66699 28.666 7 51.999 7s40.666 2.33301 51.999 7l14 -14c-5.33301 -46.667 -7.66602 -109.667 -6.99902 -189v-178c4.66699 -4.66699 7 -10.334 7 -17.001c0 -3.33301 -0.833008 -8.5 -2.5 -15.5
s-2.5 -12.167 -2.5 -15.5c0 -4.66699 1.33301 -8.33398 4 -11.001c6 -1.33301 14 0.833984 24 6.50098s17 8.5 21 8.5c4.66699 0 9.33398 -2.33301 14.001 -7l16 14v149c0 59.333 -2.66699 107.333 -8 144l-1 97c22 5.33301 41.667 8 59 8s37 -2.66699 59 -8
c-4.66699 -20 -7 -42 -7 -66c0 -17.333 1.66699 -43.5 5 -78.5s5 -61.5 5 -79.5c0 -14.667 -0.666992 -28.667 -2 -42c-4.66699 1.33301 -10 -1 -16 -7c16 -5.33301 24 -18.666 24 -39.999c0 -3.33301 -0.333008 -7 -1 -11l-8 -7z" />
    <glyph glyph-name="v" unicode="v" horiz-adv-x="314" 
d="M290 486c-20 -54.667 -40.665 -132.665 -61.998 -233.998c-24 -112.667 -42.667 -191 -56 -235c-23.333 3.33301 -47 6.33301 -71 9c-28.667 4.66699 -43 17.667 -43 39c0 7.33301 1 15.333 3 24s3 17 3 25c0 10.667 -1.66699 26 -5 46s-5 34.667 -5 44
c0 14.667 2.66699 28 8 40c-26 123.333 -38.333 216.333 -37 279h104l21 -220c12.667 17.333 21 51.666 25 102.999c4 47.333 15.333 79.333 34 96h20c8 0 13.333 -2.66699 16 -8c4 4.66699 8.33301 7 13 7c3.33301 0 8.66602 -2.33301 15.999 -7
s12.666 -7.33398 15.999 -8.00098zM136.002 273.002l1 -0.000976562c-4.66699 0.666992 -10 -2.66602 -16 -9.99902s-11.667 -12.333 -17 -15c3.33301 -0.666992 6 -1 8 -1c8 0 16 8.66699 24 26z" />
    <glyph glyph-name="w" unicode="w" horiz-adv-x="442" 
d="M297 354l-8.99805 -9.00195c-3.33301 -3.33301 -4.33301 -6.66602 -3 -9.99902c-8.66699 -1.33301 -16.334 2 -23.001 10s-12.334 12 -17.001 12c-3.33301 0 -7.33301 -1 -12 -3c-4 7.33301 -15 8.16602 -33 2.49902s-28.333 -0.5 -31 15.5c2.66699 8 5 35 7 81
c1.33301 32.667 9.66602 55.334 24.999 68.001c7.33301 -9.33301 20.333 -13.666 39 -12.999h44c0.666992 -10 3.33398 -31.333 8.00098 -64c4 -26.667 6 -48.667 6 -66c0 -8 -0.333008 -16 -1 -24zM432.002 507.998l0.999023 0.996094c-10 -100.667 -29.333 -195 -58 -283
c-1.33301 0.666992 -7.33301 0.666992 -18 0c-7.33301 0 -12.333 2 -15 6c-8.66699 -3.33301 -13 -7.66602 -13 -12.999c0 -3.33301 2.16699 -8.66602 6.5 -15.999s6.5 -12.666 6.5 -15.999c2.66699 4.66699 6.66699 7 12 7c1.33301 0 8.66602 -2.33301 21.999 -7
c1.33301 -29.333 -3.66699 -52.666 -15 -69.999c0.666992 -5.33301 1 -11.333 1 -18c0 -11.333 -1.66699 -27.666 -5 -48.999c-4.66699 -24 -7.33398 -40.333 -8.00098 -49c-14.667 -4 -31 -6 -49 -6s-33.667 2 -47 6c-7.33301 22.667 -13 54.667 -17 96l-10 104
c4 -1.33301 7.66699 -0.333008 11 3l9 9c-10.667 -0.666992 -16.834 5.5 -18.501 18.5s-6.5 19.5 -14.5 19.5c-15.333 -16.667 -23.666 -48.334 -24.999 -95.001c-2 -62.667 -4 -98.667 -6 -108c-7.33301 -33.333 -27.333 -50 -60 -50c-14 0 -30.667 2.66699 -50 8
c-11.333 50 -18.833 124.333 -22.5 223s-10.834 172.334 -21.501 221.001c-4.66699 3.33301 -7 7.33301 -7 12c0 1.33301 2 8.33301 6 21c9.33301 4.66699 20 7 32 7c12.667 0 23.334 -2.33301 32.001 -7c3.33301 4.66699 7.33301 7 12 7c-1.33301 0 5.33398 -2 20.001 -6
c8.66699 -16.667 13.334 -44.667 14.001 -84s4.66699 -65.666 12 -78.999c5.33301 2.66699 7.33301 9 6 19l77 -8c31.333 -3.33301 55.333 -11 72 -23c0 -14.667 0.333008 -23.834 1 -27.501s4.33398 -7.16699 11.001 -10.5l10 122c4 47.333 11.667 85.666 23 114.999h83z
" />
    <glyph glyph-name="x" unicode="x" horiz-adv-x="354" 
d="M336 455h1.00098c-4 -22 -20 -58.667 -48 -110c-26 -46.667 -39 -83.334 -39 -110.001c0 -29.333 11.667 -57 35 -83c0 -20.667 4 -44.667 12 -72c12.667 -45.333 19 -68.333 19 -69c-28.667 -6 -54.334 -4 -77.001 6c-2.66699 -4.66699 -5.33398 -7 -8.00098 -7
c-1.33301 0 -3.83301 1.5 -7.5 4.5s-6.83398 4.5 -9.50098 4.5c-2 0 -4 -0.666992 -6 -2c-6.66699 12 -12.334 31.333 -17.001 58s-10 45.667 -16 57c-17.333 -28 -26.666 -43.667 -27.999 -47c-10.667 -18 -18.334 -34.333 -23.001 -49c0.666992 -2 1 -4 1 -6
c0 -3.33301 -1.5 -7.66602 -4.5 -12.999s-4.5 -9.66602 -4.5 -12.999c0 -2 0.666992 -4 2 -6c-42 5.33301 -72 7 -90 5c0 11.333 -2.66699 18 -8 20c11.333 18.667 30 56.334 56 113.001c22.667 48 43.334 85.333 62.001 112c-3.33301 10.667 -13.333 51 -30 121
c-11.333 48.667 -23.333 87.667 -36 117c9.33301 4.66699 19 7 29 7c7.33301 0 18.333 -1.5 33 -4.5s26.334 -4.5 35.001 -4.5c6.66699 0 13 0.666992 19 2c2.66699 -6.66699 6 -23.334 10 -50.001c3.33301 -20.667 8.66602 -36.334 15.999 -47.001
c10.667 6 20.334 22 29.001 48c7.33301 22.667 17 34 29 34c8 0 18.333 -3.66699 31 -11c2 2.66699 4.33301 4 7 4c3.33301 0 7.83301 -1.5 13.5 -4.5s9.83398 -4.5 12.501 -4.5z" />
    <glyph glyph-name="y" unicode="y" horiz-adv-x="334" 
d="M311 474l1.00293 1.00293c-0.666992 -3.33301 -13.667 -53 -39 -149c-16 -60.667 -27.333 -111.667 -34 -153c-8.66699 -16.667 -16.834 -43.5 -24.501 -80.5s-16.167 -63.833 -25.5 -80.5c2.66699 -26 -2.83301 -51.5 -16.5 -76.5s-31.5 -44.167 -53.5 -57.5
c-2.66699 1.33301 -5.33398 2 -8.00098 2c-4 0 -10.5 -1.5 -19.5 -4.5s-15.833 -4.5 -20.5 -4.5c-6 0 -11.333 2 -16 6c-26.667 0 -46 2.33301 -58 7c-5.33301 20.667 -8 37.334 -8 50.001c0 20.667 6.33301 31.667 19 33c14 -5.33301 26.333 -8 37 -8
c14.667 0 28.334 4.66699 41.001 14c0.666992 3.33301 3.16699 8.16602 7.5 14.499s6.5 10.833 6.5 13.5c0 3.33301 -2.33301 6.66602 -7 9.99902c0 16.667 0.333008 33.667 1 51c-0.666992 22.667 -3.33398 40.334 -8.00098 53.001c0.666992 1.33301 3 7.33301 7 18
c2.66699 7.33301 4 13.333 4 18c0 9.33301 -5.66699 16.666 -17 21.999c0 19.333 -4.16699 45.5 -12.5 78.5s-12.833 58.167 -13.5 75.5c0 13.333 0.333008 26.666 1 39.999c0 19.333 -2.33301 33.666 -7 42.999c-0.666992 6.66699 -3.33398 19 -8.00098 37
c-4 16 -6 28 -6 36c0 10 2.33301 18 7 24h96c4 -14.667 13 -66 27 -154c-0.666992 -2.66699 -1 -5.66699 -1 -9c0 -6.66699 1.66699 -16 5 -28c4.66699 -14 7.33398 -23.333 8.00098 -28c10 22 18.333 55 25 99c7.33301 48.667 14 82 20 100c3.33301 -1.33301 7 -2 11 -2
c5.33301 0 13.333 1.33301 24 4s18.667 4 24 4c13.333 0 23.666 -6.33301 30.999 -19z" />
    <glyph glyph-name="z" unicode="z" horiz-adv-x="359" 
d="M335 454c-0.666992 -14 -0.999023 -28.0039 -0.999023 -42.0039c-2.66699 -15.333 -9 -27 -19 -35c0 -15.333 -4 -33 -12 -53l-20 -50c-10.667 0 -17 2 -19 6l-5 -6c-3.33301 6 -10 12 -20 18c-14.667 7.33301 -23.334 12 -26.001 14c-2 -4 -9 -6 -21 -6
c-4.66699 3.33301 -6.66699 9 -6 17c0.666992 12.667 1 19.334 1 20.001c12.667 12.667 19 23.334 19 32.001c0 6.66699 -4.33301 11.334 -13 14.001c-3.33301 1.33301 -7.33301 2 -12 2s-12.5 -1.5 -23.5 -4.5s-19.5 -4.5 -25.5 -4.5c-8 0 -15.333 2.33301 -22 7
c-2.66699 -4.66699 -6.33398 -7 -11.001 -7c4.66699 0 -2.33301 2 -21 6c-4.66699 37.333 -7 57 -7 59c0 12.667 2 23.334 6 32.001c23.333 -9.33301 55 -14 95 -14c9.33301 0 28 0.666992 56 2c21.333 0.666992 38 0.666992 50 0c3.33301 -1.33301 7 -2 11 -2
s9.16699 1 15.5 3s10.833 3 13.5 3c6.66699 0 12.334 -3.66699 17.001 -11zM296.001 -28.0039l1.00098 -0.00195312c5.33301 0.666992 -2.66699 1 -24 1c-10 0.666992 -17.333 -1.66602 -22 -6.99902c-3.33301 7.33301 -7 11 -11 11c-2.66699 0 -6 -1.66699 -10 -5
c-6 -3.33301 -9.66699 -5.33301 -11 -6c-63.333 10.667 -127.333 11 -192 1c-2 10.667 -3 21.667 -3 33c0 42.667 11.667 86.667 35 132c10.667 0 17 2.33301 19 7c-3.33301 10.667 -5 21.667 -5 33c0 16.667 4.33301 38 13 64c10 32 16 53.333 18 64
c2 0.666992 5.5 3 10.5 7s9.16699 6 12.5 6c2.66699 0 5 -0.333008 7 -1c1.33301 -10 7.66602 -16.333 18.999 -19l27 -4c14.667 1.33301 26 -3.33398 34 -14.001c-3.33301 -19.333 -15 -53.333 -35 -102c-17.333 -42 -26 -76 -26 -102
c0 -7.33301 0.666992 -14.666 2 -21.999c65.333 11.333 112.333 16 141 14c-1.33301 -5.33301 -2 -10.666 -2 -15.999c0 -6 1.5 -14.833 4.5 -26.5s4.5 -20.167 4.5 -25.5c0 -8 -2.33301 -15.667 -7 -23z" />
    <glyph glyph-name="braceleft" unicode="{" horiz-adv-x="205" 
d="M268 750c-19.333 16 -35.332 24 -47.999 24c-20 0 -32.667 -24.333 -38 -73c-2.66699 -49.333 -5.66699 -99 -9 -149c-6.66699 -60.667 -21.334 -101.667 -44.001 -123l-12 -29c-8.66699 -15.333 -23.667 -25.333 -45 -30c-4 -2 -15 -4.66699 -33 -8s-30 -5 -36 -5
c-2.66699 0 -5 2.66699 -7 8s-4.66699 8.33301 -8 9c69.333 18 104 69 104 153c0 18.667 -2 47.167 -6 85.5s-6 65.833 -6 82.5c0 36 7 62.667 21 80c16.667 21.333 45.667 32 87 32c22.667 0 49 -3 79 -9zM267.001 -31l-15 -48.001c-13.333 6 -34.5 11 -63.5 15
s-49.833 9 -62.5 15c-22 9.33301 -39 25 -51 47c-4 15.333 -6 34.666 -6 57.999c0 15.333 1.16699 38.833 3.5 70.5s3.5 54.834 3.5 69.501c0 77.333 -29 122.333 -87 135l67 3c28 1.33301 47.667 -8.66699 59 -30c6.66699 -12 12.5 -35.833 17.5 -71.5
s11.5 -60.5 19.5 -74.5c-11.333 -21.333 -17 -47 -17 -77c0 -32.667 6.66699 -60 20 -82c14 -7.33301 28.833 -14.666 44.5 -21.999s30.5 -11 44.5 -11c8 0 15.667 1 23 3z" />
    <glyph glyph-name="bar" unicode="|" horiz-adv-x="161" 
d="M133 536l-14.001 -12.002c4.66699 -25.333 7 -54.666 7 -87.999c0 -28.667 -2.5 -73.834 -7.5 -135.501s-7.5 -107.5 -7.5 -137.5c0 -57.333 6.66699 -104.666 20 -141.999c-8 -8.66699 -23 -13 -45 -13c-34 0 -51.167 -0.666992 -51.5 -2s-0.5 12.667 -0.5 42
c0 20 5.33301 34.333 16 43c8.66699 0.666992 17.834 1.5 27.501 2.5s16.5 4.83301 20.5 11.5l-48 23c-4.66699 20.667 -7 43 -7 67c0 21.333 2.66699 52.333 8 93s8 70.667 8 90c0 36 -6.33301 68 -19 96c10 24 15 54.667 15 92c0 46.667 -7 84.334 -21 113.001l96 1
c4 -8 6 -16.333 6 -25c0 -10 -3.33301 -24 -10 -42s-10 -31 -10 -39c0 -14 5.66699 -26.667 17 -38z" />
    <glyph glyph-name="braceright" unicode="}" horiz-adv-x="205" 
d="M241 327c-52 -6 -87.998 -54.667 -107.998 -146c-2 -10.667 -3 -23 -3 -37s1.66699 -35.833 5 -65.5s5 -51.5 5 -65.5c0 -54 -22.333 -88.667 -67 -104c-5.33301 1.33301 -11.333 2 -18 2s-17.334 -0.833008 -32.001 -2.5s-25.334 -2.5 -32.001 -2.5c-26 0 -41 11 -45 33
c5.33301 10.667 21.333 16 48 16c4 -8 9.33301 -12 16 -12c6 0 14 4 24 12l23 18c10.667 18.667 16 44.334 16 77.001c0 16 -1.66699 40.667 -5 74s-5 58 -5 74c0 72.667 32.667 115 98 127c-32.667 18.667 -56.334 47 -71.001 85l-28 104c11.333 16 17 24.667 17 26
c0 2 -0.333008 4 -1 6c-4.66699 5.33301 -7 12.333 -7 21c0 2.66699 1.66699 14.667 5 36c2.66699 16 2.33398 29 -0.999023 39c2.66699 1.33301 5.33398 2 8.00098 2c2 0 10.667 -5.33301 26 -16l14 16l-53 51c-24.667 22 -48.334 33 -71.001 33
c-12 0 -24.333 -2.66699 -37 -8v48c24 1.33301 42 2 54 2c76 0 121.667 -25.667 137 -77c0.666992 -20 -0.333008 -49.333 -3 -88c-2.66699 -42.667 -4 -72.667 -4 -90c0 -94.667 31.667 -157.334 95 -188.001z" />
    <glyph glyph-name="asciitilde" unicode="~" horiz-adv-x="474" 
d="M424 799c21.333 -10 31.999 -24.668 31.999 -44.001c0 -17.333 -8 -34.5 -24 -51.5s-34 -27.833 -54 -32.5c-2.66699 -1.33301 -5.33398 -2 -8.00098 -2c-4 0 -12 5.33301 -24 16c-9.33301 -5.33301 -19 -8 -29 -8c-17.333 0 -41.666 10.333 -72.999 31
c-33.333 22.667 -58 35.334 -74 38.001l-143 -35c-2.66699 7.33301 -4 14.666 -4 21.999c0 30.667 16.333 50.334 49 59.001c16.667 8 33.667 12 51 12c28.667 0 67.334 -14.333 116.001 -43s82.667 -43 102 -43c33.333 0 61 27 83 81z" />
    <glyph glyph-name="nonbreakingspace" unicode="&#xa0;" horiz-adv-x="251" 
 />
    <glyph glyph-name="exclamdown" unicode="&#xa1;" horiz-adv-x="204" 
d="M47 99v-1.00098v15c0.666992 6 3.66699 10 9 12c-5.33301 4.66699 -8 9.66699 -8 15c0 4 1.5 9.5 4.5 16.5s4.5 12.167 4.5 15.5s-1 6.33301 -3 9c-2 16 -3 33 -3 51c0 30.667 3.66699 76 11 136c6.66699 62 10.334 107.333 11.001 136c5.33301 2 10.333 1.33301 15 -2
s9 -6.66602 13 -9.99902c0 0.666992 -0.666992 -4.33301 -2 -15c-0.666992 -6 1.33301 -10 6 -12l25 13c11.333 -18 16 -41.333 14 -70c-8.66699 -2.66699 -12.834 -10 -12.501 -22s-2.16699 -19.667 -7.5 -23c2 -5.33301 6 -8 12 -8h14c5.33301 -78.667 12 -194 20 -346
c-8.66699 -6.66699 -21.5 -7.66699 -38.5 -3s-29.833 3 -38.5 -5l-6 8c-12 -10.667 -25 -11 -39 -1c-7.33301 7.33301 -11 17.333 -11 30c0 7.33301 1.5 18 4.5 32s4.83301 23.667 5.5 29zM48 579.999c-5.33301 26.667 -8.00098 49.002 -8.00098 67.002c0 26 5 46.333 15 61
c4.66699 -4 17 -6.33301 37 -7l8 6c6 -4.66699 11.667 -14.334 17 -29.001c6.66699 -18.667 11.334 -30.334 14.001 -35.001c12.667 9.33301 23.667 7.66602 33 -5.00098l-1 -51c-12.667 -1.33301 -27 -1.33301 -43 0c-34 -5.33301 -58 -7.66602 -72 -6.99902z
M100.999 195.001c0.666992 1.33301 1 3 1 5s-0.333008 4 -1 6c1.33301 -4 1.33301 -7.66699 0 -11zM92.999 323.001h13l20 31z" />
    <glyph glyph-name="cent" unicode="&#xa2;" horiz-adv-x="353" 
d="M326 323h1c-4.66699 -10 -15.667 -15 -33 -15h-12c-5.33301 0.666992 -9 1 -11 1c-14.667 0 -25.334 -2.66699 -32.001 -8c-2 10.667 -8.66699 35 -20 73c-8.66699 30 -13 55.667 -13 77c0 8.66699 0.666992 17.667 2 27c6 5.33301 11.667 8 17 8
s13.333 -4.16699 24 -12.5s19.667 -11.833 27 -10.5c26.667 -26 43.334 -72.667 50.001 -140zM181 448c-19.333 -1.33301 -29 -14.666 -29 -39.999v-11.5v-11.5c0 -14.667 -2.33301 -25.334 -7 -32.001c4.66699 -4 7 -8 7 -12c0 -2.66699 -1.5 -7.33398 -4.5 -14.001
s-4.5 -11.667 -4.5 -15c0 -4 1 -7.66699 3 -11c5.33301 -21.333 8 -43.666 8 -66.999c0 -27.333 -3.66699 -59.666 -11 -96.999c-7.33301 -30.667 -14.333 -61.667 -21 -93v-8c-22 4.66699 -39 20 -51 46c-18.667 40.667 -28.667 62 -30 64
c-4 19.333 -6.16699 48.666 -6.5 87.999s-2.5 68.666 -6.5 87.999c-3.33301 58.667 10.667 107.667 42 147l2 191c-0.666992 2.66699 -1 5.33398 -1 8.00098c0 5.33301 2.66699 8 8 8c8.66699 0 22.334 -5.66699 41.001 -17c-0.666992 -32 4.66602 -80.333 15.999 -145
c4.66699 1.33301 9.66699 2 15 2c26.667 0 40 -12 40 -36c0 -10 -3.33301 -20.667 -10 -32zM291 169l-0.000976562 -80.9961c0 -34.667 -6.33301 -59.334 -19 -74.001l6 -59c-26.667 -28 -42.667 -42 -48 -42c-2 0 -3 1.66699 -3 5s2 12.333 6 27
c-0.666992 3.33301 -1 6.66602 -1 9.99902c0 5.33301 1.5 11.166 4.5 17.499s4.5 10.833 4.5 13.5c0 2 -0.333008 4.33301 -1 7h-39c-19.333 0 -33.666 2.33301 -42.999 7c-1.33301 41.333 4 75.666 16 102.999c3.33301 0.666992 6.33301 1 9 1c8 0 19.333 -8 34 -24
c15.333 7.33301 23 22.666 23 45.999c0 4 -0.333008 9.83301 -1 17.5s-1 13.167 -1 16.5c0 26.667 13 39.334 39 38.001z" />
    <glyph glyph-name="yen" unicode="&#xa5;" horiz-adv-x="430" 
d="M423 682c-78.667 -94.667 -129.331 -212.669 -151.998 -354.002l112 -30c-3.33301 -22 -21.333 -33 -54 -33c-4.66699 0 -12 0.333008 -22 1s-17.333 1 -22 1c-32 0 -48 -12.333 -48 -37c0 -8.66699 1.66699 -19 5 -31l128 -29l-92 -26c-34.667 -15.333 -52 -40 -52 -74
c0 -9.33301 1.33301 -19.666 4 -30.999v-46l-96 -1l14 141c-15.333 10.667 -36.333 16 -63 16c-6 0 -19.667 -0.666992 -41 -2c-17.333 -0.666992 -31.333 -0.666992 -42 0v32h76c30 0 52.667 6 68 18v44c0 17.333 -5.66699 29.333 -17 36
c-10.667 -12 -28.334 -18 -53.001 -18c-37.333 0.666992 -57 0.666992 -59 0v48h60c23.333 0 40 6 50 18l-50 179c-20 70.667 -42.667 127.334 -68 170.001c8.66699 12 23.334 18 44.001 18c41.333 0 58.666 -0.333008 51.999 -1c16.667 -30.667 30.5 -83 41.5 -157
s25.5 -127 43.5 -159c27.333 26 50.666 71.5 69.999 136.5s42.333 110.5 69 136.5l-16 16z" />
    <glyph glyph-name="dieresis" unicode="&#xa8;" horiz-adv-x="294" 
d="M283 578c-35.333 0 -58 0.667969 -68 2.00098s-20 10.666 -30 27.999v47l96 1l-32 -32c12.667 -10 21 -15 25 -15c2 0 4.33301 0.333008 7 1zM121 653.001c-1.33301 -5.33301 -1.33203 -13 0.000976562 -23c1.33301 -13.333 2 -21.333 2 -24
c0 -14.667 -5.33301 -25 -16 -31c-40.667 9.33301 -61.334 14 -62.001 14c-6 0 -12 -0.666992 -18 -2l-2 64z" />
    <glyph glyph-name="copyright" unicode="&#xa9;" horiz-adv-x="673" 
d="M655 339c-23.333 -177.333 -90.3301 -279.668 -200.997 -307.001c-28.667 -7.33301 -59.334 -11 -92.001 -11c-63.333 0 -118 12.667 -164 38c-50.667 44.667 -86.334 82 -107.001 112c-30.667 45.333 -44.667 92.333 -42 141c-1.33301 9.33301 -2 18.333 -2 27
c0 80 52.333 157 157 231c15.333 1.33301 48.666 7 99.999 17c40.667 7.33301 73 11 97 11c46.667 0 87.667 -12 123 -36c43.333 -38 74.333 -71 93 -99c26 -39.333 38.667 -80.666 38 -123.999zM563.003 209.998c8.66699 38 13.001 74.334 13.001 109.001
c0 87.333 -28 151.666 -84 192.999c-30 22 -71 33 -123 33c-44 0 -88.333 -7.33301 -133 -22c-32.667 -10.667 -58.667 -36 -78 -76l-46 -101c8 -58.667 18.667 -104.334 32 -137.001c19.333 -47.333 47 -81.166 83 -101.499s78.667 -30.5 128 -30.5
c41.333 0 79.666 7 114.999 21l52 53c21.333 22 35 41.667 41 59zM481.004 239.999c3.33301 -8 5.00391 -15.668 5.00391 -23.001c0 -30.667 -22 -55 -66 -73c-15.333 7.33301 -41.833 12 -79.5 14s-64.167 6.33301 -79.5 13c-26 11.333 -42.667 32.666 -50 63.999
c-10 27.333 -15 54.333 -15 81c0 36 9 67.667 27 95c11.333 26.667 30.333 40 57 40c5.33301 0 13.666 -0.5 24.999 -1.5s19.666 -1.5 24.999 -1.5c13.333 0 24.666 2 33.999 6c7.33301 18 20.333 27 39 27c19.333 0 37.666 -8.66699 54.999 -26s26 -37 26 -59
c0 -9.33301 -1.66699 -18.666 -5 -27.999c-48 53.333 -89.667 80 -125 80c-18 0 -35 -6.33301 -51 -19c-34 -17.333 -51 -47.666 -51 -90.999c0 -18 7.66699 -57 23 -117c34 -30.667 66.333 -46 97 -46c17.333 0 33 5.66699 47 17c10.667 5.33301 16 21.333 16 48h46z" />
    <glyph glyph-name="ordfeminine" unicode="&#xaa;" horiz-adv-x="255" 
d="M208 534c-5.33301 -2 -9.5 -7.66797 -12.5 -17.001s-7.83301 -15.666 -14.5 -18.999c-4 -2 -7.66699 -3 -11 -3c-7.33301 0 -11.666 6 -12.999 18c-2 15.333 -4 24 -6 26c1.33301 12.667 -2.33398 22 -11.001 28c-16.667 -4 -30.667 -23.333 -42 -58l-5 6
c-14 -4 -25 -6 -33 -6c-9.33301 0 -19 2 -29 6c3.33301 26.667 6.33301 44 9 52c6.66699 18 19 30 37 36c14.667 2 37.334 5.33301 68.001 10c7.33301 -2 16 -5.33301 26 -10c1.33301 0.666992 4.66602 2.66699 9.99902 6c4 2.66699 6 5.33398 6 8.00098
c0 2 -0.333008 4 -1 6c3.33301 1.33301 7 -0.333984 11 -5.00098l-5 -5c15.333 -20.667 23 -38 23 -52c0 -8.66699 -2.33301 -17.667 -7 -27zM234 253.999c-6 6.66699 -14.001 9.99805 -24.001 9.99805c-4.66699 0 -11.167 -0.833008 -19.5 -2.5s-14.5 -2.5 -18.5 -2.5
c-12 0 -19 7 -21 21c-22 -17.333 -45 -26 -69 -26c-8.66699 0 -17 1.33301 -25 4c-26 30 -39 55.333 -39 76c0 6 0.666992 12.333 2 19c0.666992 48 18 80.667 52 98c16 11.333 35 17 57 17c4 0 7.66699 -0.333008 11 -1c4 4 10 6 18 6h19l4 -6
c0.666992 0.666992 8.33398 14 23.001 40c10 15.333 20 26.333 30 33v-98c0 -41.333 -1.66699 -74.666 -5 -99.999c3.33301 -1.33301 5 -6.33301 5 -15c-0.666992 -2.66699 -1 -6 -1 -10s0.5 -11.167 1.5 -21.5s1.5 -18.166 1.5 -23.499
c0 -7.33301 -0.666992 -13.333 -2 -18zM144.999 436.997c-6.66699 -8 -13.668 -11.667 -21.001 -11l-8 -41c-2.66699 -16 -3.33398 -30.333 -2.00098 -43c2 -4.66699 4.33301 -9.66699 7 -15s6.33398 -8 11.001 -8c2.66699 0 5.33398 0.666992 8.00098 2z" />
    <glyph glyph-name="guillemotleft" unicode="&#xab;" horiz-adv-x="350" 
d="M169 377c0.666992 -5.33301 0.999023 -10.333 0.999023 -15c0 -22 -8.33301 -38.333 -25 -49c-19.333 -13.333 -31 -26 -35 -38c-4.66699 3.33301 -9 5 -13 5c-7.33301 0 -14.333 -9 -21 -27c-8 -22 -14.667 -35.333 -20 -40c8 -10 11.333 -26.333 10 -49
c-3.33301 10 -13.666 17 -30.999 21c-14.667 4 -22 15.667 -22 35c0 6 0.666992 13.333 2 22c0.666992 0.666992 17.667 11 51 31c20.667 12 35 29.333 43 52zM170.999 108l1 -22c0 -8.66699 -1.66699 -14.667 -5 -18c-9.33301 17.333 -23.333 31.333 -42 42
c-21.333 12.667 -36 24 -44 34v30c11.333 -2.66699 26.5 -13.5 45.5 -32.5s33.833 -30.167 44.5 -33.5zM318.999 377c0.666992 -5.33301 0.999023 -10.333 0.999023 -15c0 -22 -8.33301 -38.333 -25 -49c-19.333 -13.333 -31 -26 -35 -38c-4.66699 3.33301 -9 5 -13 5
c-7.33301 0 -14.333 -9 -21 -27c-8 -22 -14.667 -35.333 -20 -40c8 -10 11.333 -26.333 10 -49c-3.33301 10 -13.666 17 -30.999 21c-14.667 4 -22 15.667 -22 35c0 6 0.666992 13.333 2 22c0.666992 0.666992 17.667 11 51 31c20.667 12 35 29.333 43 52zM320.998 108
l1 -22c0 -8.66699 -1.66699 -14.667 -5 -18c-9.33301 17.333 -23.333 31.333 -42 42c-21.333 12.667 -36 24 -44 34v30c11.333 -2.66699 26.5 -13.5 45.5 -32.5s33.833 -30.167 44.5 -33.5z" />
    <glyph glyph-name="logicalnot" unicode="&#xac;" horiz-adv-x="575" 
d="M535 420c-12.667 -17.333 -18.998 -39.667 -18.998 -67c0 -18.667 4 -46.334 12 -83.001s12 -62 12 -76c0 -42 -26 -63.333 -78 -64c-4.66699 16 -5.33398 47 -2.00098 93s2.33301 78 -3 96c-8.66699 30.667 -30 47.334 -64 50.001c-53.333 -14 -100 -21 -140 -21
c-49.333 0 -88 10.667 -116 32c-8 -1.33301 -12.667 -7.33301 -14 -18s-4.33301 -16 -9 -16c-2.66699 0 -5.66699 0.666992 -9 2l-64 -2v64l350 7c11.333 -10.667 23.333 -16 36 -16c9.33301 0 23.166 3.83301 41.499 11.5s32.833 11.5 43.5 11.5c8 0 15.667 -1.33301 23 -4
z" />
    <glyph glyph-name="softhyphen" unicode="&#xad;" horiz-adv-x="352" 
d="M336 319l-317.001 4v46c38.667 0 76.167 3.66699 112.5 11s61.833 11 76.5 11c18.667 0 40 -2.66699 64 -8c2 -2 8.66699 -12.667 20 -32c8 -14 17 -21 27 -21c4.66699 0 10.334 1.66699 17.001 5v-16z" />
    <glyph glyph-name="registered" unicode="&#xae;" horiz-adv-x="661" 
d="M613 451c12.667 -35.333 19 -72 19 -110c0 -86 -31 -172.667 -93 -260c-7.33301 -2.66699 -23.666 -13.334 -48.999 -32.001c-20 -14 -38 -21 -54 -21c-7.33301 0 -15 1.33301 -23 4c-3.33301 6.66699 -5 12.667 -5 18c0 8 6.66699 14 20 18
c18.667 5.33301 29.667 9.33301 33 12c72 60.667 112.333 157.667 121 291c-18 82 -72.333 144.333 -163 187c-20.667 3.33301 -41 5 -61 5c-121.333 0 -207 -51.667 -257 -155c3.33301 -17.333 5 -36.666 5 -57.999c0 -10 -0.5 -24.333 -1.5 -43s-1.5 -32.334 -1.5 -41.001
c0 -53.333 18 -96.333 54 -129c31.333 -28.667 51 -45.667 59 -51c23.333 -16.667 46.333 -25 69 -25c5.33301 0 10.666 0.333008 15.999 1c-0.666992 -2.66699 -1 -5 -1 -7c0 -6 6 -14.333 18 -25c1.33301 1.33301 7.33301 8 18 20c7.33301 8.66699 14.666 13 21.999 13
c2 0 4.33301 -0.333008 7 -1c8 -4 13 -10.667 15 -20c0.666992 -1.33301 1.33398 -10.666 2.00098 -27.999c-19.333 -6.66699 -38.333 -10 -57 -10c-37.333 0 -77.333 14.667 -120 44l-98 73c-45.333 96 -68 171.667 -68 227c0 40.667 10 76.667 30 108
c25.333 56.667 88 105.667 188 147c28 6 55 9 81 9c121.333 0 213 -53.667 275 -161zM459 144l-16.001 -15.999c-19.333 8.66699 -35.666 26.667 -48.999 54l-33 71c-16 25.333 -37.667 41.333 -65 48c-10 -8.66699 -15 -24.667 -15 -48
c0 -8.66699 0.833008 -21.5 2.5 -38.5s2.5 -28.833 2.5 -35.5c0 -25.333 -8 -38 -24 -38c-10.667 0 -25 4.66699 -43 14c10 16 15 38.333 15 67c0 6.66699 -0.333008 16.167 -1 28.5s-1 21.833 -1 28.5c0 30 5.33301 53.333 16 70c-6 18 -9 39 -9 63
c0 25.333 3.33301 45.666 10 60.999l168 -27c-0.666992 -12 1.83301 -31 7.5 -57s8.5 -44 8.5 -54c0 -26 -13.667 -42.333 -41 -49c16 -46 24.667 -70.667 26 -74c11.333 -28 25 -50.667 41 -68zM372.999 321.001l-4.00098 91.999l-59 16
c-11.333 -7.33301 -16.666 -19.666 -15.999 -36.999c0.666992 -26 0.666992 -40.333 0 -43c16 4 42.333 -5.33301 79 -28z" />
    <glyph glyph-name="macron" unicode="&#xaf;" horiz-adv-x="352" 
d="M336 695l-317.001 4v46c38.667 0 76.167 3.66699 112.5 11s61.833 11 76.5 11c18.667 0 40 -2.66699 64 -8c2 -2 8.66699 -12.667 20 -32c8 -14 17 -21 27 -21c4.66699 0 10.334 1.66699 17.001 5v-16z" />
    <glyph glyph-name="degree" unicode="&#xb0;" horiz-adv-x="331" 
d="M307 636c6 -18 9.00098 -36.335 9.00098 -55.002c0 -43.333 -15.333 -86.666 -46 -129.999c-4 -1.33301 -12.333 -6.66602 -25 -15.999c-10 -7.33301 -19 -11 -27 -11c-3.33301 0 -7 0.666992 -11 2c-2 3.33301 -3 6.33301 -3 9c0 4 3.33301 7 10 9
c9.33301 2.66699 15 4.66699 17 6c36 30.667 56 79.334 60 146.001c-8.66699 40.667 -35.667 71.667 -81 93c-10.667 2 -21 3 -31 3c-60.667 0 -103.334 -26 -128.001 -78c1.33301 -8.66699 2 -18.334 2 -29.001c0 -4.66699 -0.166992 -11.667 -0.5 -21
s-0.5 -16.333 -0.5 -21c0 -26.667 9 -48 27 -64c15.333 -14.667 25 -23.334 29 -26.001c12 -8 23.667 -12 35 -12h8c-0.666992 -1.33301 -1 -2.33301 -1 -3c0 -3.33301 3 -7.66602 9 -12.999c0.666992 0.666992 3.66699 4 9 10c4 4.66699 7.66699 7 11 7
c1.33301 0 2.66602 -0.333008 3.99902 -1c4 -2 6.33301 -5.33301 7 -10c0.666992 -0.666992 1 -5.33398 1 -14.001c-9.33301 -3.33301 -18.666 -5 -27.999 -5c-18.667 0 -38.667 7.33301 -60 22l-49 37c-22.667 48 -34 85.667 -34 113c0 20.667 5 38.667 15 54
c12.667 28.667 44 53.334 94 74.001c14 2.66699 27.333 4 40 4c60.667 0 106.667 -26.667 138 -80z" />
    <glyph glyph-name="plusminus" unicode="&#xb1;" horiz-adv-x="390" 
d="M344 355l0.999023 -27.002c0.666992 -10.667 -2.66602 -18 -9.99902 -22c-8.66699 0.666992 -22.5 3.83398 -41.5 9.50098s-33.5 8.5 -43.5 8.5c-12.667 0 -24.334 -3.66699 -35.001 -11l-13 12c-1.33301 0.666992 -2.66602 1.66699 -3.99902 3l-4 4l-39 -30
c-5.33301 10 -13.333 15 -24 15c-4.66699 0 -13 -1.5 -25 -4.5s-21 -4.5 -27 -4.5c-5.33301 0 -10 0.666992 -14 2l-40 -1l-1 27c-0.666992 10.667 2.66602 18.334 9.99902 23.001c6.66699 1.33301 13.334 2 20.001 2c8.66699 0 21.5 -2 38.5 -6s29.833 -6 38.5 -6
c8 0 15.667 1 23 3c6.66699 17.333 10 37.333 10 60c0 26.667 -4.33301 49.667 -13 69l60 1c-1.33301 -9.33301 -1.33301 -22 0 -38c2 -20.667 3 -33.667 3 -39c0 -23.333 -6.66699 -41 -20 -53c0 -5.33301 1.33301 -13.333 4 -24l4 -4
c0.666992 -0.666992 2 -1.16699 4 -1.5s4.33301 -0.5 7 -0.5c6 0 16.333 7.33301 31 22zM214.999 272.998c-5.33301 -12.667 -7.99805 -42.666 -7.99805 -89.999l-50 -1c0 -0.666992 -0.333008 10 -1 32c-0.666992 13.333 2.66602 22.666 9.99902 27.999
c-7.33301 2.66699 -11 8.66699 -11 18v22c3.33301 -2.66699 7.33301 -4 12 -4c5.33301 0 12.166 2.5 20.499 7.5s13.833 7.5 16.5 7.5c6 0 9.66699 -6.66699 11 -20zM356.001 78.999l-317.001 4v46c38.667 0 76.167 3.66699 112.5 11s61.833 11 76.5 11
c18.667 0 40 -2.66699 64 -8c2 -2 8.66699 -12.667 20 -32c8 -14 17 -21 27 -21c4.66699 0 10.334 1.66699 17.001 5v-16z" />
    <glyph glyph-name="twosuperior" unicode="&#xb2;" horiz-adv-x="287" 
d="M278 575l0.00292969 0.999023c-10 -45.333 -15 -68.333 -15 -69c-7.33301 -25.333 -19 -45 -35 -59c-4 -13.333 -6.33301 -21 -7 -23c-3.33301 -8 -8.66602 -14.333 -15.999 -19c-0.666992 0.666992 -7.33398 8 -20.001 22c-9.33301 10 -18.333 15 -27 15
c-2.66699 0 -5.33398 -0.333008 -8.00098 -1c2 16.667 7.33301 36.334 16 59.001c13.333 34 20.333 52.667 21 56c-2 29.333 -11 52 -27 68c-20 -30.667 -33.667 -65.334 -41 -104.001c-2.66699 -0.666992 -5.33398 -1 -8.00098 -1c-4 0 -8.66699 1.33301 -14 4
c-7.33301 3.33301 -12.333 5.33301 -15 6c-2.66699 -2.66699 -5.66699 -4 -9 -4s-7.33301 1 -12 3c-6.66699 2.66699 -10.334 4.33398 -11.001 5.00098c-1.33301 44.667 15.667 81 51 109c24 13.333 46 20 66 20c34.667 0 58.667 -18.333 72 -55v-4
c0 -4 6.5 -8.83301 19.5 -14.5s19.5 -10.5 19.5 -14.5zM246.003 278.999c0 5.33301 0.333984 -7.00098 1.00098 -37.001c0 -17.333 -1.66699 -30.666 -5 -39.999h-28c-14.667 0 -25.334 1.33301 -32.001 4l-4 5c-4.66699 -4 -7.66699 -5.66699 -9 -5l-5 4l-4 -4
c-4.66699 -0.666992 -20 1 -46 5c-6.66699 -3.33301 -14 -5 -22 -5c-5.33301 0 -15.666 1.33301 -30.999 4c-12 2 -21.333 2 -28 0c-4.66699 18 -7 30.333 -7 37c0 11.333 3.33301 22 10 32c15.333 15.333 33 39.333 53 72c23.333 36.667 41 61.667 53 75
c30 -7.33301 47.667 -23 53 -47c1.33301 -8.66699 -0.666992 -16 -6 -22c-2.66699 -2 -9.33398 -6.66699 -20.001 -14c-1.33301 2 -3.33301 3 -6 3c-4.66699 0 -10.334 -2.33301 -17.001 -7c-8 -7.33301 -12.5 -18 -13.5 -32s-4.16699 -25 -9.5 -33
c1.33301 -2.66699 4 -4 8 -4c6 0.666992 9.33301 0.666992 10 0c10.667 9.33301 26 14 46 14c7.33301 0 17.333 -0.666992 30 -2c14.667 -2 24.334 -3 29.001 -3z" />
    <glyph glyph-name="threesuperior" unicode="&#xb3;" horiz-adv-x="265" 
d="M242 331l-0.00195312 1.00391c1.33301 -4.66699 2 -9.33398 2 -14.001c0 -8.66699 -2.33301 -21 -7 -37c-4.66699 -18 -7.33398 -30.333 -8.00098 -37c-2.66699 -6.66699 -9 -16 -19 -28c-2 0.666992 -5.66699 2.33398 -11 5.00098s-9.33301 4 -12 4
c-4.66699 0 -7.66699 -4.33301 -9 -13c0.666992 -2.66699 1 -5 1 -7c0 -10.667 -6 -17.334 -18 -20.001h-8c-3.33301 0.666992 -5.66602 2.33398 -6.99902 5.00098c-5.33301 -8.66699 -8 -13.334 -8 -14.001c-3.33301 -4.66699 -8 -7.66699 -14 -9
c-18.667 -1.33301 -36.334 2.66699 -53.001 12s-29.334 21.666 -38.001 36.999c-10 17.333 -15 35 -15 53v12c3.33301 -0.666992 6.66602 -1 9.99902 -1c5.33301 0 13.5 0.833008 24.5 2.5s19.167 2.5 24.5 2.5c8 0 14.667 -1.33301 20 -4c0 -2 2 -10 6 -24
c2.66699 -10 6.33398 -17.333 11.001 -22c18 9.33301 29.333 25.333 34 48l8 62c-15.333 16 -30.666 25 -45.999 27c-1.33301 -2.66699 -5.66602 -4.33398 -12.999 -5.00098c-6.66699 6 -10 16 -10 30v34c28.667 5.33301 46.667 14.333 54 27c8 38 12 63 12 75
c0 26 -8 45.667 -24 59c-4 -1.33301 -5.66699 -4.33301 -5 -9c0 -10 0 -13.667 0 -11h-5c-5.33301 0 -8.83301 -4 -10.5 -12s-4.16699 -13 -7.5 -15c2 -11.333 -2.66699 -18.666 -14 -21.999h-24c-12 0 -20.667 1.33301 -26 4c-0.666992 4.66699 -1 9.66699 -1 15
c0 19.333 7.66699 43.333 23 72c20.667 16.667 45.334 25 74.001 25c10 0 20.667 -1 32 -3c8 1.33301 15.833 -0.666992 23.5 -6s14.834 -10.666 21.501 -15.999c18.667 -16 28 -40.667 28 -74c0 -13.333 -1.66699 -31 -5 -53c-1.33301 -1.33301 -6 -13 -14 -35
c-4.66699 -14.667 -12 -23 -22 -25c-2.66699 -5.33301 -4 -10 -4 -14c0 -6.66699 8 -13.334 24 -20.001s24.333 -15.334 25 -26.001c-0.666992 -2 -1 -4 -1 -6c0 -2.66699 1 -6.33398 3 -11.001s3 -8 3 -10c0 -3.33301 -1.66699 -6.33301 -5 -9z" />
    <glyph glyph-name="acute" unicode="&#xb4;" horiz-adv-x="96" 
d="M-53 703c26.667 2.66699 39.999 14.334 39.999 35.001c0 3.33301 -0.333008 8.33301 -1 15s-1 11.667 -1 15c0 13.333 3.66699 23.666 11 30.999h47c20.667 -0.666992 31.334 -7 32.001 -19l-63 -30c-1.33301 -2.66699 -2 -5 -2 -7c0 -4 5.33301 -12.333 16 -25
c-4.66699 -2.66699 -14.334 -12.667 -29.001 -30c-12 -14 -23.333 -21 -34 -21c-5.33301 0 -10.666 1.33301 -15.999 4v32z" />
    <glyph glyph-name="periodcentered" unicode="&#xb7;" horiz-adv-x="157" 
d="M144 309l-0.000976562 -1c-4 2 -8.33301 -0.333008 -13 -7c-7.33301 0 -17.666 1.33301 -30.999 4s-23 4 -29 4c-14.667 0 -27 -5.33301 -37 -16c-10.667 8.66699 -16 23.667 -16 45c0 37.333 0.333008 54.333 1 51l-1 31c12.667 5.33301 33.5 7.66602 62.5 6.99902
s49.833 2 62.5 8c3.33301 -9.33301 5 -20 5 -32c0 -5.33301 -1.33301 -20.666 -4 -45.999c-2 -19.333 -2 -35.333 0 -48z" />
    <glyph glyph-name="cedilla" unicode="&#xb8;" horiz-adv-x="345" 
d="M178 -7c34.667 -24.667 52.0029 -57.998 52.0029 -99.998c0 -8.66699 -0.666992 -17.334 -2 -26.001c-10.667 -22.667 -29 -34 -55 -34c-16.667 0 -30.334 5.33301 -41.001 16l-16 16c12.667 11.333 21 17 25 17c2 0 4.33301 -0.333008 7 -1l16 -16
c0.666992 1.33301 8 9 22 23c9.33301 8.66699 12.666 17.667 9.99902 27c-4.66699 10.667 -13 16 -25 16c-2.66699 0 -9.66699 -0.666992 -21 -2c-8.66699 -1.33301 -15.334 -1.33301 -20.001 0c10 18 15 38.667 15 62c0.666992 1.33301 2.66699 2.16602 6 2.49902
s7 0.5 11 0.5c4.66699 0 10 -0.333008 16 -1z" />
    <glyph glyph-name="onesuperior" unicode="&#xb9;" horiz-adv-x="228" 
d="M161 610l0.00195312 -0.999023c-2 -3.33301 -6.33301 -4.66602 -13 -3.99902c-9.33301 0.666992 -14.333 1 -15 1l-12 13c-4.66699 -4 -13.834 -7.83301 -27.501 -11.5s-23.167 -8.83398 -28.5 -15.501c-4 0 -9.16699 1.66699 -15.5 5s-10.833 5 -13.5 5
s-5.33398 -0.333008 -8.00098 -1v5c0 3.33301 2.66699 6.5 8 9.5s8 5.83301 8 8.5s-1 5.66699 -3 9c4 8 13.333 11 28 9c25.333 25.333 50 38 74 38c6.66699 0 12.334 -0.666992 17.001 -2c7.33301 -22.667 7.66602 -45.334 0.999023 -68.001zM152.002 568.001v1.00195
c-1.33301 -2.66699 -1.66602 -8.33398 -0.999023 -17.001c1.33301 -9.33301 1.33301 -15.333 0 -18c-2 -5.33301 -6.33301 -7.33301 -13 -6c-5.33301 3.33301 -11 5 -17 5c-6.66699 0 -15.334 -3 -26.001 -9c-12 -6 -20.667 -9.66699 -26 -11
c0.666992 3.33301 1 6.66602 1 9.99902c0 4 -1 9.5 -3 16.5s-3 12.167 -3 15.5c0 2.66699 0.333008 5 1 7c0 0.666992 7.66699 4 23 10c9.33301 3.33301 14 10 14 20c2.66699 -1.33301 8.33398 -6.33301 17.001 -15c7.33301 -7.33301 14.666 -11 21.999 -11
c3.33301 0 7 0.666992 11 2zM209.002 220.003c-3.33301 -2.66699 -4.99707 -7.66309 -4.99707 -14.9961c0 -2 0.166992 -5.16699 0.5 -9.5s0.5 -7.16602 0.5 -8.49902c0 -8 -2.33301 -12 -7 -12c-2.66699 0 -6.66699 1.33301 -12 4
c-8 -2.66699 -18.333 -4.33398 -31 -5.00098c-8 -0.666992 -18.333 -0.666992 -31 0c-14.667 0.666992 -24.334 1 -29.001 1c-3.33301 -4 -8.33301 -6 -15 -6c-12 0.666992 -17.667 1 -17 1c-1.33301 0.666992 -3 1 -5 1c-2.66699 0 -6.83398 -1 -12.501 -3
s-10.167 -3 -13.5 -3c-4 0 -7.66699 1.33301 -11 4c-2.66699 7.33301 -4 17.666 -4 30.999c0.666992 19.333 0.666992 30.333 0 33c3.33301 3.33301 8.66602 5 15.999 5h10c3.33301 -0.666992 6 -1 8 -1c12 0 17.667 6 17 18c-5.33301 4 -6.33301 10.167 -3 18.5
s2.66602 14.5 -2.00098 18.5c3.33301 4 5 8.33301 5 13c0 2.66699 -1 7.16699 -3 13.5s-3 11.166 -3 14.499s0.666992 6.66602 2 9.99902c2 8.66699 3 15.667 3 21c0 3.33301 -1.16699 9.33301 -3.5 18s-3.16602 19 -2.49902 31c11.333 3.33301 18.333 12.666 21 27.999
c-4.66699 8.66699 -7 16 -7 22c0 16.667 16.333 25 49 25c6 0 11.667 -0.333008 17 -1c2 -83.333 6 -163.333 12 -240c4 -3.33301 10.667 -5 20 -5h7c3.33301 0.666992 6 1 8 1c16 0 23 -7.66699 21 -23z" />
    <glyph glyph-name="ordmasculine" unicode="&#xba;" horiz-adv-x="246" 
d="M197 603c22 -34 33.001 -76 33.001 -126c0 -62.667 -14.667 -118.334 -44 -167.001c-0.666992 0.666992 -9.66699 3.33398 -27 8.00098c-10.667 2 -15.667 8 -15 18c-0.666992 -3.33301 -2.66699 -5 -6 -5s-6.33301 -0.333008 -9 -1
c5.33301 25.333 9.66602 58.333 12.999 99l8 101c-4 2.66699 -5.66699 10 -5 22c0.666992 10 -3 16.333 -11 19l-10 -10l-11 25c-11.333 -35.333 -17 -77.666 -17 -126.999c0 -44.667 4.33301 -90.667 13 -138c-5.33301 -2.66699 -12 -10 -20 -22
c-6 -10 -13.333 -14.667 -22 -14c-33.333 40.667 -50 95.667 -50 165c0 55.333 11.333 102.666 34 141.999c22 22 50.333 33 85 33c24.667 0 45 -7.33301 61 -22zM151.001 238c-4 -4 -5.66699 -7.33398 -5 -10.001c-4 2 -11 3.5 -21 4.5s-17 2.83301 -21 5.5
c-0.666992 3.33301 -1 6 -1 8c0 10.667 5.66699 20.334 17 29.001c8.66699 0.666992 14.667 -4 18 -14c4.66699 -12 9 -19.667 13 -23z" />
    <glyph glyph-name="guillemotright" unicode="&#xbb;" horiz-adv-x="339" 
d="M174 238c-0.666992 -21.333 -5.00391 -38.335 -13.0039 -51.002c-5.33301 -7.33301 -14.666 -15.833 -27.999 -25.5s-22.666 -18.5 -27.999 -26.5h-8c-3.33301 0.666992 -5.66602 3.66699 -6.99902 9c-4 -22.667 -15.333 -40 -34 -52
c-29.333 -20 -44.333 -30.333 -45 -31c-0.666992 5.33301 1 12 5 20l-5 11c4 10 14.667 18.333 32 25c16 6 26.667 18.333 32 37c10 1.33301 21.333 8.33301 34 21l30 31c-42 68.667 -82.333 107 -121 115c0.666992 4.66699 -0.166016 10.334 -2.49902 17.001
s-3.5 11.667 -3.5 15c0 2.66699 0.333008 5.33398 1 8.00098c28 -17.333 81.667 -58.333 161 -123zM323.996 237.998c-0.666992 -21.333 -5.00391 -38.335 -13.0039 -51.002c-5.33301 -7.33301 -14.666 -15.833 -27.999 -25.5s-22.666 -18.5 -27.999 -26.5h-8
c-3.33301 0.666992 -5.66602 3.66699 -6.99902 9c-4 -22.667 -15.333 -40 -34 -52c-29.333 -20 -44.333 -30.333 -45 -31c-0.666992 5.33301 1 12 5 20l-5 11c4 10 14.667 18.333 32 25c16 6 26.667 18.333 32 37c10 1.33301 21.333 8.33301 34 21l30 31
c-42 68.667 -82.333 107 -121 115c0.666992 4.66699 -0.166016 10.334 -2.49902 17.001s-3.5 11.667 -3.5 15c0 2.66699 0.333008 5.33398 1 8.00098c28 -17.333 81.667 -58.333 161 -123z" />
    <glyph glyph-name="questiondown" unicode="&#xbf;" horiz-adv-x="309" 
d="M176 20c26.667 34 61 55.333 103 64c2 -15.333 -5 -32.333 -21 -51l-39 -40zM28 232l-1 0.000976562l48 74c15.333 26.667 25.333 53.334 30 80.001v40c0 16 -2.33301 28.333 -7 37c4.66699 2 7 8.33301 7 19c4 1.33301 7.5 0.333008 10.5 -3
s5.83301 -6.66602 8.5 -9.99902c6 6 8.33301 10.667 7 14c2 1.33301 4.33301 2 7 2s6.33398 -1.33301 11.001 -4s8 -4 10 -4c3.33301 0 6.33301 2.33301 9 7c9.33301 -4.66699 14 -12 14 -22c0 -4.66699 -1.66699 -8.33398 -5 -11.001c0 -27.333 -0.333008 -37.333 -1 -30
c1.33301 -14 7.66602 -23.333 18.999 -28c2.66699 -32.667 -7.33301 -74.334 -30 -125.001c-24 -53.333 -36 -92.333 -36 -117c0 -16 3 -31.667 9 -47v-27c-5.33301 2 -10.333 3 -15 3c-7.33301 0 -17.5 -3.83301 -30.5 -11.5s-23.833 -10.834 -32.5 -9.50098
c-0.666992 24.667 -4.66699 54 -12 88zM85 561.001c4.66699 14 7 32.001 7 54.001c-0.666992 31.333 -0.666992 49.666 0 54.999c4.66699 4.66699 11.667 7 21 7c21.333 -0.666992 29.333 -1.33398 24 -2.00098l5 -5c1.33301 2.66699 8 4.66699 20 6
c10 0.666992 25 0.333984 45 -0.999023l6 -113c-8.66699 -4 -21.667 -6.33301 -39 -7h-41c-14 -0.666992 -25.667 -2.66699 -35 -6z" />
    <glyph glyph-name="Agrave" unicode="&#xc0;" horiz-adv-x="408" 
d="M381 -79c-9.33301 4 -19.334 5.99902 -30.001 5.99902c-9.33301 0 -22 -2 -38 -6c-18 -4 -30.333 -6.33301 -37 -7c-7.33301 14 -12.666 33.333 -15.999 58c-6 36 -9.66699 56.333 -11 61c2 4 3 7.33301 3 10c0 7.33301 -5.83301 13.833 -17.5 19.5
s-17.5 10.167 -17.5 13.5c0 4 6.66699 10 20 18c-3.33301 4 -5.83301 12.167 -7.5 24.5s-4.83398 20.5 -9.50098 24.5c-8 -7.33301 -21.167 -12.166 -39.5 -14.499s-30.5 -5.5 -36.5 -9.5c1.33301 -52 -6.66699 -87 -24 -105c-9.33301 2 -16.333 -1.66699 -21 -11
c-6.66699 -11.333 -12.334 -18 -17.001 -20l6 -7c-5.33301 -4.66699 -14 -6.66699 -26 -6c-18.667 0.666992 -28.667 1 -30 1l-6 18l56 541c0 34 1.33301 57 4 69c-1.33301 30 5.33398 48.667 20.001 56c9.33301 -6 21 -9 35 -9c11.333 0 29 2.66699 53 8s40.667 8 50 8
c32.667 0 47.334 -23.333 44.001 -70c-2.66699 -37.333 4 -86.333 20 -147c16.667 -65.333 25 -114.333 25 -147c0 -10 -0.333008 -20 -1 -30c-14 -8 -32 -13 -54 -15l-59 -4l-18 151c-7.33301 60 -16 109.333 -26 148l-26 -286c-2 -24.667 9.33301 -37 34 -37
c8 0 15.667 2 23 6c6 2 14.333 -2.33301 25 -13c0 -20.667 4.33301 -33 13 -37c10.667 7.33301 24.667 14.333 42 21l45 17c8.66699 -11.333 14.334 -28.333 17.001 -51c3.33301 -32 5.66602 -50.667 6.99902 -56c1.33301 -12.667 7 -40 17 -82
c7.33301 -33.333 11 -60.333 11 -81c0 -10 -0.666992 -19.333 -2 -28zM142.999 -48.001c0.666992 -4 0.999023 -7.66602 0.999023 -10.999c0 -24.667 -14.667 -37.667 -44 -39c-9.33301 4 -15.166 6.83301 -17.499 8.5s-4.5 5.16699 -6.5 10.5
c2 1.33301 9.66699 11.666 23 30.999c12 16.667 21.333 25 28 25s12 -8.33301 16 -25zM267.998 706c-5.33301 -2.66699 -10.667 -4 -16 -4c-10.667 0 -22 7 -34 21c-14.667 17.333 -24.334 27.333 -29.001 30c10.667 12.667 16 21 16 25c0 2 -0.666992 4.33301 -2 7l-63 30
c0.666992 12 11.334 18.333 32.001 19h47c7.33301 -7.33301 11 -17.666 11 -30.999c0 -3.33301 -0.333008 -8.33301 -1 -15s-1 -11.667 -1 -15c0 -20.667 13.333 -32.334 40 -35.001v-32z" />
    <glyph glyph-name="Aacute" unicode="&#xc1;" horiz-adv-x="408" 
d="M381 -79c-9.33301 4 -19.334 5.99902 -30.001 5.99902c-9.33301 0 -22 -2 -38 -6c-18 -4 -30.333 -6.33301 -37 -7c-7.33301 14 -12.666 33.333 -15.999 58c-6 36 -9.66699 56.333 -11 61c2 4 3 7.33301 3 10c0 7.33301 -5.83301 13.833 -17.5 19.5
s-17.5 10.167 -17.5 13.5c0 4 6.66699 10 20 18c-3.33301 4 -5.83301 12.167 -7.5 24.5s-4.83398 20.5 -9.50098 24.5c-8 -7.33301 -21.167 -12.166 -39.5 -14.499s-30.5 -5.5 -36.5 -9.5c1.33301 -52 -6.66699 -87 -24 -105c-9.33301 2 -16.333 -1.66699 -21 -11
c-6.66699 -11.333 -12.334 -18 -17.001 -20l6 -7c-5.33301 -4.66699 -14 -6.66699 -26 -6c-18.667 0.666992 -28.667 1 -30 1l-6 18l56 541c0 34 1.33301 57 4 69c-1.33301 30 5.33398 48.667 20.001 56c9.33301 -6 21 -9 35 -9c11.333 0 29 2.66699 53 8s40.667 8 50 8
c32.667 0 47.334 -23.333 44.001 -70c-2.66699 -37.333 4 -86.333 20 -147c16.667 -65.333 25 -114.333 25 -147c0 -10 -0.333008 -20 -1 -30c-14 -8 -32 -13 -54 -15l-59 -4l-18 151c-7.33301 60 -16 109.333 -26 148l-26 -286c-2 -24.667 9.33301 -37 34 -37
c8 0 15.667 2 23 6c6 2 14.333 -2.33301 25 -13c0 -20.667 4.33301 -33 13 -37c10.667 7.33301 24.667 14.333 42 21l45 17c8.66699 -11.333 14.334 -28.333 17.001 -51c3.33301 -32 5.66602 -50.667 6.99902 -56c1.33301 -12.667 7 -40 17 -82
c7.33301 -33.333 11 -60.333 11 -81c0 -10 -0.666992 -19.333 -2 -28zM142.999 -48.001c0.666992 -4 0.999023 -7.66602 0.999023 -10.999c0 -24.667 -14.667 -37.667 -44 -39c-9.33301 4 -15.166 6.83301 -17.499 8.5s-4.5 5.16699 -6.5 10.5
c2 1.33301 9.66699 11.666 23 30.999c12 16.667 21.333 25 28 25s12 -8.33301 16 -25zM139.998 738c26.667 2.66699 39.999 14.334 39.999 35.001c0 3.33301 -0.333008 8.33301 -1 15s-1 11.667 -1 15c0 13.333 3.66699 23.666 11 30.999h47
c20.667 -0.666992 31.334 -7 32.001 -19l-63 -30c-1.33301 -2.66699 -2 -5 -2 -7c0 -4 5.33301 -12.333 16 -25c-4.66699 -2.66699 -14.334 -12.667 -29.001 -30c-12 -14 -23.333 -21 -34 -21c-5.33301 0 -10.666 1.33301 -15.999 4v32z" />
    <glyph glyph-name="Acircumflex" unicode="&#xc2;" horiz-adv-x="408" 
d="M381 -79c-9.33301 4 -19.334 5.99902 -30.001 5.99902c-9.33301 0 -22 -2 -38 -6c-18 -4 -30.333 -6.33301 -37 -7c-7.33301 14 -12.666 33.333 -15.999 58c-6 36 -9.66699 56.333 -11 61c2 4 3 7.33301 3 10c0 7.33301 -5.83301 13.833 -17.5 19.5
s-17.5 10.167 -17.5 13.5c0 4 6.66699 10 20 18c-3.33301 4 -5.83301 12.167 -7.5 24.5s-4.83398 20.5 -9.50098 24.5c-8 -7.33301 -21.167 -12.166 -39.5 -14.499s-30.5 -5.5 -36.5 -9.5c1.33301 -52 -6.66699 -87 -24 -105c-9.33301 2 -16.333 -1.66699 -21 -11
c-6.66699 -11.333 -12.334 -18 -17.001 -20l6 -7c-5.33301 -4.66699 -14 -6.66699 -26 -6c-18.667 0.666992 -28.667 1 -30 1l-6 18l56 541c0 34 1.33301 57 4 69c-1.33301 30 5.33398 48.667 20.001 56c9.33301 -6 21 -9 35 -9c11.333 0 29 2.66699 53 8s40.667 8 50 8
c32.667 0 47.334 -23.333 44.001 -70c-2.66699 -37.333 4 -86.333 20 -147c16.667 -65.333 25 -114.333 25 -147c0 -10 -0.333008 -20 -1 -30c-14 -8 -32 -13 -54 -15l-59 -4l-18 151c-7.33301 60 -16 109.333 -26 148l-26 -286c-2 -24.667 9.33301 -37 34 -37
c8 0 15.667 2 23 6c6 2 14.333 -2.33301 25 -13c0 -20.667 4.33301 -33 13 -37c10.667 7.33301 24.667 14.333 42 21l45 17c8.66699 -11.333 14.334 -28.333 17.001 -51c3.33301 -32 5.66602 -50.667 6.99902 -56c1.33301 -12.667 7 -40 17 -82
c7.33301 -33.333 11 -60.333 11 -81c0 -10 -0.666992 -19.333 -2 -28zM142.999 -48.001c0.666992 -4 0.999023 -7.66602 0.999023 -10.999c0 -24.667 -14.667 -37.667 -44 -39c-9.33301 4 -15.166 6.83301 -17.499 8.5s-4.5 5.16699 -6.5 10.5
c2 1.33301 9.66699 11.666 23 30.999c12 16.667 21.333 25 28 25s12 -8.33301 16 -25zM306.998 715c-18.667 -8.66699 -40.667 -1.33301 -66 22c-28.667 26 -45.667 39 -51 39c-12.667 0 -21 -21.333 -25 -64l-64 -2c12 9.33301 29 35.333 51 78
c16.667 30.667 37.667 46 63 46c12 0 26.333 -2.66699 43 -8l31 -52c12 -21.333 18 -41 18 -59z" />
    <glyph glyph-name="Atilde" unicode="&#xc3;" horiz-adv-x="408" 
d="M381 -79c-9.33301 4 -19.334 5.99902 -30.001 5.99902c-9.33301 0 -22 -2 -38 -6c-18 -4 -30.333 -6.33301 -37 -7c-7.33301 14 -12.666 33.333 -15.999 58c-6 36 -9.66699 56.333 -11 61c2 4 3 7.33301 3 10c0 7.33301 -5.83301 13.833 -17.5 19.5
s-17.5 10.167 -17.5 13.5c0 4 6.66699 10 20 18c-3.33301 4 -5.83301 12.167 -7.5 24.5s-4.83398 20.5 -9.50098 24.5c-8 -7.33301 -21.167 -12.166 -39.5 -14.499s-30.5 -5.5 -36.5 -9.5c1.33301 -52 -6.66699 -87 -24 -105c-9.33301 2 -16.333 -1.66699 -21 -11
c-6.66699 -11.333 -12.334 -18 -17.001 -20l6 -7c-5.33301 -4.66699 -14 -6.66699 -26 -6c-18.667 0.666992 -28.667 1 -30 1l-6 18l56 541c0 34 1.33301 57 4 69c-1.33301 30 5.33398 48.667 20.001 56c9.33301 -6 21 -9 35 -9c11.333 0 29 2.66699 53 8s40.667 8 50 8
c32.667 0 47.334 -23.333 44.001 -70c-2.66699 -37.333 4 -86.333 20 -147c16.667 -65.333 25 -114.333 25 -147c0 -10 -0.333008 -20 -1 -30c-14 -8 -32 -13 -54 -15l-59 -4l-18 151c-7.33301 60 -16 109.333 -26 148l-26 -286c-2 -24.667 9.33301 -37 34 -37
c8 0 15.667 2 23 6c6 2 14.333 -2.33301 25 -13c0 -20.667 4.33301 -33 13 -37c10.667 7.33301 24.667 14.333 42 21l45 17c8.66699 -11.333 14.334 -28.333 17.001 -51c3.33301 -32 5.66602 -50.667 6.99902 -56c1.33301 -12.667 7 -40 17 -82
c7.33301 -33.333 11 -60.333 11 -81c0 -10 -0.666992 -19.333 -2 -28zM142.999 -48.001c0.666992 -4 0.999023 -7.66602 0.999023 -10.999c0 -24.667 -14.667 -37.667 -44 -39c-9.33301 4 -15.166 6.83301 -17.499 8.5s-4.5 5.16699 -6.5 10.5
c2 1.33301 9.66699 11.666 23 30.999c12 16.667 21.333 25 28 25s12 -8.33301 16 -25zM387.998 827c21.333 -10 31.999 -24.668 31.999 -44.001c0 -17.333 -8 -34.5 -24 -51.5s-34 -27.833 -54 -32.5c-2.66699 -1.33301 -5.33398 -2 -8.00098 -2c-4 0 -12 5.33301 -24 16
c-9.33301 -5.33301 -19 -8 -29 -8c-17.333 0 -41.666 10.333 -72.999 31c-33.333 22.667 -58 35.334 -74 38.001l-143 -35c-2.66699 7.33301 -4 14.666 -4 21.999c0 30.667 16.333 50.334 49 59.001c16.667 8 33.667 12 51 12c28.667 0 67.334 -14.333 116.001 -43
s82.667 -43 102 -43c33.333 0 61 27 83 81z" />
    <glyph glyph-name="Adieresis" unicode="&#xc4;" horiz-adv-x="408" 
d="M381 -79c-9.33301 4 -19.334 5.99902 -30.001 5.99902c-9.33301 0 -22 -2 -38 -6c-18 -4 -30.333 -6.33301 -37 -7c-7.33301 14 -12.666 33.333 -15.999 58c-6 36 -9.66699 56.333 -11 61c2 4 3 7.33301 3 10c0 7.33301 -5.83301 13.833 -17.5 19.5
s-17.5 10.167 -17.5 13.5c0 4 6.66699 10 20 18c-3.33301 4 -5.83301 12.167 -7.5 24.5s-4.83398 20.5 -9.50098 24.5c-8 -7.33301 -21.167 -12.166 -39.5 -14.499s-30.5 -5.5 -36.5 -9.5c1.33301 -52 -6.66699 -87 -24 -105c-9.33301 2 -16.333 -1.66699 -21 -11
c-6.66699 -11.333 -12.334 -18 -17.001 -20l6 -7c-5.33301 -4.66699 -14 -6.66699 -26 -6c-18.667 0.666992 -28.667 1 -30 1l-6 18l56 541c0 34 1.33301 57 4 69c-1.33301 30 5.33398 48.667 20.001 56c9.33301 -6 21 -9 35 -9c11.333 0 29 2.66699 53 8s40.667 8 50 8
c32.667 0 47.334 -23.333 44.001 -70c-2.66699 -37.333 4 -86.333 20 -147c16.667 -65.333 25 -114.333 25 -147c0 -10 -0.333008 -20 -1 -30c-14 -8 -32 -13 -54 -15l-59 -4l-18 151c-7.33301 60 -16 109.333 -26 148l-26 -286c-2 -24.667 9.33301 -37 34 -37
c8 0 15.667 2 23 6c6 2 14.333 -2.33301 25 -13c0 -20.667 4.33301 -33 13 -37c10.667 7.33301 24.667 14.333 42 21l45 17c8.66699 -11.333 14.334 -28.333 17.001 -51c3.33301 -32 5.66602 -50.667 6.99902 -56c1.33301 -12.667 7 -40 17 -82
c7.33301 -33.333 11 -60.333 11 -81c0 -10 -0.666992 -19.333 -2 -28zM142.999 -48.001c0.666992 -4 0.999023 -7.66602 0.999023 -10.999c0 -24.667 -14.667 -37.667 -44 -39c-9.33301 4 -15.166 6.83301 -17.499 8.5s-4.5 5.16699 -6.5 10.5
c2 1.33301 9.66699 11.666 23 30.999c12 16.667 21.333 25 28 25s12 -8.33301 16 -25zM332.998 715c-35.333 0 -58 0.667969 -68 2.00098s-20 10.666 -30 27.999v47l96 1l-32 -32c12.667 -10 21 -15 25 -15c2 0 4.33301 0.333008 7 1zM170.998 790.001
c-1.33301 -5.33301 -1.33203 -13 0.000976562 -23c1.33301 -13.333 2 -21.333 2 -24c0 -14.667 -5.33301 -25 -16 -31c-40.667 9.33301 -61.334 14 -62.001 14c-6 0 -12 -0.666992 -18 -2l-2 64z" />
    <glyph glyph-name="Aring" unicode="&#xc5;" horiz-adv-x="408" 
d="M278 772c4 -13.333 6.00195 -26.3359 6.00195 -39.0029c0 -25.333 -7 -50.333 -21 -75c19.333 -8 27.666 -30 24.999 -66c-2.66699 -37.333 4 -86.333 20 -147c16.667 -65.333 25 -114.333 25 -147c0 -10 -0.333008 -20 -1 -30c-14 -8 -32 -13 -54 -15l-59 -4l-18 151
c-7.33301 60 -16 109.333 -26 148l-26 -286c-2 -24.667 9.33301 -37 34 -37c8 0 15.667 2 23 6c6 2 14.333 -2.33301 25 -13c0 -20.667 4.33301 -33 13 -37c10.667 7.33301 24.667 14.333 42 21l45 17c8.66699 -11.333 14.334 -28.333 17.001 -51
c3.33301 -32 5.66602 -50.667 6.99902 -56c1.33301 -12.667 7 -40 17 -82c7.33301 -33.333 11 -60.333 11 -81c0 -10 -0.666992 -19.333 -2 -28c-9.33301 4 -19.333 6 -30 6c-9.33301 0 -22 -2 -38 -6c-18 -4 -30.333 -6.33301 -37 -7
c-7.33301 14 -12.666 33.333 -15.999 58c-6 36 -9.66699 56.333 -11 61c2 4 3 7.33301 3 10c0 7.33301 -5.83301 13.833 -17.5 19.5s-17.5 10.167 -17.5 13.5c0 4 6.66699 10 20 18c-3.33301 4 -5.83301 12.167 -7.5 24.5s-4.83398 20.5 -9.50098 24.5
c-8 -7.33301 -21.167 -12.166 -39.5 -14.499s-30.5 -5.5 -36.5 -9.5c1.33301 -52 -6.66699 -87 -24 -105c-9.33301 2 -16.333 -1.66699 -21 -11c-6.66699 -11.333 -12.334 -18 -17.001 -20l6 -7c-5.33301 -4.66699 -14 -6.66699 -26 -6c-18.667 0.666992 -28.667 1 -30 1
l-6 18l56 541c0 34 1.33301 57 4 69c-1.33301 26 3.66699 43.333 15 52l-3 3c-16 34.667 -24 61.667 -24 81c0 14.667 3.66699 27.334 11 38.001c8.66699 20.667 31 38.334 67 53.001c10 1.33301 19.333 2 28 2c43.333 0 76 -18.667 98 -56zM141.002 645.997
c11.333 0 28.999 2.66406 52.999 7.99707c23.333 5.33301 39.666 8 48.999 8c13.333 20.667 21.333 47.667 24 81c-6.66699 28.667 -26 50.667 -58 66c-7.33301 1.33301 -14.666 2 -21.999 2c-43.333 0 -73.666 -18.333 -90.999 -55c1.33301 -6 2 -13 2 -21
c0 -3.33301 -0.166992 -8.16602 -0.5 -14.499s-0.5 -11.166 -0.5 -14.499c0 -19.333 6.33301 -34.666 19 -45.999l13 -14h12zM143.001 -48.0059c0.666992 -4 0.999023 -7.66602 0.999023 -10.999c0 -24.667 -14.667 -37.667 -44 -39c-9.33301 4 -15.166 6.83301 -17.499 8.5
s-4.5 5.16699 -6.5 10.5c2 1.33301 9.66699 11.666 23 30.999c12 16.667 21.333 25 28 25s12 -8.33301 16 -25z" />
    <glyph glyph-name="Ccedilla" unicode="&#xc7;" horiz-adv-x="345" 
d="M317 203c1.33301 -6.66699 2.00098 -13.667 2.00098 -21c0 -16 -3.33301 -30.167 -10 -42.5s-16.334 -18.5 -29.001 -18.5c-2.66699 0 -5.66699 0.333008 -9 1c-14.667 20 -23.667 33.333 -27 40c-6.66699 12 -9 25.333 -7 40zM281.001 458
c-8 -7.33301 -15.6621 -15.001 -22.9951 -23.001c-9.33301 -8 -18.333 -12 -27 -12c-4.66699 0 -9.33398 1 -14.001 3c1.33301 4 2 8 2 12c0 10.667 -12 27.334 -36 50.001c-19.333 -1.33301 -32 -9.33301 -38 -24c-2.66699 -6 -5.33398 -21.333 -8.00098 -46
c-2 -20 -7 -34.333 -15 -43c12 -21.333 18 -53.666 18 -96.999c0 -6.66699 -0.333008 -17.334 -1 -32.001v-32c0 -65.333 17.333 -107.333 52 -126l32 34h-1c0 -1.33301 2.16699 -3.83301 6.5 -7.5s9.5 -5.5 15.5 -5.5c2.66699 0 5.66699 0.666992 9 2
c8.66699 -4 14.334 -11.667 17.001 -23c0 -0.666992 1 -10.667 3 -30c-10.667 -14.667 -25.334 -27.667 -44.001 -39l-51 -26c34.667 -24.667 52 -58 52 -100c0 -8.66699 -0.666992 -17.334 -2 -26.001c-10.667 -22.667 -29 -34 -55 -34
c-16.667 0 -30.334 5.33301 -41.001 16l-16 16c12.667 11.333 21 17 25 17c2 0 4.33301 -0.333008 7 -1l16 -16c0.666992 1.33301 8 9 22 23c9.33301 8.66699 12.666 17.667 9.99902 27c-4.66699 10.667 -13 16 -25 16c-2.66699 0 -9.66699 -0.666992 -21 -2
c-8.66699 -1.33301 -15.334 -1.33301 -20.001 0c10 18 15 38.667 15 62c0 36.667 -11.333 74.334 -34 113.001c-10.667 -14.667 -16 -22.667 -16 -24c0 -2.66699 0.666992 -5.66699 2 -9c-32 45.333 -53 102.333 -63 171c-6 42 -9 107 -9 195c10 32 29 56.667 57 74
c26 16 56 24 90 24c26 0 51 -5 75 -15c24 -22.667 36 -39.667 36 -51c0 -3.33301 -0.666992 -7 -2 -11z" />
    <glyph glyph-name="Egrave" unicode="&#xc8;" horiz-adv-x="348" 
d="M311 539c-6 -0.666992 -12.6689 -0.999023 -20.002 -0.999023c-15.333 0 -35.666 2 -60.999 6c-31.333 4 -50.333 6.33301 -57 7c-9.33301 -14 -14 -33.667 -14 -59c0 -54.667 0.333008 -78.334 1 -71.001c9.33301 -5.33301 14 -15.333 14 -30
c-0.666992 -20 -0.666992 -30.333 0 -31c-4.66699 -2 -7 -8.66699 -7 -20c-7.33301 2.66699 -15 8 -23 16c-10.667 10 -15.667 19.333 -15 28l-6 -6l-6 6c-5.33301 -0.666992 -14.5 2 -27.5 8s-22.167 11.667 -27.5 17c0 10.667 1.66699 16.667 5 18l-13 14l-6 -9
c-8.66699 69.333 -9 140.666 -1 213.999c25.333 -4 53.333 -6.33301 84 -7c20.667 -0.666992 49.667 -0.666992 87 0c42.667 0.666992 73.334 1 92.001 1c8 -7.33301 12 -17 12 -29c0 -7.33301 -1.83301 -19.166 -5.5 -35.499s-5.5 -28.5 -5.5 -36.5zM316.998 60.001
l-0.000976562 0.999023c-4 -8.66699 -6.33301 -18.667 -7 -30c-0.666992 -7.33301 -0.666992 -17.666 0 -30.999c0.666992 -15.333 1 -26 1 -32h-64c-22.667 0 -43 -2.33301 -61 -7l-19 20c-5.33301 -5.33301 -7.33301 -9.66602 -6 -12.999
c-3.33301 0.666992 -18.666 0.666992 -45.999 0c-21.333 0 -37.333 2 -48 6c-10.667 -11.333 -23.334 -11.333 -38.001 0c-5.33301 4 -6 10.833 -2 20.5s2.66699 16.834 -4 21.501c0.666992 21.333 3 54.333 7 99c4 40 6 71.333 6 94c0 30.667 -2.66699 60 -8 88
c7.33301 7.33301 15.666 11 24.999 11c10.667 0 23.334 -5 38.001 -15c20.667 -14 31.334 -21 32.001 -21l6 -7c0.666992 2 4 12.667 10 32c3.33301 12.667 8.33301 21 15 25l6 -6c2.66699 1.33301 11.334 7.66602 26.001 18.999c11.333 8 20.333 12 27 12
c7.33301 0 14.333 -4 21 -12c11.333 -6 18.833 -15.167 22.5 -27.5l10.5 -36.5c-30 -1.33301 -54.667 -1 -74 1c-4.66699 -7.33301 -11.334 -8.5 -20.001 -3.5s-15 4.16699 -19 -2.5v-65c-0.666992 -28 -0.666992 -50 0 -66c0.666992 -24.667 2.66699 -47.334 6 -68.001h76
c31.333 0 58.333 -2.33301 81 -7zM234.997 700c-5.33301 -2.66699 -10.667 -4 -16 -4c-10.667 0 -22 7 -34 21c-14.667 17.333 -24.334 27.333 -29.001 30c10.667 12.667 16 21 16 25c0 2 -0.666992 4.33301 -2 7l-63 30c0.666992 12 11.334 18.333 32.001 19h47
c7.33301 -7.33301 11 -17.666 11 -30.999c0 -3.33301 -0.333008 -8.33301 -1 -15s-1 -11.667 -1 -15c0 -20.667 13.333 -32.334 40 -35.001v-32z" />
    <glyph glyph-name="Eacute" unicode="&#xc9;" horiz-adv-x="348" 
d="M311 539c-6 -0.666992 -12.6689 -0.999023 -20.002 -0.999023c-15.333 0 -35.666 2 -60.999 6c-31.333 4 -50.333 6.33301 -57 7c-9.33301 -14 -14 -33.667 -14 -59c0 -54.667 0.333008 -78.334 1 -71.001c9.33301 -5.33301 14 -15.333 14 -30
c-0.666992 -20 -0.666992 -30.333 0 -31c-4.66699 -2 -7 -8.66699 -7 -20c-7.33301 2.66699 -15 8 -23 16c-10.667 10 -15.667 19.333 -15 28l-6 -6l-6 6c-5.33301 -0.666992 -14.5 2 -27.5 8s-22.167 11.667 -27.5 17c0 10.667 1.66699 16.667 5 18l-13 14l-6 -9
c-8.66699 69.333 -9 140.666 -1 213.999c25.333 -4 53.333 -6.33301 84 -7c20.667 -0.666992 49.667 -0.666992 87 0c42.667 0.666992 73.334 1 92.001 1c8 -7.33301 12 -17 12 -29c0 -7.33301 -1.83301 -19.166 -5.5 -35.499s-5.5 -28.5 -5.5 -36.5zM316.998 60.001
l-0.000976562 0.999023c-4 -8.66699 -6.33301 -18.667 -7 -30c-0.666992 -7.33301 -0.666992 -17.666 0 -30.999c0.666992 -15.333 1 -26 1 -32h-64c-22.667 0 -43 -2.33301 -61 -7l-19 20c-5.33301 -5.33301 -7.33301 -9.66602 -6 -12.999
c-3.33301 0.666992 -18.666 0.666992 -45.999 0c-21.333 0 -37.333 2 -48 6c-10.667 -11.333 -23.334 -11.333 -38.001 0c-5.33301 4 -6 10.833 -2 20.5s2.66699 16.834 -4 21.501c0.666992 21.333 3 54.333 7 99c4 40 6 71.333 6 94c0 30.667 -2.66699 60 -8 88
c7.33301 7.33301 15.666 11 24.999 11c10.667 0 23.334 -5 38.001 -15c20.667 -14 31.334 -21 32.001 -21l6 -7c0.666992 2 4 12.667 10 32c3.33301 12.667 8.33301 21 15 25l6 -6c2.66699 1.33301 11.334 7.66602 26.001 18.999c11.333 8 20.333 12 27 12
c7.33301 0 14.333 -4 21 -12c11.333 -6 18.833 -15.167 22.5 -27.5l10.5 -36.5c-30 -1.33301 -54.667 -1 -74 1c-4.66699 -7.33301 -11.334 -8.5 -20.001 -3.5s-15 4.16699 -19 -2.5v-65c-0.666992 -28 -0.666992 -50 0 -66c0.666992 -24.667 2.66699 -47.334 6 -68.001h76
c31.333 0 58.333 -2.33301 81 -7zM106.997 732c26.667 2.66699 39.999 14.334 39.999 35.001c0 3.33301 -0.333008 8.33301 -1 15s-1 11.667 -1 15c0 13.333 3.66699 23.666 11 30.999h47c20.667 -0.666992 31.334 -7 32.001 -19l-63 -30c-1.33301 -2.66699 -2 -5 -2 -7
c0 -4 5.33301 -12.333 16 -25c-4.66699 -2.66699 -14.334 -12.667 -29.001 -30c-12 -14 -23.333 -21 -34 -21c-5.33301 0 -10.666 1.33301 -15.999 4v32z" />
    <glyph glyph-name="Ecircumflex" unicode="&#xca;" horiz-adv-x="348" 
d="M311 539c-6 -0.666992 -12.6689 -0.999023 -20.002 -0.999023c-15.333 0 -35.666 2 -60.999 6c-31.333 4 -50.333 6.33301 -57 7c-9.33301 -14 -14 -33.667 -14 -59c0 -54.667 0.333008 -78.334 1 -71.001c9.33301 -5.33301 14 -15.333 14 -30
c-0.666992 -20 -0.666992 -30.333 0 -31c-4.66699 -2 -7 -8.66699 -7 -20c-7.33301 2.66699 -15 8 -23 16c-10.667 10 -15.667 19.333 -15 28l-6 -6l-6 6c-5.33301 -0.666992 -14.5 2 -27.5 8s-22.167 11.667 -27.5 17c0 10.667 1.66699 16.667 5 18l-13 14l-6 -9
c-8.66699 69.333 -9 140.666 -1 213.999c25.333 -4 53.333 -6.33301 84 -7c20.667 -0.666992 49.667 -0.666992 87 0c42.667 0.666992 73.334 1 92.001 1c8 -7.33301 12 -17 12 -29c0 -7.33301 -1.83301 -19.166 -5.5 -35.499s-5.5 -28.5 -5.5 -36.5zM316.998 60.001
l-0.000976562 0.999023c-4 -8.66699 -6.33301 -18.667 -7 -30c-0.666992 -7.33301 -0.666992 -17.666 0 -30.999c0.666992 -15.333 1 -26 1 -32h-64c-22.667 0 -43 -2.33301 -61 -7l-19 20c-5.33301 -5.33301 -7.33301 -9.66602 -6 -12.999
c-3.33301 0.666992 -18.666 0.666992 -45.999 0c-21.333 0 -37.333 2 -48 6c-10.667 -11.333 -23.334 -11.333 -38.001 0c-5.33301 4 -6 10.833 -2 20.5s2.66699 16.834 -4 21.501c0.666992 21.333 3 54.333 7 99c4 40 6 71.333 6 94c0 30.667 -2.66699 60 -8 88
c7.33301 7.33301 15.666 11 24.999 11c10.667 0 23.334 -5 38.001 -15c20.667 -14 31.334 -21 32.001 -21l6 -7c0.666992 2 4 12.667 10 32c3.33301 12.667 8.33301 21 15 25l6 -6c2.66699 1.33301 11.334 7.66602 26.001 18.999c11.333 8 20.333 12 27 12
c7.33301 0 14.333 -4 21 -12c11.333 -6 18.833 -15.167 22.5 -27.5l10.5 -36.5c-30 -1.33301 -54.667 -1 -74 1c-4.66699 -7.33301 -11.334 -8.5 -20.001 -3.5s-15 4.16699 -19 -2.5v-65c-0.666992 -28 -0.666992 -50 0 -66c0.666992 -24.667 2.66699 -47.334 6 -68.001h76
c31.333 0 58.333 -2.33301 81 -7zM273.997 709c-18.667 -8.66699 -40.667 -1.33301 -66 22c-28.667 26 -45.667 39 -51 39c-12.667 0 -21 -21.333 -25 -64l-64 -2c12 9.33301 29 35.333 51 78c16.667 30.667 37.667 46 63 46c12 0 26.333 -2.66699 43 -8l31 -52
c12 -21.333 18 -41 18 -59z" />
    <glyph glyph-name="Edieresis" unicode="&#xcb;" horiz-adv-x="348" 
d="M311 539c-6 -0.666992 -12.6689 -0.999023 -20.002 -0.999023c-15.333 0 -35.666 2 -60.999 6c-31.333 4 -50.333 6.33301 -57 7c-9.33301 -14 -14 -33.667 -14 -59c0 -54.667 0.333008 -78.334 1 -71.001c9.33301 -5.33301 14 -15.333 14 -30
c-0.666992 -20 -0.666992 -30.333 0 -31c-4.66699 -2 -7 -8.66699 -7 -20c-7.33301 2.66699 -15 8 -23 16c-10.667 10 -15.667 19.333 -15 28l-6 -6l-6 6c-5.33301 -0.666992 -14.5 2 -27.5 8s-22.167 11.667 -27.5 17c0 10.667 1.66699 16.667 5 18l-13 14l-6 -9
c-8.66699 69.333 -9 140.666 -1 213.999c25.333 -4 53.333 -6.33301 84 -7c20.667 -0.666992 49.667 -0.666992 87 0c42.667 0.666992 73.334 1 92.001 1c8 -7.33301 12 -17 12 -29c0 -7.33301 -1.83301 -19.166 -5.5 -35.499s-5.5 -28.5 -5.5 -36.5zM316.998 60.001
l-0.000976562 0.999023c-4 -8.66699 -6.33301 -18.667 -7 -30c-0.666992 -7.33301 -0.666992 -17.666 0 -30.999c0.666992 -15.333 1 -26 1 -32h-64c-22.667 0 -43 -2.33301 -61 -7l-19 20c-5.33301 -5.33301 -7.33301 -9.66602 -6 -12.999
c-3.33301 0.666992 -18.666 0.666992 -45.999 0c-21.333 0 -37.333 2 -48 6c-10.667 -11.333 -23.334 -11.333 -38.001 0c-5.33301 4 -6 10.833 -2 20.5s2.66699 16.834 -4 21.501c0.666992 21.333 3 54.333 7 99c4 40 6 71.333 6 94c0 30.667 -2.66699 60 -8 88
c7.33301 7.33301 15.666 11 24.999 11c10.667 0 23.334 -5 38.001 -15c20.667 -14 31.334 -21 32.001 -21l6 -7c0.666992 2 4 12.667 10 32c3.33301 12.667 8.33301 21 15 25l6 -6c2.66699 1.33301 11.334 7.66602 26.001 18.999c11.333 8 20.333 12 27 12
c7.33301 0 14.333 -4 21 -12c11.333 -6 18.833 -15.167 22.5 -27.5l10.5 -36.5c-30 -1.33301 -54.667 -1 -74 1c-4.66699 -7.33301 -11.334 -8.5 -20.001 -3.5s-15 4.16699 -19 -2.5v-65c-0.666992 -28 -0.666992 -50 0 -66c0.666992 -24.667 2.66699 -47.334 6 -68.001h76
c31.333 0 58.333 -2.33301 81 -7zM299.997 699c-35.333 0 -58 0.667969 -68 2.00098s-20 10.666 -30 27.999v47l96 1l-32 -32c12.667 -10 21 -15 25 -15c2 0 4.33301 0.333008 7 1zM137.997 774.001c-1.33301 -5.33301 -1.33203 -13 0.000976562 -23
c1.33301 -13.333 2 -21.333 2 -24c0 -14.667 -5.33301 -25 -16 -31c-40.667 9.33301 -61.334 14 -62.001 14c-6 0 -12 -0.666992 -18 -2l-2 64z" />
    <glyph glyph-name="Igrave" unicode="&#xcc;" horiz-adv-x="217" 
d="M188 638l-19 -498.001l-6 -6c7.33301 -5.33301 8.5 -13.666 3.5 -24.999s-4.16699 -19.666 2.5 -24.999c-2 -4 -4.33301 -25.333 -7 -64c-2 -26.667 -12.333 -40 -31 -40c-6.66699 0 -14.667 1.66699 -24 5c-4.66699 6 -10.667 9 -18 9c-2.66699 0 -6.5 -0.5 -11.5 -1.5
s-8.83301 -1.5 -11.5 -1.5c-8 0 -13 5.66699 -15 17c4 12.667 6 26.667 6 42c0 10.667 -1.33301 26.5 -4 47.5s-4 36.5 -4 46.5c0 9.33301 1 18 3 26c0 18 -0.333008 51.667 -1 101c-0.666992 45.333 -0.666992 80.666 0 105.999c0.666992 39.333 3 74 7 104l5 6
c-4 4 -6 8.33301 -6 13c0 2.66699 1.16699 7 3.5 13s3.5 10.333 3.5 13c0 4.66699 -2 8.66699 -6 12c4 5.33301 6 11.333 6 18c0 4 -1.16699 10.5 -3.5 19.5s-3.5 15.5 -3.5 19.5c0 6.66699 2 12.667 6 18l-5 6c4 2 5.66699 5.66699 5 11c-0.666992 8 -0.666992 12.667 0 14
c5.33301 1.33301 11 2 17 2c7.33301 0 17.833 -1.33301 31.5 -4s23.167 -4 28.5 -4c12 0 21.667 4 29 12zM182 703.999c-5.33301 -2.66699 -10.667 -4 -16 -4c-10.667 0 -22 7 -34 21c-14.667 17.333 -24.334 27.333 -29.001 30c10.667 12.667 16 21 16 25
c0 2 -0.666992 4.33301 -2 7l-63 30c0.666992 12 11.334 18.333 32.001 19h47c7.33301 -7.33301 11 -17.666 11 -30.999c0 -3.33301 -0.333008 -8.33301 -1 -15s-1 -11.667 -1 -15c0 -20.667 13.333 -32.334 40 -35.001v-32z" />
    <glyph glyph-name="Iacute" unicode="&#xcd;" horiz-adv-x="217" 
d="M188 638l-19 -498.001l-6 -6c7.33301 -5.33301 8.5 -13.666 3.5 -24.999s-4.16699 -19.666 2.5 -24.999c-2 -4 -4.33301 -25.333 -7 -64c-2 -26.667 -12.333 -40 -31 -40c-6.66699 0 -14.667 1.66699 -24 5c-4.66699 6 -10.667 9 -18 9c-2.66699 0 -6.5 -0.5 -11.5 -1.5
s-8.83301 -1.5 -11.5 -1.5c-8 0 -13 5.66699 -15 17c4 12.667 6 26.667 6 42c0 10.667 -1.33301 26.5 -4 47.5s-4 36.5 -4 46.5c0 9.33301 1 18 3 26c0 18 -0.333008 51.667 -1 101c-0.666992 45.333 -0.666992 80.666 0 105.999c0.666992 39.333 3 74 7 104l5 6
c-4 4 -6 8.33301 -6 13c0 2.66699 1.16699 7 3.5 13s3.5 10.333 3.5 13c0 4.66699 -2 8.66699 -6 12c4 5.33301 6 11.333 6 18c0 4 -1.16699 10.5 -3.5 19.5s-3.5 15.5 -3.5 19.5c0 6.66699 2 12.667 6 18l-5 6c4 2 5.66699 5.66699 5 11c-0.666992 8 -0.666992 12.667 0 14
c5.33301 1.33301 11 2 17 2c7.33301 0 17.833 -1.33301 31.5 -4s23.167 -4 28.5 -4c12 0 21.667 4 29 12zM54 735.999c26.667 2.66699 39.999 14.334 39.999 35.001c0 3.33301 -0.333008 8.33301 -1 15s-1 11.667 -1 15c0 13.333 3.66699 23.666 11 30.999h47
c20.667 -0.666992 31.334 -7 32.001 -19l-63 -30c-1.33301 -2.66699 -2 -5 -2 -7c0 -4 5.33301 -12.333 16 -25c-4.66699 -2.66699 -14.334 -12.667 -29.001 -30c-12 -14 -23.333 -21 -34 -21c-5.33301 0 -10.666 1.33301 -15.999 4v32z" />
    <glyph glyph-name="Icircumflex" unicode="&#xce;" horiz-adv-x="217" 
d="M188 638l-19 -498.001l-6 -6c7.33301 -5.33301 8.5 -13.666 3.5 -24.999s-4.16699 -19.666 2.5 -24.999c-2 -4 -4.33301 -25.333 -7 -64c-2 -26.667 -12.333 -40 -31 -40c-6.66699 0 -14.667 1.66699 -24 5c-4.66699 6 -10.667 9 -18 9c-2.66699 0 -6.5 -0.5 -11.5 -1.5
s-8.83301 -1.5 -11.5 -1.5c-8 0 -13 5.66699 -15 17c4 12.667 6 26.667 6 42c0 10.667 -1.33301 26.5 -4 47.5s-4 36.5 -4 46.5c0 9.33301 1 18 3 26c0 18 -0.333008 51.667 -1 101c-0.666992 45.333 -0.666992 80.666 0 105.999c0.666992 39.333 3 74 7 104l5 6
c-4 4 -6 8.33301 -6 13c0 2.66699 1.16699 7 3.5 13s3.5 10.333 3.5 13c0 4.66699 -2 8.66699 -6 12c4 5.33301 6 11.333 6 18c0 4 -1.16699 10.5 -3.5 19.5s-3.5 15.5 -3.5 19.5c0 6.66699 2 12.667 6 18l-5 6c4 2 5.66699 5.66699 5 11c-0.666992 8 -0.666992 12.667 0 14
c5.33301 1.33301 11 2 17 2c7.33301 0 17.833 -1.33301 31.5 -4s23.167 -4 28.5 -4c12 0 21.667 4 29 12zM221 712.999c-18.667 -8.66699 -40.667 -1.33301 -66 22c-28.667 26 -45.667 39 -51 39c-12.667 0 -21 -21.333 -25 -64l-64 -2c12 9.33301 29 35.333 51 78
c16.667 30.667 37.667 46 63 46c12 0 26.333 -2.66699 43 -8l31 -52c12 -21.333 18 -41 18 -59z" />
    <glyph glyph-name="Idieresis" unicode="&#xcf;" horiz-adv-x="217" 
d="M188 638l-19 -498.001l-6 -6c7.33301 -5.33301 8.5 -13.666 3.5 -24.999s-4.16699 -19.666 2.5 -24.999c-2 -4 -4.33301 -25.333 -7 -64c-2 -26.667 -12.333 -40 -31 -40c-6.66699 0 -14.667 1.66699 -24 5c-4.66699 6 -10.667 9 -18 9c-2.66699 0 -6.5 -0.5 -11.5 -1.5
s-8.83301 -1.5 -11.5 -1.5c-8 0 -13 5.66699 -15 17c4 12.667 6 26.667 6 42c0 10.667 -1.33301 26.5 -4 47.5s-4 36.5 -4 46.5c0 9.33301 1 18 3 26c0 18 -0.333008 51.667 -1 101c-0.666992 45.333 -0.666992 80.666 0 105.999c0.666992 39.333 3 74 7 104l5 6
c-4 4 -6 8.33301 -6 13c0 2.66699 1.16699 7 3.5 13s3.5 10.333 3.5 13c0 4.66699 -2 8.66699 -6 12c4 5.33301 6 11.333 6 18c0 4 -1.16699 10.5 -3.5 19.5s-3.5 15.5 -3.5 19.5c0 6.66699 2 12.667 6 18l-5 6c4 2 5.66699 5.66699 5 11c-0.666992 8 -0.666992 12.667 0 14
c5.33301 1.33301 11 2 17 2c7.33301 0 17.833 -1.33301 31.5 -4s23.167 -4 28.5 -4c12 0 21.667 4 29 12zM247 702.999c-35.333 0 -58 0.667969 -68 2.00098s-20 10.666 -30 27.999v47l96 1l-32 -32c12.667 -10 21 -15 25 -15c2 0 4.33301 0.333008 7 1zM85 778
c-1.33301 -5.33301 -1.33203 -13 0.000976562 -23c1.33301 -13.333 2 -21.333 2 -24c0 -14.667 -5.33301 -25 -16 -31c-40.667 9.33301 -61.334 14 -62.001 14c-6 0 -12 -0.666992 -18 -2l-2 64z" />
    <glyph glyph-name="Ntilde" unicode="&#xd1;" horiz-adv-x="379" 
d="M355 -10c-3.33301 -12 -9.33398 -18.001 -18.001 -18.001c-3.33301 0 -8.66602 1 -15.999 3s-13 3 -17 3c-6.66699 0 -12.334 -2.33301 -17.001 -7c-8.66699 3.33301 -17.667 7.16602 -27 11.499s-15.333 10.833 -18 19.5c18 25.333 27 50 27 74c0 6 -0.333008 12 -1 18
c5.33301 42 1.33301 71.333 -12 88l-7 -6c-2.66699 4 -5.33398 7.66699 -8.00098 11c-4 6 -9 9 -15 9c-2.66699 0 -5.33398 -0.666992 -8.00098 -2c3.33301 20 -6 35.667 -28 47c-26.667 14 -42 25.667 -46 35c-9.33301 -16 -11.666 -40 -6.99902 -72
c6 -39.333 8 -63.333 6 -72c-3.33301 -23.333 -19.666 -37.666 -48.999 -42.999c-4 4 -11 5.66699 -21 5c-13.333 -0.666992 -21 -0.666992 -23 0c-14.667 179.333 -21 360 -19 542c12 4.66699 30.833 6.66699 56.5 6s44.5 1.33301 56.5 6l38 -67
c5.33301 -38 19.666 -77.667 42.999 -119v-44c-12 8 -26 19.667 -42 35l-39 40c0.666992 -7.33301 -3.66602 -11.833 -12.999 -13.5s-14 -4.83398 -14 -9.50098c0 -2 0.666992 -4.66699 2 -8l76 -49c32 -22 48 -47 48 -75c0 -4 -0.333008 -8.33301 -1 -13l20 -21
c4 3.33301 6 6.33301 6 9s-2.16699 6.66699 -6.5 12s-6.16602 9.66602 -5.49902 12.999v85c0 34 -2.66699 61.333 -8 82c4.66699 6.66699 7 13.667 7 21c0 5.33301 -1.33301 13.333 -4 24s-4 19 -4 25c0 4 0.333008 7.66699 1 11c-0.666992 2.66699 -1 5.33398 -1 8.00098
c0 6 2.33301 13.833 7 23.5s7.33398 15.834 8.00098 18.501c4 1.33301 7.33301 0.333008 10 -3s5 -6.66602 7 -9.99902c29.333 8 54.666 8.33301 75.999 1l-6 -517l6 -7v-110zM136.999 6.99902h1.00195c-17.333 -4.66699 -28 -7.66699 -32 -9
c-11.333 -4.66699 -17.333 -11.667 -18 -21l-37 30c-2 -2.66699 -8.66699 -4.66699 -20 -6c-4 5.33301 -6 13.333 -6 24c0.666992 14.667 0.666992 23.334 0 26.001c8 0 19.667 2.66699 35 8s26.666 8 33.999 8c6.66699 0 12.667 -1.33301 18 -4
c5.33301 5.33301 9.66602 7.33301 12.999 6c10.667 -5.33301 13.667 -15.333 9 -30s-3.66699 -25.334 3 -32.001zM374.001 827.999c21.333 -10 31.999 -24.668 31.999 -44.001c0 -17.333 -8 -34.5 -24 -51.5s-34 -27.833 -54 -32.5
c-2.66699 -1.33301 -5.33398 -2 -8.00098 -2c-4 0 -12 5.33301 -24 16c-9.33301 -5.33301 -19 -8 -29 -8c-17.333 0 -41.666 10.333 -72.999 31c-33.333 22.667 -58 35.334 -74 38.001l-143 -35c-2.66699 7.33301 -4 14.666 -4 21.999c0 30.667 16.333 50.334 49 59.001
c16.667 8 33.667 12 51 12c28.667 0 67.334 -14.333 116.001 -43s82.667 -43 102 -43c33.333 0 61 27 83 81z" />
    <glyph glyph-name="Ograve" unicode="&#xd2;" horiz-adv-x="410" 
d="M385 229l1.00098 1c-1.33301 -6.66699 -4.33301 -36.334 -9 -89.001c-4 -36.667 -9.33301 -66 -16 -88c-4 -1.33301 -7.66699 -2 -11 -2c-6.66699 0 -12.167 5.16699 -16.5 15.5s-8.5 15.5 -12.5 15.5s-9.66699 -3 -17 -9c-12 6 -23.667 12.167 -35 18.5
s-16.333 16.833 -15 31.5l8 5c-6.66699 32.667 -12 105 -16 217c-2.66699 94.667 -14 166 -34 214c-5.33301 -2 -8 -6 -8 -12c0.666992 -9.33301 1 -13.666 1 -12.999l-19 31c-4 -4 -6 -11 -6 -21c0.666992 -13.333 0.666992 -21 0 -23c-8.66699 1.33301 -15 -1 -19 -7
l-12 -18l19 -323l-13 -13l-6 6c-2.66699 -1.33301 -16.334 -12.666 -41.001 -33.999c-14.667 -12.667 -32 -18 -52 -16l-20 129c-7.33301 54 -11 99.667 -11 137c0 99.333 27 172.666 81 219.999c6 1.33301 19.667 6 41 14c17.333 6.66699 31.666 10 42.999 10
c9.33301 0 18.333 -2 27 -6c1.33301 5.33301 5.33301 8 12 8s10.667 0.333008 12 1c6.66699 -11.333 17.334 -16.333 32.001 -15c36 -26 62 -62 78 -108c12 -34 19.333 -79 22 -135l6 -136zM343.001 -5c-6.66699 -0.666992 -15.001 -0.331055 -25.001 1.00195
c-12 2 -19.667 3 -23 3c-10.667 0 -19.334 -3.66699 -26.001 -11l-13 -25c-3.33301 4 -10.5 6 -21.5 6s-18.167 2.33301 -21.5 7c-2 -4.66699 -6 -7 -12 -7h-13c0.666992 3.33301 -1.66602 7.66602 -6.99902 12.999c-2.66699 -5.33301 -7.33398 -8 -14.001 -8
c-14.667 0.666992 -20.334 1.33398 -17.001 2.00098l-6 6c-5.33301 -5.33301 -9.33301 -7.33301 -12 -6c-4.66699 2 -7 8 -7 18c20.667 4.66699 33.334 14.667 38.001 30c-4 9.33301 -11.667 15.333 -23 18c-15.333 3.33301 -24.333 6 -27 8
c-3.33301 -0.666992 -9.33301 -2.33398 -18 -5.00098s-15 -4 -19 -4c-9.33301 0 -15.666 6.66699 -18.999 20c-2 4.66699 -3 8.66699 -3 12c0 6.66699 6.16699 11 18.5 13s19.5 4.33301 21.5 7l37 28c15.333 12 30 17.333 44 16c4 -7.33301 7.33301 -21 10 -41s6 -34 10 -42
c7.33301 -12.667 19.333 -20.334 36 -23.001l9 22c2.66699 8.66699 7.33398 13.667 14.001 15c6 0 14.333 -3.5 25 -10.5s19.334 -10.5 26.001 -10.5c4 0 8.33301 1 13 3c6 -6 11 -15.333 15 -28c5.33301 -14.667 8.66602 -23.667 9.99902 -27zM269 683.003
c-5.33301 -2.66699 -10.667 -4 -16 -4c-10.667 0 -22 7 -34 21c-14.667 17.333 -24.334 27.333 -29.001 30c10.667 12.667 16 21 16 25c0 2 -0.666992 4.33301 -2 7l-63 30c0.666992 12 11.334 18.333 32.001 19h47c7.33301 -7.33301 11 -17.666 11 -30.999
c0 -3.33301 -0.333008 -8.33301 -1 -15s-1 -11.667 -1 -15c0 -20.667 13.333 -32.334 40 -35.001v-32z" />
    <glyph glyph-name="Oacute" unicode="&#xd3;" horiz-adv-x="410" 
d="M385 229l1.00098 1c-1.33301 -6.66699 -4.33301 -36.334 -9 -89.001c-4 -36.667 -9.33301 -66 -16 -88c-4 -1.33301 -7.66699 -2 -11 -2c-6.66699 0 -12.167 5.16699 -16.5 15.5s-8.5 15.5 -12.5 15.5s-9.66699 -3 -17 -9c-12 6 -23.667 12.167 -35 18.5
s-16.333 16.833 -15 31.5l8 5c-6.66699 32.667 -12 105 -16 217c-2.66699 94.667 -14 166 -34 214c-5.33301 -2 -8 -6 -8 -12c0.666992 -9.33301 1 -13.666 1 -12.999l-19 31c-4 -4 -6 -11 -6 -21c0.666992 -13.333 0.666992 -21 0 -23c-8.66699 1.33301 -15 -1 -19 -7
l-12 -18l19 -323l-13 -13l-6 6c-2.66699 -1.33301 -16.334 -12.666 -41.001 -33.999c-14.667 -12.667 -32 -18 -52 -16l-20 129c-7.33301 54 -11 99.667 -11 137c0 99.333 27 172.666 81 219.999c6 1.33301 19.667 6 41 14c17.333 6.66699 31.666 10 42.999 10
c9.33301 0 18.333 -2 27 -6c1.33301 5.33301 5.33301 8 12 8s10.667 0.333008 12 1c6.66699 -11.333 17.334 -16.333 32.001 -15c36 -26 62 -62 78 -108c12 -34 19.333 -79 22 -135l6 -136zM343.001 -5c-6.66699 -0.666992 -15.001 -0.331055 -25.001 1.00195
c-12 2 -19.667 3 -23 3c-10.667 0 -19.334 -3.66699 -26.001 -11l-13 -25c-3.33301 4 -10.5 6 -21.5 6s-18.167 2.33301 -21.5 7c-2 -4.66699 -6 -7 -12 -7h-13c0.666992 3.33301 -1.66602 7.66602 -6.99902 12.999c-2.66699 -5.33301 -7.33398 -8 -14.001 -8
c-14.667 0.666992 -20.334 1.33398 -17.001 2.00098l-6 6c-5.33301 -5.33301 -9.33301 -7.33301 -12 -6c-4.66699 2 -7 8 -7 18c20.667 4.66699 33.334 14.667 38.001 30c-4 9.33301 -11.667 15.333 -23 18c-15.333 3.33301 -24.333 6 -27 8
c-3.33301 -0.666992 -9.33301 -2.33398 -18 -5.00098s-15 -4 -19 -4c-9.33301 0 -15.666 6.66699 -18.999 20c-2 4.66699 -3 8.66699 -3 12c0 6.66699 6.16699 11 18.5 13s19.5 4.33301 21.5 7l37 28c15.333 12 30 17.333 44 16c4 -7.33301 7.33301 -21 10 -41s6 -34 10 -42
c7.33301 -12.667 19.333 -20.334 36 -23.001l9 22c2.66699 8.66699 7.33398 13.667 14.001 15c6 0 14.333 -3.5 25 -10.5s19.334 -10.5 26.001 -10.5c4 0 8.33301 1 13 3c6 -6 11 -15.333 15 -28c5.33301 -14.667 8.66602 -23.667 9.99902 -27zM141 715.003
c26.667 2.66699 39.999 14.334 39.999 35.001c0 3.33301 -0.333008 8.33301 -1 15s-1 11.667 -1 15c0 13.333 3.66699 23.666 11 30.999h47c20.667 -0.666992 31.334 -7 32.001 -19l-63 -30c-1.33301 -2.66699 -2 -5 -2 -7c0 -4 5.33301 -12.333 16 -25
c-4.66699 -2.66699 -14.334 -12.667 -29.001 -30c-12 -14 -23.333 -21 -34 -21c-5.33301 0 -10.666 1.33301 -15.999 4v32z" />
    <glyph glyph-name="Ocircumflex" unicode="&#xd4;" horiz-adv-x="410" 
d="M385 229l1.00098 1c-1.33301 -6.66699 -4.33301 -36.334 -9 -89.001c-4 -36.667 -9.33301 -66 -16 -88c-4 -1.33301 -7.66699 -2 -11 -2c-6.66699 0 -12.167 5.16699 -16.5 15.5s-8.5 15.5 -12.5 15.5s-9.66699 -3 -17 -9c-12 6 -23.667 12.167 -35 18.5
s-16.333 16.833 -15 31.5l8 5c-6.66699 32.667 -12 105 -16 217c-2.66699 94.667 -14 166 -34 214c-5.33301 -2 -8 -6 -8 -12c0.666992 -9.33301 1 -13.666 1 -12.999l-19 31c-4 -4 -6 -11 -6 -21c0.666992 -13.333 0.666992 -21 0 -23c-8.66699 1.33301 -15 -1 -19 -7
l-12 -18l19 -323l-13 -13l-6 6c-2.66699 -1.33301 -16.334 -12.666 -41.001 -33.999c-14.667 -12.667 -32 -18 -52 -16l-20 129c-7.33301 54 -11 99.667 -11 137c0 99.333 27 172.666 81 219.999c6 1.33301 19.667 6 41 14c17.333 6.66699 31.666 10 42.999 10
c9.33301 0 18.333 -2 27 -6c1.33301 5.33301 5.33301 8 12 8s10.667 0.333008 12 1c6.66699 -11.333 17.334 -16.333 32.001 -15c36 -26 62 -62 78 -108c12 -34 19.333 -79 22 -135l6 -136zM343.001 -5c-6.66699 -0.666992 -15.001 -0.331055 -25.001 1.00195
c-12 2 -19.667 3 -23 3c-10.667 0 -19.334 -3.66699 -26.001 -11l-13 -25c-3.33301 4 -10.5 6 -21.5 6s-18.167 2.33301 -21.5 7c-2 -4.66699 -6 -7 -12 -7h-13c0.666992 3.33301 -1.66602 7.66602 -6.99902 12.999c-2.66699 -5.33301 -7.33398 -8 -14.001 -8
c-14.667 0.666992 -20.334 1.33398 -17.001 2.00098l-6 6c-5.33301 -5.33301 -9.33301 -7.33301 -12 -6c-4.66699 2 -7 8 -7 18c20.667 4.66699 33.334 14.667 38.001 30c-4 9.33301 -11.667 15.333 -23 18c-15.333 3.33301 -24.333 6 -27 8
c-3.33301 -0.666992 -9.33301 -2.33398 -18 -5.00098s-15 -4 -19 -4c-9.33301 0 -15.666 6.66699 -18.999 20c-2 4.66699 -3 8.66699 -3 12c0 6.66699 6.16699 11 18.5 13s19.5 4.33301 21.5 7l37 28c15.333 12 30 17.333 44 16c4 -7.33301 7.33301 -21 10 -41s6 -34 10 -42
c7.33301 -12.667 19.333 -20.334 36 -23.001l9 22c2.66699 8.66699 7.33398 13.667 14.001 15c6 0 14.333 -3.5 25 -10.5s19.334 -10.5 26.001 -10.5c4 0 8.33301 1 13 3c6 -6 11 -15.333 15 -28c5.33301 -14.667 8.66602 -23.667 9.99902 -27zM308 692.003
c-18.667 -8.66699 -40.667 -1.33301 -66 22c-28.667 26 -45.667 39 -51 39c-12.667 0 -21 -21.333 -25 -64l-64 -2c12 9.33301 29 35.333 51 78c16.667 30.667 37.667 46 63 46c12 0 26.333 -2.66699 43 -8l31 -52c12 -21.333 18 -41 18 -59z" />
    <glyph glyph-name="Otilde" unicode="&#xd5;" horiz-adv-x="410" 
d="M385 229l1.00098 1c-1.33301 -6.66699 -4.33301 -36.334 -9 -89.001c-4 -36.667 -9.33301 -66 -16 -88c-4 -1.33301 -7.66699 -2 -11 -2c-6.66699 0 -12.167 5.16699 -16.5 15.5s-8.5 15.5 -12.5 15.5s-9.66699 -3 -17 -9c-12 6 -23.667 12.167 -35 18.5
s-16.333 16.833 -15 31.5l8 5c-6.66699 32.667 -12 105 -16 217c-2.66699 94.667 -14 166 -34 214c-5.33301 -2 -8 -6 -8 -12c0.666992 -9.33301 1 -13.666 1 -12.999l-19 31c-4 -4 -6 -11 -6 -21c0.666992 -13.333 0.666992 -21 0 -23c-8.66699 1.33301 -15 -1 -19 -7
l-12 -18l19 -323l-13 -13l-6 6c-2.66699 -1.33301 -16.334 -12.666 -41.001 -33.999c-14.667 -12.667 -32 -18 -52 -16l-20 129c-7.33301 54 -11 99.667 -11 137c0 99.333 27 172.666 81 219.999c6 1.33301 19.667 6 41 14c17.333 6.66699 31.666 10 42.999 10
c9.33301 0 18.333 -2 27 -6c1.33301 5.33301 5.33301 8 12 8s10.667 0.333008 12 1c6.66699 -11.333 17.334 -16.333 32.001 -15c36 -26 62 -62 78 -108c12 -34 19.333 -79 22 -135l6 -136zM343.001 -5c-6.66699 -0.666992 -15.001 -0.331055 -25.001 1.00195
c-12 2 -19.667 3 -23 3c-10.667 0 -19.334 -3.66699 -26.001 -11l-13 -25c-3.33301 4 -10.5 6 -21.5 6s-18.167 2.33301 -21.5 7c-2 -4.66699 -6 -7 -12 -7h-13c0.666992 3.33301 -1.66602 7.66602 -6.99902 12.999c-2.66699 -5.33301 -7.33398 -8 -14.001 -8
c-14.667 0.666992 -20.334 1.33398 -17.001 2.00098l-6 6c-5.33301 -5.33301 -9.33301 -7.33301 -12 -6c-4.66699 2 -7 8 -7 18c20.667 4.66699 33.334 14.667 38.001 30c-4 9.33301 -11.667 15.333 -23 18c-15.333 3.33301 -24.333 6 -27 8
c-3.33301 -0.666992 -9.33301 -2.33398 -18 -5.00098s-15 -4 -19 -4c-9.33301 0 -15.666 6.66699 -18.999 20c-2 4.66699 -3 8.66699 -3 12c0 6.66699 6.16699 11 18.5 13s19.5 4.33301 21.5 7l37 28c15.333 12 30 17.333 44 16c4 -7.33301 7.33301 -21 10 -41s6 -34 10 -42
c7.33301 -12.667 19.333 -20.334 36 -23.001l9 22c2.66699 8.66699 7.33398 13.667 14.001 15c6 0 14.333 -3.5 25 -10.5s19.334 -10.5 26.001 -10.5c4 0 8.33301 1 13 3c6 -6 11 -15.333 15 -28c5.33301 -14.667 8.66602 -23.667 9.99902 -27zM389 809.003
c21.333 -10 31.999 -24.668 31.999 -44.001c0 -17.333 -8 -34.5 -24 -51.5s-34 -27.833 -54 -32.5c-2.66699 -1.33301 -5.33398 -2 -8.00098 -2c-4 0 -12 5.33301 -24 16c-9.33301 -5.33301 -19 -8 -29 -8c-17.333 0 -41.666 10.333 -72.999 31
c-33.333 22.667 -58 35.334 -74 38.001l-143 -35c-2.66699 7.33301 -4 14.666 -4 21.999c0 30.667 16.333 50.334 49 59.001c16.667 8 33.667 12 51 12c28.667 0 67.334 -14.333 116.001 -43s82.667 -43 102 -43c33.333 0 61 27 83 81z" />
    <glyph glyph-name="Odieresis" unicode="&#xd6;" horiz-adv-x="410" 
d="M385 229l1.00098 1c-1.33301 -6.66699 -4.33301 -36.334 -9 -89.001c-4 -36.667 -9.33301 -66 -16 -88c-4 -1.33301 -7.66699 -2 -11 -2c-6.66699 0 -12.167 5.16699 -16.5 15.5s-8.5 15.5 -12.5 15.5s-9.66699 -3 -17 -9c-12 6 -23.667 12.167 -35 18.5
s-16.333 16.833 -15 31.5l8 5c-6.66699 32.667 -12 105 -16 217c-2.66699 94.667 -14 166 -34 214c-5.33301 -2 -8 -6 -8 -12c0.666992 -9.33301 1 -13.666 1 -12.999l-19 31c-4 -4 -6 -11 -6 -21c0.666992 -13.333 0.666992 -21 0 -23c-8.66699 1.33301 -15 -1 -19 -7
l-12 -18l19 -323l-13 -13l-6 6c-2.66699 -1.33301 -16.334 -12.666 -41.001 -33.999c-14.667 -12.667 -32 -18 -52 -16l-20 129c-7.33301 54 -11 99.667 -11 137c0 99.333 27 172.666 81 219.999c6 1.33301 19.667 6 41 14c17.333 6.66699 31.666 10 42.999 10
c9.33301 0 18.333 -2 27 -6c1.33301 5.33301 5.33301 8 12 8s10.667 0.333008 12 1c6.66699 -11.333 17.334 -16.333 32.001 -15c36 -26 62 -62 78 -108c12 -34 19.333 -79 22 -135l6 -136zM343.001 -5c-6.66699 -0.666992 -15.001 -0.331055 -25.001 1.00195
c-12 2 -19.667 3 -23 3c-10.667 0 -19.334 -3.66699 -26.001 -11l-13 -25c-3.33301 4 -10.5 6 -21.5 6s-18.167 2.33301 -21.5 7c-2 -4.66699 -6 -7 -12 -7h-13c0.666992 3.33301 -1.66602 7.66602 -6.99902 12.999c-2.66699 -5.33301 -7.33398 -8 -14.001 -8
c-14.667 0.666992 -20.334 1.33398 -17.001 2.00098l-6 6c-5.33301 -5.33301 -9.33301 -7.33301 -12 -6c-4.66699 2 -7 8 -7 18c20.667 4.66699 33.334 14.667 38.001 30c-4 9.33301 -11.667 15.333 -23 18c-15.333 3.33301 -24.333 6 -27 8
c-3.33301 -0.666992 -9.33301 -2.33398 -18 -5.00098s-15 -4 -19 -4c-9.33301 0 -15.666 6.66699 -18.999 20c-2 4.66699 -3 8.66699 -3 12c0 6.66699 6.16699 11 18.5 13s19.5 4.33301 21.5 7l37 28c15.333 12 30 17.333 44 16c4 -7.33301 7.33301 -21 10 -41s6 -34 10 -42
c7.33301 -12.667 19.333 -20.334 36 -23.001l9 22c2.66699 8.66699 7.33398 13.667 14.001 15c6 0 14.333 -3.5 25 -10.5s19.334 -10.5 26.001 -10.5c4 0 8.33301 1 13 3c6 -6 11 -15.333 15 -28c5.33301 -14.667 8.66602 -23.667 9.99902 -27zM334 682.003
c-35.333 0 -58 0.667969 -68 2.00098s-20 10.666 -30 27.999v47l96 1l-32 -32c12.667 -10 21 -15 25 -15c2 0 4.33301 0.333008 7 1zM172 757.004c-1.33301 -5.33301 -1.33203 -13 0.000976562 -23c1.33301 -13.333 2 -21.333 2 -24c0 -14.667 -5.33301 -25 -16 -31
c-40.667 9.33301 -61.334 14 -62.001 14c-6 0 -12 -0.666992 -18 -2l-2 64z" />
    <glyph glyph-name="multiply" unicode="&#xd7;" horiz-adv-x="390" 
d="M314 235l-18.001 -18.998c-7.33301 -8 -15 -11 -23 -9c-6 6.66699 -13.667 18.667 -23 36s-17.333 29.666 -24 36.999c-9.33301 8.66699 -20.333 14.334 -33 17.001l-1 18v4v6l-49 7c3.33301 10.667 1 19.667 -7 27c-3.33301 3.33301 -10.166 8.16602 -20.499 14.499
s-17.833 11.5 -22.5 15.5c-3.33301 4 -6 8 -8 12l-29 27l18 20c7.33301 8 15.333 11 24 9c5.33301 -3.33301 10.333 -7.33301 15 -12c6 -6.66699 13.667 -17.334 23 -32.001s17 -25 23 -31s12 -10.667 18 -14c17.333 7.33301 34 19 50 35c18.667 18.667 32 38 40 58l43 -42
c-8 -5.33301 -17 -14.333 -27 -27c-13.333 -16 -22 -25.667 -26 -29c-16 -16.667 -33 -24.667 -51 -24c-4 -3.33301 -8.66699 -10 -14 -20v-5c0 -1.33301 0.5 -2.83301 1.5 -4.5s2.5 -3.16699 4.5 -4.5c4 -4.66699 16.333 -7 37 -7zM164.999 269.002
c-12.667 -5.33301 -36.001 -24.667 -70.001 -58l-36 34l22 24c9.33301 9.33301 18.333 13.333 27 12c-3.33301 7.33301 -1.66602 14.333 5.00098 21c10 10 15.333 15 16 15c0 -4 1.66699 -7.66699 5 -11c4 -4 10.667 -7.16699 20 -9.5s15 -4.5 17 -6.5c4 -4 2 -11 -6 -21z
" />
    </font>
</defs>
</svg>
